<?xml version="1.0" encoding="UTF-8" standalone="no"?>
<svg width="19px" height="19px" viewBox="0 0 19 19" version="1.1" xmlns="http://www.w3.org/2000/svg" xmlns:xlink="http://www.w3.org/1999/xlink">
    <!-- Generator: Sketch 41.2 (35397) - http://www.bohemiancoding.com/sketch -->
    <title>Page 1</title>
    <desc>Created with Sketch.</desc>
    <defs></defs>
    <g id="Page-1" stroke="none" stroke-width="1" fill="none" fill-rule="evenodd">
        <g id="var4" transform="translate(-355.000000, -131.000000)" fill="#1fb1e8">
            <g id="icon-pujcimsi-active" transform="translate(342.000000, 124.000000)">
                <path d="M30.1,16.5 C30.1,12.30955 26.69045,8.9 22.5,8.9 C18.30955,8.9 14.9,12.30955 14.9,16.5 C14.9,20.69045 18.30955,24.1 22.5,24.1 C26.69045,24.1 30.1,20.69045 30.1,16.5 M32,16.5 C32,21.74685 27.7459,26 22.5,26 C17.2541,26 13,21.74685 13,16.5 C13,11.25315 17.2541,7 22.5,7 C27.7459,7 32,11.25315 32,16.5 M16.8,16.5 L22.5,16.5 L22.5,10.8 C25.64355,10.8 28.2,13.35645 28.2,16.5 C28.2,19.64355 25.64355,22.2 22.5,22.2 C19.35645,22.2 16.8,19.64355 16.8,16.5" id="Page-1"></path>
            </g>
        </g>
    </g>
</svg>