<?xml version="1.0" encoding="UTF-8" standalone="no"?>
<!-- Created with Inkscape (http://www.inkscape.org/) -->

<svg
   xmlns:dc="http://purl.org/dc/elements/1.1/"
   xmlns:cc="http://creativecommons.org/ns#"
   xmlns:rdf="http://www.w3.org/1999/02/22-rdf-syntax-ns#"
   xmlns:svg="http://www.w3.org/2000/svg"
   xmlns="http://www.w3.org/2000/svg"
   xmlns:sodipodi="http://sodipodi.sourceforge.net/DTD/sodipodi-0.dtd"
   xmlns:inkscape="http://www.inkscape.org/namespaces/inkscape"
   width="31.397223mm"
   height="20.75766mm"
   viewBox="0 0 111.25 73.550761"
   id="svg4557"
   version="1.1"
   inkscape:version="0.91 r"
   sodipodi:docname="handshake.svg">
  <defs
     id="defs4559" />
  <sodipodi:namedview
     id="base"
     pagecolor="#ffffff"
     bordercolor="#666666"
     borderopacity="1.0"
     inkscape:pageopacity="0.0"
     inkscape:pageshadow="2"
     inkscape:zoom="0.98994949"
     inkscape:cx="81.817933"
     inkscape:cy="-14.24947"
     inkscape:document-units="px"
     inkscape:current-layer="layer1"
     showgrid="false"
     fit-margin-top="0"
     fit-margin-left="0"
     fit-margin-right="0"
     fit-margin-bottom="0"
     inkscape:window-width="1366"
     inkscape:window-height="718"
     inkscape:window-x="0"
     inkscape:window-y="0"
     inkscape:window-maximized="1" />
  <metadata
     id="metadata4562">
    <rdf:RDF>
      <cc:Work
         rdf:about="">
        <dc:format>image/svg+xml</dc:format>
        <dc:type
           rdf:resource="http://purl.org/dc/dcmitype/StillImage" />
        <dc:title></dc:title>
      </cc:Work>
    </rdf:RDF>
  </metadata>
  <g
     inkscape:label="Layer 1"
     inkscape:groupmode="layer"
     id="layer1"
     transform="translate(-267.31822,-421.27395)">
    <g
       transform="translate(257.22675,-272.81779)"
       id="g4498"
       style="fill:#424242;fill-opacity:1">
      <path
         inkscape:connector-curvature="0"
         style="fill:#424242;fill-opacity:1"
         d="m 56.39125,766.02673 c -1.91444,-2.30677 -0.92961,-5.39145 3.11201,-9.74749 3.72218,-4.01175 6.25429,-4.36421 7.99439,-1.1128 0.95903,1.79196 0.5407,3.27816 -1.82543,6.48527 -4.70267,6.37412 -6.80096,7.36324 -9.28097,4.37502 z"
         id="path4458" />
      <path
         inkscape:connector-curvature="0"
         style="fill:#424242;fill-opacity:1"
         d="m 69.26739,766.88744 c -1.04364,-0.66839 -0.82996,-1.69264 0.76368,-3.6607 1.65526,-2.04416 2.57148,-2.37391 3.63658,-1.30882 1.35972,1.35972 1.99864,4.67382 0.90105,4.67382 -0.28752,0 -1.27189,0.27534 -2.1875,0.61188 -0.9156,0.33652 -2.31682,0.19423 -3.11381,-0.31618 z"
         id="path4456" />
      <path
         inkscape:connector-curvature="0"
         style="fill:#424242;fill-opacity:1"
         d="m 76.18614,761.90424 c -1.71768,-1.89062 -3.78338,-4.99266 -4.59045,-6.89341 -0.80707,-1.90075 -2.99582,-4.15075 -4.86389,-5 -1.86806,-0.84925 -4.66328,-2.80971 -6.21159,-4.35659 -1.54831,-1.54688 -3.46284,-2.8125 -4.25452,-2.8125 -0.79168,0 -2.54558,-1.40625 -3.89755,-3.125 -1.35196,-1.71875 -3.15961,-3.125 -4.01698,-3.125 -0.85737,0 -2.78157,-1.40625 -4.276,-3.125 -3.46113,-3.98064 -9.57448,-4.18008 -13.55332,-0.44215 -3.05938,2.87413 -2.50064,2.93695 -18.86787,-2.12149 -1.13244,-0.34998 -1.5625,-4.47347 -1.5625,-14.98136 0,-13.89563 0.10322,-14.46571 2.48253,-13.71054 5.93647,1.88415 18.24343,1.10091 25.37686,-1.61506 8.30301,-3.16126 13.17592,-3.47601 16.47439,-1.06411 2.24745,1.64337 2.24665,1.77638 -0.0289,4.79317 -1.28729,1.7066 -4.19026,4.4616 -6.45105,6.12223 -6.95563,5.10912 -6.98759,12.08885 -0.0717,15.66517 5.22814,2.70358 10.79093,1.5976 18.73064,-3.72397 4.56216,-3.05778 7.09495,-4.04205 8.48581,-3.29768 1.09045,0.58359 7.727,7.23838 14.74791,14.78844 8.81333,9.47756 12.52858,14.34421 12.00069,15.71986 -1.46357,3.81401 -5.98287,2.05855 -13.27337,-5.15589 -3.97306,-3.9316 -7.22375,-6.33991 -7.22375,-5.35179 0,0.98811 2.88981,4.72272 6.42181,8.29914 4.31932,4.37365 6.17022,7.15823 5.65335,8.50516 -1.63822,4.26913 -4.68807,3.61568 -10.68272,-2.28883 -7.33115,-7.22091 -9.45925,-6.14089 -2.58807,1.31346 4.23015,4.58918 4.81069,5.83773 3.68893,7.93375 -1.81387,3.38925 -3.94701,3.1243 -7.64862,-0.95001 z"
         id="path4454" />
      <path
         inkscape:connector-curvature="0"
         style="fill:#424242;fill-opacity:1"
         d="m 46.33223,759.70562 c -1.28853,-1.55259 -0.96539,-2.75187 1.82728,-6.78169 3.85496,-5.5627 6.48082,-7.01271 8.96539,-4.9507 2.42505,2.01261 2.1676,3.4583 -1.57843,8.86382 -3.47742,5.01792 -6.61879,5.99589 -9.21424,2.86857 z"
         id="path4452" />
      <path
         inkscape:connector-curvature="0"
         style="fill:#424242;fill-opacity:1"
         d="m 38.4248,753.2584 c -2.80448,-2.80447 4.15073,-13.27714 8.41157,-12.66552 3.71586,0.53337 3.93624,4.22082 0.5495,9.19446 -2.72167,3.99695 -6.83997,5.59216 -8.96107,3.47106 z"
         id="path4450" />
      <path
         inkscape:connector-curvature="0"
         style="fill:#424242;fill-opacity:1"
         d="m 30.05611,747.17413 c -1.89472,-2.28299 -0.1763,-6.27345 4.65682,-10.81393 2.34586,-2.20381 3.45056,-2.52033 5.12222,-1.46765 3.3655,2.11934 3.10431,4.47087 -1.05651,9.51169 -4.19893,5.08699 -6.25709,5.74056 -8.72253,2.76989 z"
         id="path4448" />
      <path
         inkscape:connector-curvature="0"
         style="fill:#424242;fill-opacity:1"
         d="m 90.42036,724.75248 c -7.60742,-7.2384 -14.59222,-13.16074 -15.52178,-13.16074 -0.92956,0 -4.41249,1.93555 -7.73985,4.30121 -3.32736,2.36566 -7.65195,4.65311 -9.61019,5.08322 -3.51003,0.77093 -8.70707,-1.01107 -8.70707,-2.98554 0,-1.58916 22.22206,-23.89889 23.80498,-23.89889 0.77826,0 6.00614,2.06053 11.61752,4.57895 10.80055,4.84735 19.97377,5.95737 31.765,3.84377 l 5.3125,-0.95227 0,14.12967 0,14.12967 -7.8125,3.6976 c -4.29688,2.03368 -8.142,3.85432 -8.54472,4.04585 -0.40272,0.19154 -6.95647,-5.57409 -14.56389,-12.8125 z"
         id="path4446" />
    </g>
  </g>
</svg>
