<?xml version="1.0" encoding="UTF-8" standalone="no"?>
<svg
   xmlns:dc="http://purl.org/dc/elements/1.1/"
   xmlns:cc="http://creativecommons.org/ns#"
   xmlns:rdf="http://www.w3.org/1999/02/22-rdf-syntax-ns#"
   xmlns:svg="http://www.w3.org/2000/svg"
   xmlns="http://www.w3.org/2000/svg"
   version="1.1"
   id="svg4348"
   viewBox="0 0 192.09813 132.94064"
   height="37.518803mm"
   width="54.214359mm">
  <defs
     id="defs4350" />
  <metadata
     id="metadata4353">
    <rdf:RDF>
      <cc:Work
         rdf:about="">
        <dc:format>image/svg+xml</dc:format>
        <dc:type
           rdf:resource="http://purl.org/dc/dcmitype/StillImage" />
        <dc:title></dc:title>
      </cc:Work>
    </rdf:RDF>
  </metadata>
  <g
     transform="translate(-291.25968,-405.4809)"
     id="layer1">
    <g
       style="stroke:#424242;stroke-opacity:1"
       transform="matrix(0.30425304,0,0,0.30425304,258.7698,340.37511)"
       id="g4249">
      <rect
         style="opacity:1;fill:none;fill-opacity:0.3899371;stroke:#424242;stroke-width:29.88232803;stroke-linejoin:round;stroke-miterlimit:1;stroke-dasharray:none;stroke-opacity:1"
         id="rect4143"
         width="478.11725"
         height="347.61075"
         x="121.72688"
         y="288.37479" />
      <path
         style="fill:none;fill-rule:evenodd;stroke:#424242;stroke-width:59.88084412;stroke-linecap:butt;stroke-linejoin:miter;stroke-miterlimit:4;stroke-dasharray:none;stroke-opacity:1"
         d="m 131.49729,327.18992 437.76712,0 0,10.2533"
         id="path4147" />
    </g>
    <g
       transform="matrix(1.0414938,0,0,1.0414938,93.093096,50.477308)"
       id="layer1-0">
      <g
         style="fill-rule:nonzero"
         transform="translate(-248.49794,126.85496)"
         id="g5329">
        <g
           style="fill-rule:nonzero"
           id="g5324"
           transform="translate(20,-640)">
          <circle
             r="43.035713"
             cy="897.04077"
             cx="560.17853"
             id="path5320"
             style="opacity:1;fill:#424242;fill-opacity:1;fill-rule:nonzero;stroke:none;stroke-width:15.3760004;stroke-linejoin:round;stroke-miterlimit:1;stroke-dasharray:none;stroke-opacity:1" />
          <ellipse
             ry="34.464287"
             rx="33.57143"
             cy="897.18365"
             cx="560.71429"
             id="path5322"
             style="opacity:1;fill:#ffffff;fill-opacity:1;fill-rule:nonzero;stroke:none;stroke-width:15.3760004;stroke-linejoin:round;stroke-miterlimit:1;stroke-dasharray:none;stroke-opacity:1" />
          <path
             id="path5318"
             d="m 550.01339,937.70449 c -11.63563,-2.93529 -22.53986,-11.78851 -27.87625,-22.6329 -2.57152,-5.22574 -2.99427,-7.81203 -2.99427,-18.31831 0,-10.5552 0.41557,-13.07262 3.02918,-18.35022 4.06794,-8.21428 12.11328,-16.01137 20.58571,-19.95055 9.43674,-4.38752 24.69115,-4.6013 33.785,-0.47346 9.13218,4.14524 15.71676,10.2218 20.36341,18.79227 3.98912,7.35771 4.20099,8.36545 4.20099,19.98196 0,11.6165 -0.21187,12.62425 -4.20099,19.98195 -7.1185,13.12967 -19.10912,20.7463 -34.06749,21.64021 -4.5203,0.27012 -10.29168,-0.0318 -12.82529,-0.67095 z m 20.79598,-19.84847 c 5.99049,-6.13466 7.67011,-10.04481 7.65391,-17.81818 -0.0161,-7.6996 -4.22579,-16.33586 -12.22684,-25.08337 l -6.51119,-7.11864 -3.88557,8.34198 c -2.13708,4.5881 -6.17592,11.868 -8.97524,16.17757 -4.19106,6.45221 -5.08964,8.88141 -5.08964,13.75914 0,5.08778 0.6242,6.61447 4.42406,10.82047 2.43324,2.6933 4.88459,4.89691 5.44743,4.89691 0.56285,0 0.70812,-2.66173 0.32282,-5.91495 -0.73588,-6.21333 0.13788,-8.76141 7.97101,-23.24535 l 3.53065,-6.52837 3.22051,6.46273 c 4.20277,8.43387 4.31472,16.86316 0.32853,24.73689 -1.59059,3.14182 -2.53097,5.7124 -2.08973,5.7124 0.44123,0 3.08691,-2.33966 5.87929,-5.19923 z m -8.48603,-11.04523 -0.36331,-7.61082 -2.14085,3.91513 c -2.11872,3.87463 -2.97315,15.03003 -1.28084,16.72235 1.92925,1.92925 4.13632,-5.66674 3.785,-13.02666 z"
             style="fill:#424242;fill-opacity:1;fill-rule:nonzero" />
        </g>
      </g>
    </g>
    <path
       id="path4303"
       d="m 346.76591,480.88697 c 15.38729,6.32456 26.03631,3.14923 33.26584,-1.20511 11.28106,-6.79456 10.39306,-7.53329 10.39306,-7.53329 l 2.41543,9.00677 6.07685,6.37716 c -19.95724,12.59265 -35.29975,9.91619 -54.6257,1.4728 l -1.37219,8.48263 c -6.12624,-11.06014 -4.87637,-9.997 -10.96028,-18.84916 7.8928,-1.5609 10.20469,-2.13015 18.74118,-4.69604 l -4.05373,7.01609"
       style="fill:#424242;fill-opacity:1;fill-rule:evenodd;stroke:none;stroke-width:0.63499999;stroke-linecap:butt;stroke-linejoin:miter;stroke-miterlimit:4;stroke-dasharray:none;stroke-opacity:1" />
  </g>
</svg>
