<?xml version="1.0" encoding="UTF-8" standalone="no"?>
<svg viewBox="0 0 1235 650" xmlns="http://www.w3.org/2000/svg" xmlns:xlink="http://www.w3.org/1999/xlink" preserveAspectRatio="none">
<defs>
<path d="m-.16246,0 .16246.5 .16246-.5h-.32492z" id="point" transform="scale(6.16e-2)"/>
<g id="star">
<use height="650" transform="matrix(-.30902,-.95106,.95106,-.30902,0,0)" width="1235" xlink:href="#point"/>
<use height="650" transform="matrix(.80902,-.58779,.58779,.80902,0,0)" width="1235" xlink:href="#point"/>
<use height="650" transform="rotate(35.99998)" width="1235" xlink:href="#point"/>
<use height="650" transform="matrix(-.30902,.95106,-.95106,-.30902,0,0)" width="1235" xlink:href="#point"/>
<use height="650" transform="scale(-1)" width="1235" xlink:href="#point"/>
</g>
<g id="row5">
<use height="650" width="1235" x="-.252" xlink:href="#star"/>
<use height="650" width="1235" x="-.126" xlink:href="#star"/>
<use height="650" width="1235" xlink:href="#star"/>
<use height="650" width="1235" x=".126" xlink:href="#star"/>
<use height="650" width="1235" x=".252" xlink:href="#star"/>
</g>
<g id="row6">
<use height="650" width="1235" x="-.063" xlink:href="#row5"/>
<use height="650" width="1235" x=".315" xlink:href="#star"/>
</g>
<g id="rowx4">
<use height="650" width="1235" xlink:href="#row6"/>
<use height="650" width="1235" xlink:href="#row5" y=".054"/>
<use height="650" width="1235" xlink:href="#row6" y=".108"/>
<use height="650" width="1235" xlink:href="#row5" y=".162"/>
</g>
<clipPath id="border">
<path d="m-15-7.5h30v15h-30z"/>
</clipPath>
</defs>
<desc>United States Flag</desc>
<g clip-path="url(#border)" transform="matrix(41.16667,0,0,43.33333,617.5,325)">
<path d="m20,0a20,20 0 1,0 -40,0 20,20 0 1,0 40,0" fill="#00247d"/>
<path d="m-20-10 40,20m-40,0 40-20" stroke="#fff" stroke-width="3"/>
<path d="m-20-10 40,20m-40,0 40-20" stroke="#cf142b" stroke-width="2"/>
<path d="m0,0 20,10h-3l-20-10m3,0 20-10h3l-20,10m-3,0-20,10h-3l20-10m3,0-20-10h3l20,10" fill="#fff"/>
<path d="m-20,0h40m-20-10v20" stroke="#fff" stroke-width="5"/>
<path d="m-20,0h40m-20-10v20" stroke="#cf142b" stroke-width="3"/>
</g>
<path d="m0,0v650l1235-650h-1235z" fill="#fff"/>
<path d="m0,0v50h1140l95-50h-1235z" fill="#bf0a30"/>
<path d="m0,100v50h950l95-50h-1045z" fill="#bf0a30"/>
<path d="m0,200v50h760l95-50h-855z" fill="#bf0a30"/>
<path d="m0,300v50h570l95-50h-665z" fill="#bf0a30"/>
<path d="m0,400v50h380l95-50h-475z" fill="#bf0a30"/>
<path d="m0,500v50h190l95-50h-285z" fill="#bf0a30"/>
<path d="m0,600v50l95-50h-95z" fill="#bf0a30"/>
<path d="m0,0h494v350h-494z" fill="#002868"/>
<g fill="#fff" transform="matrix(650,0,0,650,247,175)">
<use fill="#fff" height="1" width="1" xlink:href="#rowx4" y="-.216"/>
<use fill="#fff" height="1" width="1" xlink:href="#rowx4"/>
<use fill="#fff" height="1" width="1" xlink:href="#row6" y=".216"/>
</g>
</svg>
