<?xml version="1.0" encoding="utf-8"?>
<!-- Generator: Adobe Illustrator 16.0.0, SVG Export Plug-In . SVG Version: 6.00 Build 0)  -->
<!DOCTYPE svg PUBLIC "-//W3C//DTD SVG 1.1//EN" "http://www.w3.org/Graphics/SVG/1.1/DTD/svg11.dtd">
<svg version="1.1" id="Vrstva_1" xmlns="http://www.w3.org/2000/svg" xmlns:xlink="http://www.w3.org/1999/xlink" x="0px" y="0px"
	 width="132.056px" height="122.077px" viewBox="67.057 82.725 132.056 122.077"
	 enable-background="new 67.057 82.725 132.056 122.077" xml:space="preserve">
<g>
	<path fill="#F9CCA1" d="M133.625,137.787l4.807-0.821l6.448-0.352l7.151,0.821l2.578,1.992l1.524,3.05l0.353,3.517
		c0,0-0.234,3.165-0.353,4.22c-0.116,1.057-0.702,3.752-0.702,3.752l-1.174,4.221l-0.703,4.104c0,0,0,5.041-0.352,5.274
		c-0.352,0.234-2.462,7.974-2.462,7.974v2.346l-1.29,2.228l-0.294,14.07l0.516,2.524l2.007,3.453l0.352,2.228l-1.055,1.055
		c0,0-1.524-0.353-1.994-0.469c-0.469-0.117-1.758-1.406-1.758-1.406l-1.056-2.346l0.67-5.658l-2.663-17.438l-0.47-13.601
		l0.353,30.131l0.117,3.869l-0.703,1.523l-4.925,1.877l-5.275,0.352l0.117-1.174l5.926-2.578l1.29-9.379l-1.589-5.629l-1.758-6.33
		l-1.642-1.406v-2.346l-1.173-5.158c0,0-1.172-4.455-1.172-4.807s-1.876-6.096-1.876-6.566c0-0.469,0.117-8.558,0.117-8.558
		l0.586-6.331L133.625,137.787z"/>
	<path fill="#7B544A" d="M144.389,191.312l-3.049,0.705l-1.173-0.352h-0.586l0.117,1.406l-0.234,1.406l-1.055,0.819l-2.697,0.938
		l-1.523,0.117c0,0-0.938,0.187-1.642,0.938c-0.705,0.752-0.469,3.166-0.469,3.166s1.078,0.756,1.992,0.819
		c0.916,0.064,3.518-0.352,3.518-0.352l2.345-1.057l2.344-0.938l1.408,0.352l0.938-0.117l1.29-1.289l-0.47-3.049l-0.702-0.938
		L144.389,191.312z"/>
	<path fill="#7B544A" d="M144.411,193.24l2.813,0.352l1.875-0.469l0.469-0.82c0,0,0.193,3.453,0.586,4.572
		c0.396,1.121,3.05,2.697,3.05,2.697l0.703,1.055c0,0,0.565,2.254-0.47,2.695c-1.033,0.443-2.578,0.471-2.578,0.471
		s-3.096,0.012-3.635-0.705c-0.541-0.713-0.82-2.461-0.82-2.461l-1.29-1.76l-0.938-3.047L144.411,193.24z"/>
	<path fill="#A37D2F" d="M132.854,137.201l-1.199,1.875l-0.479,2.814l-0.359,5.744c0,0,0.239,7.502,0.239,7.855
		c0,0.352,0.359,5.743,0.359,5.743l1.68,5.979l0.6,5.746l3.479,13.601l0.239,3.28l-1.199,3.636l7.194,0.352l1.8-0.352l0.601,0.586
		l3.356-0.47l2.278-0.586l1.08-16.063l0.959-5.51l1.078-7.621l2.278-9.729l-0.12-12.309l-1.318-4.925l-11.992,0.821L132.854,137.201
		z"/>
	<path fill="#F9CCA1" d="M157.577,120.042l-2.604,3.708l-1.421,3.788c0,0-2.963,2.616-0.395,3.552
		c0.881,0.32,0.632,1.656,0.632,1.656s0.548-0.465,0.079,0.474c-0.47,0.939,2.11,0.269,2.11,0.269l-0.705,1.406
		c0,0-0.695,1.014-0.695,1.717c0,0.704-1.578,0-1.578,0l-1.5,1.264l-2.604-0.475c0,0-2.787,2.205-5.367,1.736
		c-2.578-0.469-8.522-0.236-8.522-0.236l0.337-3.303l-1.642-15.006l-5.393,0.469l1.095-8.037l0.43-1.576l3.165-2.346l2.11-0.703
		c0,0,4.455-0.938,5.159-1.172c0.703-0.234,0.469-0.938,0.469-0.938l-0.234-3.517l1.406-1.173l2.345-1.173l5.395,0.938
		c0,0,0.703,2.11,0.703,3.048s0.233,0.938,0.233,0.938s1.876,1.173,3.049,1.643c1.173,0.469,2.11,1.406,2.11,1.406
		s3.281,0.703,3.984,0.938c0.705,0.234,1.643,0.352,2.814,0.938s2.109,3.282,2.109,3.282l2.346,2.58l-3.986,6.564l-5.394-2.813"/>
	<path fill="#41403B" d="M101.988,194.49l3.467,0.062l2.215-0.686l0.457-0.896c0,0,0.709,3.549,1.341,4.664
		c0.633,1.116,4.075,2.465,4.075,2.465l1,1.014c0,0,0.996,2.273-0.198,2.842c-1.196,0.568-3.069,0.76-3.069,0.76
		s-3.76,0.344-4.514-0.339c-0.756-0.681-1.336-2.459-1.336-2.459l-1.809-1.681l-1.559-3.051L101.988,194.49z"/>
	<path fill="#41403B" d="M83.549,190.674l-3.812,0.24l-1.358-0.549l-0.709-0.09l-0.104,1.463l-0.528,1.408l-1.421,0.679
		l-3.426,0.538l-1.864-0.121c0,0-1.169,0.041-2.151,0.703c-0.983,0.664-1.119,3.181-1.119,3.181s1.172,0.946,2.269,1.159
		c1.099,0.21,4.319,0.191,4.319,0.191l3.021-0.713l3.001-0.592l1.643,0.582l1.156,0.027l1.784-1.12l-0.037-3.209l-0.688-1.074
		L83.549,190.674z"/>
	<path fill="#C76E6C" d="M166.133,114.511l-1.711-1.919c0,0-1.465-2.278-2.688-2.88c-1.221-0.6-2.198-0.719-2.932-0.959
		c-0.732-0.24-4.154-0.959-4.154-0.959s-0.977-0.959-2.197-1.439s-0.979,1.68-3.42,3.357c-2.443,1.682-4.643,2.4-7.086,0.961
		c-2.442-1.439-2.687-4.318-3.421-4.078c-0.732,0.24-5.374,1.199-5.374,1.199l-3.475,2.654l-1.91,5.285l3.674,5.016l0.977,16.072
		c0,0-0.732,2.16-0.244,3.12c0.488,0.959,7.819,1.679,10.508,2.159c2.687,0.48,6.107-0.721,6.107-0.721l1.709-0.24l2.199-0.959
		c0,0,0.037-0.252,0.732-0.479c1.465-0.48,2.443-5.039,2.443-5.039l0.732-5.998l0.487-3.598v-4.559l3.665,0.959L166.133,114.511z"/>
	<path fill="#F9CCA1" d="M118.891,149.699"/>
	<path fill="#525038" d="M115.162,137.363l1.371,2.01l0.482,2.951l0.247,5.992c0,0-0.527,7.785-0.539,8.151
		c-0.011,0.365-0.614,5.952-0.614,5.952l-2.195,6.13l-0.9,5.938l-4.588,13.957l-0.393,3.398l1.316,3.842l-8.604-0.006l-0.34-0.074
		l-2.665-5.732l2.121-34.316l2.849-18.255L115.162,137.363z"/>
	<polygon fill="#525038" points="85.05,159.896 86.46,149.609 91.607,137.798 95.094,133.582 108.205,139.166 108.362,139.216 
		85.033,193.109 83.456,192.217 82.545,192.542 78.972,190.747 76.656,189.273 81.987,173.363 83.157,167.672 	"/>
	<polygon fill="#F9CCA1" points="111.906,100.282 109.594,100.811 107.893,98.893 108.162,96.061 108.897,94.277 108.521,92.286 
		110.167,88.22 113.646,85.35 119.3,84.059 122.369,86.127 124.231,90.316 125.844,93.178 125.829,95.948 124.837,97.791 
		124.318,99.295 124.353,100.9 120.574,103.609 116.722,104.488 114.458,103.854 112.838,102.377 	"/>
	<path fill="#535038" d="M125.286,92.713l0.044-2.85c0,0-0.513-2.723-0.603-3.203c-0.092-0.48-1.631-2.467-1.631-2.467l-2.346-1.135
		l-2.198-0.333l-3.439,0.284l-2.79,0.637l-2.86,2.323l-1.156,2.102l-0.601,2.978l0.015,3.17l0.492,0.556l1.237,0.386l2.307-3.199
		l1.714-2.229l2.116-2.153l3.224-0.403l2.635-0.434l0.639,2.359l1.322,1.87L125.286,92.713z"/>
	<path fill="#F9CCA1" d="M126.259,122.437l6.98,4.753v-4.834l-0.333-2.166c0,0,0.662-4.334-0.5-5.334
		c-1.163-1.002-0.929-2.681-1.667-3.166c-0.739-0.484-2.682-1.227-2.682-1.227s-0.767-1.262-1.97-2.147
		c-1.205-0.886-2.985-2.718-2.985-2.718s-0.272-0.086,0.054-1.007c0.324-0.922,0.237-3.252,0.237-3.252l-5.961-2.876l-3.14,0.303
		l-2.047,0.644l-0.949,3.543c0,0,0.031,0.774-0.87,0.751c-0.901-0.023-6.419-0.715-6.419-0.715l-2.704-0.074l-4.505,1.158
		l-2.271,3.003l-1.701,2.669L91.14,112.8c0,0,0.438-0.375-2.448,4.355c-2.883,4.732-2.883,4.732-2.883,4.732l-1.278,1.903
		l-1.375,1.748l-2.025,3.591l-1.819,4.294l-2.802,4.501c0,0-0.598,2.117-1.003,3.268c-0.406,1.152-0.183,3.525-0.183,3.525
		s1.151,1.895,1.957,1.76c0.805-0.133,0.101-3.295,0.101-3.295l1.756-2.396c0,0-0.744,2.967,0.391,3.19
		c1.134,0.226,1.508-2.982,1.508-2.982s0.158-3.021,0.372-4.49c0.215-1.468,2.325-4.01,2.325-4.01s6.364-5.567,6.58-5.756
		c1.573-1.355,0.83-1.916,0.83-1.916l2.423-2.571l3.896-4.159l-2.621,11.718l-1.537,3.124c0,0,7.008,1.926,9.85,3.32
		c2.845,1.395,6.857,0.238,6.857,0.238l2.871,1.408l2.187-0.698c0,0,1.594,1.264,1.839,0.571c0.244-0.691,1.408-1.436,1.408-1.436
		l1.309-1.127c0,0-3.24-0.276-2.366-1.029c0.87-0.752,0.072-0.494,0.072-0.494s0.753-1.223-0.163-1.856
		c-2.668-1.851,1.694-3.348,1.694-3.348l2.968-3.209l4.323-2.702"/>
	<path fill="#50A172" d="M133.01,119.814c0,0,0.491-2.176,0.063-4.188c-0.378-1.775-1.654-3.397-2-3.625
		c-0.738-0.484-3.289-1.789-3.289-1.789s-0.769-1.263-1.972-2.147c-1.204-0.886-1.664,1.272-4.966,2.036
		c-3.303,0.765-6.01,0.691-8.252-1.541c-2.246-2.232-1.542-5.084-2.444-5.107c-0.9-0.024-6.419-0.717-6.419-0.717l-2.703-0.073
		l-4.504,1.158l-2.272,3.002l-0.637,2.233l2.001,2.923l2.354,2.778l-4.904,15.613c0,0-1.552,1.82-1.331,2.912
		c0.222,1.091,8.177,4.332,11.021,5.727c2.844,1.395,7.075,1.434,7.075,1.434l1.997,0.363l2.785-0.157c0,0,0.127-0.229,0.98-0.206
		c1.805,0.047,4.442-3.991,4.442-3.991l2.854-5.509l1.768-3.287l1.546-4.379l4.583-2.668L133.01,119.814z"/>
	<polygon fill="#F9CCA1" points="139.459,100.801 137.349,100.801 136.177,98.456 136.88,95.643 137.818,94.001 137.818,91.891 
		139.929,88.139 143.445,86.029 148.604,86.029 150.949,88.842 151.887,93.531 152.824,96.814 152.355,99.629 151.184,101.27 
		150.479,102.677 150.245,104.318 146.494,106.193 142.977,106.193 141.101,105.021 139.929,103.146 	"/>
	<path fill="#FBCB4C" d="M151.993,96.283l0.469-2.656c0,0,0-2.658,0-3.127s-0.938-2.658-0.938-2.658l-1.719-1.563l-1.72-0.781
		l-2.813-0.47h-2.346l-2.657,1.563l-1.251,1.719l-0.938,2.658l-0.469,2.97l0.312,0.626l0.938,0.625l2.345-2.501l1.72-1.72
		l2.032-1.563l2.658,0.313l2.188,0.156l0.156,2.344l0.781,2.033L151.993,96.283z"/>
	<polygon fill="#535038" points="180.661,192.721 180.314,194.629 178.232,196.189 176.672,197.926 177.191,200.699 
		179.273,201.566 182.223,201.914 183.783,200.875 185.171,200.875 188.12,201.395 190.202,200.18 190.895,199.139 191.243,196.363 
		189.508,193.588 189.508,190.812 185.171,189.252 181.702,189.771 	"/>
	<path fill="#FBCB4C" d="M172.374,137.273c0,0,1.522-1.758,4.688-2.344c3.166-0.586,7.387,0,7.387,0l5.275,0.469l7.034,0.586
		l0.47,7.62l-2.11,5.748l-3.282,10.901l-1.523,3.985l0.117,3.166l0.352,2.578c0,0,0.469,5.396,0.469,7.152
		c0,1.758-0.352,7.27-0.352,7.27l-0.82,2.462l0.469,1.407l-0.938,2.345l-0.82,1.76l-4.572-0.354l0.234,1.525l-3.986-0.352
		l-0.938-1.408l-0.234-2.461l-1.057-5.51l-1.992-15.828l0.234-3.049l-1.642-4.572l-1.407-12.193L172.374,137.273z"/>
	<path fill="#F4C8AA" d="M153.32,100.885l0.771-2.729l1.083-1.961l2.533-1.959l2.561-1.361l3.611-0.537l2.444,1.566l0.31,2.219
		l0.818,6.2l-0.686,3.069l-1.623,0.282l0.993,2.049l4.042-4.147c0,0,5.52-1.131,5.889-1.102c0.369,0.029,4.858,3.502,4.858,3.502
		l4.628,5.01l3.721,4.754l2.783,3.897l4.25,13.683l2.385,3.756l0.422,4.607l-0.06,1.706l-2.448,1.334l0.656-1.25l0.996-1.337
		l-0.169-1.649l-0.599,0.994l-0.484,1.451l-1.082,1.479l-1.224,0.908l-0.996,0.367l0.515-1.818l1.196-1.988l0.087-1.109
		l-0.884,1.307l-1.14,1.731l-0.484,1.451l-0.738-1.025l0.77-1.764l0.826-1.533l-1.761-1.736l-1.677-0.428l0.77-1.763l1.28-1.165
		l0.938-1.078l-2.891-7.256l-3.066-6.002l-2.864-5.207l-5.116-2.109l2.838,5.576l4.146,4.043l2.332,1.594l4.91,6.148l-1.457,6.281
		l-19.196,3.932l-6.468-13.855l-2.473-1.197l-3.432-8.932l-0.624-2.02l-0.14-2.502l-1.561-2.873l-2.47-4.098l-1.533-2.76
		L153.32,100.885z"/>
	<path fill="#FEF4C0" d="M185.413,110.901l-4.629-5.009c0,0-2.813-3.529-4.858-3.503c-2.05,0.025-5.89,1.103-5.89,1.103
		l-4.041,4.146l-7.794,2.664l1.561,2.874l0.141,2.502l0.621,2.021l3.434,8.931l2.473,1.197l6.467,13.855c0,0,1.733,1.623,6.512,1.4
		c4.775-0.223,12.688-5.331,12.688-5.331s2.762-2.982,1.459-6.283c-1.306-3.3-4.914-6.147-4.914-6.147l-2.33-1.595l-4.147-4.043
		l-2.836-5.576l5.116,2.11L185.413,110.901z"/>
	<path fill="#535038" d="M153.539,90.188l1.876-1.407c0,0,2.345-1.642,4.571-1.759c2.228-0.117,5.277,1.524,5.277,1.524l1.405,2.579
		l0.938,3.518l0.233,3.283l0.47,3.282l0.233,3.048l-0.233,11.959l-0.234,2.344l0.234,3.518l-0.834,1.73l-3.621,0.85
		c0,0-0.938-1.877-1.174-2.814c-0.233-0.938-0.938-4.924-0.938-4.924l1.173-3.752l-0.47-2.345l0.703-4.455l1.406-1.642l1.643-2.578
		l0.938-2.58v-0.703v-1.172v-0.47l-0.469,0.352l-0.586,0.821l-0.352,0.703l-0.234-1.759v-1.642l-0.704-1.055l-1.289-1.289
		l-1.524,0.234l-0.819,1.641l-1.993,1.172l-1.759,0.47l-2.696,1.407l-0.938,0.469l0.353,3.282l1.056,2.579l1.406,1.056l1.172,0.703
		l1.29,2.931l1.056,3.4l0.117,2.228v1.29l-0.117,2.109l-1.523,1.994l-0.117,3.048l-0.117,0.586l-1.992-1.173l0.352-5.041
		l-0.352-2.109l-1.643-4.338l-0.352-1.76l-0.821-2.695l0.117-3.518l-0.938-5.979v-5.041L153.539,90.188z"/>
</g>
</svg>
