<?xml version="1.0" encoding="utf-8"?>
<!-- Generator: Adobe Illustrator 15.0.0, SVG Export Plug-In . SVG Version: 6.00 Build 0)  -->
<!DOCTYPE svg PUBLIC "-//W3C//DTD SVG 1.1//EN" "http://www.w3.org/Graphics/SVG/1.1/DTD/svg11.dtd">
<svg version="1.1" id="Layer_1" xmlns="http://www.w3.org/2000/svg" xmlns:xlink="http://www.w3.org/1999/xlink" x="0px" y="0px"
	 width="595.279px" height="841.89px" viewBox="0 0 595.279 841.89" enable-background="new 0 0 595.279 841.89"
	 xml:space="preserve">
<g>
	<path fill="none" stroke="#EA5918" stroke-miterlimit="10" d="M38.125,26.649c0,4.677-3.827,8.504-8.504,8.504H18.129
		c-4.677,0-8.504-3.827-8.504-8.504V15.157c0-4.677,3.827-8.504,8.504-8.504h11.492c4.677,0,8.504,3.827,8.504,8.504V26.649z"/>
</g>
<g>
	<g>
		<path fill="#EA5918" d="M34.938,26.296c0,3.118-2.551,5.669-5.669,5.669H18.482c-3.118,0-5.669-2.551-5.669-5.669V15.51
			c0-3.118,2.551-5.669,5.669-5.669h10.786c3.118,0,5.669,2.551,5.669,5.669L34.938,26.296L34.938,26.296z"/>
	</g>
	<polygon fill="#FFFFFF" points="17.978,21.386 22.839,25.432 30.334,17.998 28.599,16.131 22.837,22.319 19.596,19.471 	"/>
</g>
</svg>
