<?xml version="1.0" encoding="utf-8"?>
<!-- Generator: Adobe Illustrator 17.0.0, SVG Export Plug-In . SVG Version: 6.00 Build 0)  -->
<!DOCTYPE svg PUBLIC "-//W3C//DTD SVG 1.1//EN" "http://www.w3.org/Graphics/SVG/1.1/DTD/svg11.dtd">
<svg version="1.1" xmlns="http://www.w3.org/2000/svg" xmlns:xlink="http://www.w3.org/1999/xlink" x="0px" y="0px"
	 width="337.333px" height="382px" viewBox="0 0 337.333 382" enable-background="new 0 0 337.333 382" xml:space="preserve">
<g id="Vrstva_1">
	<polygon fill="#FACDB1" points="76.616,200.426 57.275,209.034 78.843,218.359 97.503,218.377 117.598,207.612 98.22,201.87 	"/>
	<polygon fill="#FACDB1" points="72.314,187.417 74.547,203.686 85.392,212.618 99.428,204.005 101.98,187.098 96.557,176.891 
		85.711,172.744 75.504,177.848 	"/>
	<polygon fill="#FEF4C0" points="75.823,186.301 86.977,190.148 96.238,186.46 99.428,204.005 103.894,197.306 106.446,187.098 
		101.331,168.617 86.977,162.158 72.623,167.182 64.02,188.055 67.529,195.392 73.59,203.207 	"/>
	<polygon fill="#ABC83C" points="64.738,205.839 79.371,215.13 86.688,218.021 94.972,216.117 108.365,205.276 117.601,207.609 
		146.443,244.03 131.73,251.61 130.039,247.804 123.695,241.037 111.662,233.302 109.636,240.609 138.995,316.635 81.215,316.439 
		42.995,317.635 64.5,255 62.5,238.5 34,241.5 19,225.5 54.769,208.79 	"/>
	<polygon fill="#35A648" points="54.88,208.79 62.5,238.5 62,252 51.995,357.635 97.165,323.295 139.995,359.635 112,240.5 
		117.602,207.609 111.71,205.919 102.14,227.929 71.038,228.408 61.045,206.397 	"/>
	<polygon fill="#9ED47D" points="147.794,376.437 108.323,381.315 111.896,359.432 90.701,350.191 69.926,360.728 74.812,381.623 
		28.291,377.766 31.409,334.491 10.909,338.965 1.188,318.576 8.78,295.801 31.487,300.164 48.707,300.474 113.324,299.207 
		141.724,299.84 163.039,295.753 173.173,316.536 163.94,338.135 142.453,334.15 	"/>
	<polygon fill="#35A648" points="55.238,320.595 65.926,329.681 136.116,334.313 132.909,313.47 127.677,298.508 50.428,307.768 	
		"/>
	<polygon fill="#B72D0D" points="107.305,317.84 67.419,316.97 51.887,306.231 45.343,298.017 39.697,288.698 37.342,276.73 
		36.799,268.849 47.128,261.349 59.118,258.641 69.57,256.675 83.604,254.941 96.737,254.977 109.637,256.268 125.009,259.131 
		133.498,263.257 141.384,270.811 140.914,277.454 138.604,288.934 131.65,299.505 124.231,307.487 	"/>
	<polygon fill="#9ED47D" points="62.14,260.225 65.492,258.653 72.247,258.754 77.162,257.503 83.662,257.953 88.063,257.055 
		95.352,258.045 101.568,256.98 106.783,258.279 111.972,257.921 116.155,259.649 120.573,259.787 126.326,262.25 131.305,265.07 
		133.441,268.763 131.402,271.211 132.191,271.82 125.994,274.126 120.546,274.557 115.895,276.08 106.816,276.844 103.454,277.725 
		94.621,277.589 83.195,277.769 77.993,277.299 71.496,277.056 66.29,276.31 62.128,275.892 59.782,275.377 55.361,275.033 
		49.623,273.536 45.701,271.872 43.335,270.046 44.333,267.476 47.921,264.383 55.663,261.224 	"/>
	<polygon fill="#F9B200" points="63.042,265.36 66.228,264.24 72.638,264.285 77.307,263.384 83.474,263.676 87.654,263.027 
		94.566,263.696 100.47,262.922 105.414,263.817 110.339,263.544 114.302,264.746 118.493,264.826 123.943,266.539 128.658,268.508 
		130.67,271.102 128.726,272.834 129.472,273.26 123.582,274.909 118.411,275.234 113.991,276.325 105.373,276.898 102.179,277.532 
		93.797,277.47 82.954,277.641 78.02,277.329 71.855,277.183 66.917,276.678 62.969,276.4 60.745,276.046 56.551,275.82 
		51.112,274.787 47.397,273.63 45.158,272.352 46.115,270.538 49.532,268.345 56.891,266.089 	"/>
	<g>
		<polygon fill="#4C1202" points="86.311,277.171 73.409,274.571 69.024,262.1 77.373,251.837 91.004,253.433 95.611,266.967 		"/>
		
			<rect x="63.894" y="185.473" transform="matrix(-0.9273 0.3743 -0.3743 -0.9273 211.3814 407.2388)" fill="#4C1202" width="4.514" height="77.34"/>
		<polygon fill="#4C1202" points="77.533,255.47 72.598,262.891 74.475,272.73 75.893,263.569 		"/>
	</g>
	<polygon fill="#FACDB1" points="56.942,238.976 57.6,229.966 67.384,226.355 76.138,228.638 78.449,231.844 78.18,237.658 
		69.653,239.948 63.738,237.778 	"/>
	<polygon fill="#FACDB1" points="115.946,277.501 105.783,281.786 100.561,284.762 92.912,283.052 95.301,271.809 111.881,268.47 	
		"/>
	<polygon fill="#ABC83C" points="125.668,242.09 146.443,244.03 115.02,276.464 106.186,269.742 	"/>
	<g>
		<polygon fill="#ABC83C" points="183.815,154.753 177.32,152.488 172.808,147.298 171.519,140.593 173.811,134.227 
			179.028,129.843 185.733,128.554 192.237,130.686 196.759,135.742 198.047,142.447 195.746,148.947 190.52,153.464 		"/>
	</g>
	<g>
		<polygon fill="#ABC83C" points="138.015,173.889 133.427,172.289 130.239,168.622 129.329,163.885 130.947,159.388 
			134.633,156.291 139.37,155.381 143.965,156.886 147.159,160.459 148.069,165.195 146.444,169.787 142.752,172.978 		"/>
	</g>
	<g>
		<defs>
			<polyline id="SVGID_1_" points="288.448,-14.535 315.057,89.187 331.717,87.547 337.439,103.869 328.784,120.431 
				312.893,115.569 314.048,152.486 313.432,156.813 277.97,150.578 280.254,166.971 263.555,173.603 247.925,165.014 
				252.209,148.458 221.549,149.428 220.9,145.324 228.242,107.443 211.494,110.325 205.484,93.671 213.517,77.065 198.924,2.282 
							"/>
		</defs>
		<clipPath id="SVGID_2_">
			<use xlink:href="#SVGID_1_"  overflow="visible"/>
		</clipPath>
		<polyline clip-path="url(#SVGID_2_)" fill="#9ED47D" points="378.873,128.029 340.542,186.091 252.062,201.633 150.323,60.536 
			237.425,81.956 357.069,48.952 		"/>
		<polygon clip-path="url(#SVGID_2_)" fill="#FFFFFF" points="235.782,129.11 232.066,136.56 236.727,141.55 240.927,136.588 
			243.897,131.312 241.204,126.951 		"/>
		<polygon clip-path="url(#SVGID_2_)" fill="#FFFFFF" points="252.9,129.676 254.262,136.919 259.323,142.186 262.283,138.465 
			262.767,132.911 257.21,125.797 		"/>
		<polygon clip-path="url(#SVGID_2_)" fill="#35A648" points="233.085,60.792 232.847,86.195 234.644,107.965 235.508,129.731 
			240.162,132.544 246.389,129.766 246.514,90.591 248.325,107.697 250.432,129.468 257.886,131.978 262.259,125.774 
			260.727,118.618 260.176,96.231 261.492,73.227 261.428,60.266 		"/>
		<polygon clip-path="url(#SVGID_2_)" fill="#35A648" points="294.383,59.329 298.48,73.699 306.106,120.049 302.97,128.434 
			295.21,124.367 289.055,104.449 284.145,84.224 281.339,86.703 280.351,104.111 283.424,115.313 286.184,127.448 279.337,129.602 
			274.367,128.032 271.301,114.653 267.049,82.616 268.334,69.872 268.48,56.912 		"/>
		<polygon clip-path="url(#SVGID_2_)" fill="#ABC83C" points="262.939,23.866 279.896,15.455 296.814,19.212 297.828,32.971 
			293.568,56.851 296.346,63.389 278.918,68.619 263.695,64.84 265.504,49.269 264.903,30.796 		"/>
		<polygon clip-path="url(#SVGID_2_)" fill="#35A648" points="230.537,29.844 247.5,19.516 264.415,24.112 265.42,40.986 
			259.004,62.378 254.759,66.258 245.757,68.825 236.767,67.498 233.084,60.998 232.496,38.342 		"/>
		<polygon clip-path="url(#SVGID_2_)" fill="#FACDB1" points="250.723,6.748 256.864,8.5 260.109,18.318 256.436,27.234 
			248.877,33.462 242.988,25.836 243.023,14.883 245.813,8.409 		"/>
		<polyline clip-path="url(#SVGID_2_)" fill="#FACDB1" points="279.177,3.176 284.958,4.232 288.86,13.069 286.349,21.712 
			279.777,28.243 273.413,21.719 272.402,11.519 274.592,5.206 279.177,3.176 		"/>
		<polyline clip-path="url(#SVGID_2_)" fill="#ABC83C" points="284.949,0.823 288.049,4.643 288.766,11.891 284.088,7.287 
			275.417,9.272 271.065,13.175 271.925,2.909 		"/>
		<polyline clip-path="url(#SVGID_2_)" fill="#ABC83C" points="247.665,2.191 258.861,4.841 261.814,16.056 259.604,33.977 
			257.279,29.114 257.312,18.843 254.077,10.055 243.185,14.557 244.042,23.64 243.469,32.806 241.983,28.692 239.033,16.733 
			242.047,7.028 247.665,2.191 		"/>
		<polygon clip-path="url(#SVGID_2_)" fill="#FFF8EE" points="237.451,58.537 235.521,66.623 239.773,76.871 255.459,83.823 
			275.928,83.888 288.33,75.597 291.69,66.801 287.889,58.911 		"/>
		<polygon clip-path="url(#SVGID_2_)" fill="#B72D0D" points="246.62,42.131 248.216,38.795 252.003,38.899 254.527,36.209 
			258.232,37.046 260.531,35.101 264.77,37.054 268.053,34.733 271.189,37.363 274.021,36.534 276.656,40.08 279.145,40.297 
			282.784,45.353 286.054,51.168 287.889,58.852 287.178,63.998 287.725,65.258 284.669,70.174 281.705,71.161 279.375,74.415 
			274.443,76.155 272.721,78.049 267.769,77.902 261.426,78.458 258.441,77.558 254.774,77.153 251.739,75.675 249.344,74.869 
			247.946,73.829 245.419,73.179 241.957,70.141 239.479,66.727 237.84,62.948 237.949,57.563 239.412,51.043 243.181,44.321 		"/>
		<polygon clip-path="url(#SVGID_2_)" fill="#4C1202" points="258.135,50.855 251.581,55.642 248.245,62.326 249.344,74.869 
			252.918,75.863 253.674,72.891 256.485,58.554 259.321,52.785 		"/>
		<path clip-path="url(#SVGID_2_)" fill="#4C1202" d="M263.251,52.876l1.581,1.459l-1.855,10.331l1.173,1.786l3.107-12.62
			l2.719-2.127l4.322,4.56l2.367,5.458l-2.182-9.978l-0.936-2.388l3.948-1.363l2.076,2.142l2.574,6.166l-0.662-5.898l-3.545-5.645
			l-0.541-2.858l5.387,3.45l3.616,8.109l1.56,7.853l-0.782,2.683l0.546,1.26l-3.056,4.916l-2.964,0.986l-2.33,3.255l-4.932,1.74
			l-1.722,1.894l-4.952-0.147l-6.343,0.556l-2.984-0.901c0,0-3.629,0.028-3.667-0.405c-0.038-0.432-0.468-5.334-0.468-5.334
			l4.955-13.073L263.251,52.876z"/>
		<polygon clip-path="url(#SVGID_2_)" fill="#4C1202" points="256.897,43.264 261.346,40.986 269.401,41.732 272.765,46.958 
			266.492,49.977 258.556,48.93 255.802,45.685 		"/>
		<polygon clip-path="url(#SVGID_2_)" fill="#FACDB1" points="297.127,36.285 298.489,44.078 299.652,49.186 285.422,67.444 
			280.511,73.016 274.208,67.283 274.839,61.94 281.864,61.782 290.842,48.228 289.598,40.429 		"/>
		<polygon clip-path="url(#SVGID_2_)" fill="#FFFFFF" points="277.515,128.834 275.833,136.629 281.813,139.718 284.649,134.012 
			286.177,128.39 282.322,125.278 		"/>
		<polygon clip-path="url(#SVGID_2_)" fill="#FFFFFF" points="297.73,126.902 300.82,133.546 306.625,137.781 308.236,133.831 
			307.203,128.512 300.479,122.604 		"/>
		<polygon clip-path="url(#SVGID_2_)" fill="#FACDB1" points="230.537,29.844 226.667,40.333 222.024,54.149 236.542,63.366 
			240.554,68.136 245.967,62.805 244.01,60.89 244.854,57.516 238.895,58.369 232.667,50.333 236.661,34.676 		"/>
	</g>
</g>
<g id="Vrstva_2" display="none">
	<polygon display="inline" fill="none" stroke="#FF2EFF" stroke-miterlimit="10" points="-6094.689,753.739 -6059.498,758.314 
		-6063.369,739.311 -6044.717,730.865 -6026.066,739.311 -6029.937,757.61 -5992.634,754.091 -5995.097,781.892 -5976.446,778.725 
		-5968.704,796.673 -5977.15,816.028 -5995.449,811.805 -5991.227,853.331 -5991.578,858.258 -6032.048,854.035 -6028.177,872.334 
		-6046.477,881.132 -6064.776,872.686 -6061.257,853.683 -6095.745,857.202 -6096.801,852.627 -6091.522,809.342 -6110.173,813.917 
		-6118.268,795.617 -6110.525,776.262 -6092.226,780.133 	"/>
	<polygon display="inline" fill="none" stroke="#FF2E27" stroke-miterlimit="10" points="-6095.745,857.202 -6061.257,853.683 
		-6064.776,872.686 -6046.477,881.132 -6028.177,872.334 -6032.048,854.035 -5991.578,858.258 -5995.097,895.913 -5977.15,892.394 
		-5969.056,910.341 -5976.094,930.048 -5995.801,925.825 -5990.875,968.759 -6032.752,973.334 -6029.233,955.034 -6047.181,946.588 
		-6066.184,954.682 -6062.313,973.334 -6095.745,970.519 -6096.449,965.944 -6091.874,924.066 -6110.525,927.233 -6118.971,908.934 
		-6110.525,890.282 -6091.874,894.153 	"/>
	<polygon display="inline" fill="none" stroke="#FF2E27" stroke-miterlimit="10" points="-5877.707,753.777 -5874.188,788.265 
		-5893.191,784.745 -5901.637,803.045 -5892.839,821.345 -5874.54,817.474 -5878.763,857.944 -5916.418,854.425 -5912.898,872.372 
		-5930.846,880.466 -5950.554,873.428 -5946.331,853.721 -5989.264,858.648 -5993.839,816.77 -5975.54,820.289 -5967.093,802.341 
		-5975.188,783.338 -5993.839,787.209 -5991.023,753.777 -5986.449,753.073 -5944.571,757.648 -5947.738,738.997 -5929.438,730.551 
		-5910.787,738.997 -5914.658,757.648 	"/>
</g>
</svg>
