<?xml version="1.0" encoding="UTF-8" standalone="no"?>
<svg width="800px" height="600px" viewBox="0 0 800 600" version="1.1" xmlns="http://www.w3.org/2000/svg" xmlns:xlink="http://www.w3.org/1999/xlink" xmlns:sketch="http://www.bohemiancoding.com/sketch/ns">
    <title>signika_icons_regular</title>
    <description>Created with Sketch (http://www.bohemiancoding.com/sketch)</description>
    <defs></defs>
    <g id="Page-1" stroke="none" stroke-width="1" fill="none" fill-rule="evenodd" sketch:type="MSPage">
        <g id="signika_icons_regular" sketch:type="MSArtboardGroup" fill="#837A5C">
            <polygon d="M242.781632,472.443826 C244.081269,470.659753 246.191319,470.663765 247.488033,472.443826 L254.34128,481.851603 C255.640917,483.635676 254.899586,485.081953 252.693801,485.081953 L237.575865,485.081953 C235.366351,485.081953 234.631671,483.631665 235.928386,481.851603 L242.781632,472.443826 Z M242.781632,472.443826" id="select_triangle" sketch:type="MSShapeGroup" transform="translate(245.134042, 479.040977) rotate(-180.000000) translate(-245.134042, -479.040977) " points="245.134833 469.213476 256.694481 485.081953 233.575185 485.081953 "></polygon>
            <path d="M136.590082,227.080994 C139.154997,229.968468 143.360891,230.01406 145.997398,227.168593 L163,208.818431 C159.287161,207.706408 151.571456,211.594398 145.767056,217.501923 L141.996176,221.339801 L140.582878,219.592344 C137.107822,215.295646 131.355534,215.182357 128.714286,218.214749 L136.590082,227.080994 Z M130.5,183.5 C125.134948,183.5 120.785714,187.849234 120.785714,193.214286 C120.785714,198.579338 125.134948,202.928571 130.5,202.928571 C135.865052,202.928571 140.214286,198.579338 140.214286,193.214286 C140.214286,187.849234 135.865052,183.5 130.5,183.5 Z M130.5,186.5 C134.208198,186.5 137.214286,189.506088 137.214286,193.214286 C137.214286,196.922484 134.208198,199.928571 130.5,199.928571 C126.791802,199.928571 123.785714,196.922484 123.785714,193.214286 C123.785714,189.506088 126.791802,186.5 130.5,186.5 Z M118.251487,224.142857 C116.777556,224.142857 115.757839,222.807002 116.046807,220.789154 L116.735806,215.977903 C117.367015,211.570202 121.111975,208 124.834309,208 L137.430162,208 C140.25892,208 143.154745,210.108214 144.538,213.264525 C144.682086,213.593301 144.878004,213.883283 145.111966,214.129087 L147.285714,212.060339 C145.48301,207.946927 141.592664,205 137.430162,205 L124.834309,205 C119.556119,205 114.600933,209.723039 113.766103,215.552624 L113.077103,220.363875 C112.540951,224.107803 114.858055,227.142857 118.251487,227.142857 L131.437675,227.142857 L128.57373,224.142857 L118.251487,224.142857 Z M118.251487,224.142857" id="friends" sketch:type="MSShapeGroup"></path>
            <path d="M366.482238,297.306172 C369.025521,293.41486 368.392212,287.396759 365.092921,284.115613 L364.299447,283.326503 C358.810923,277.868163 349.904704,277.868282 344.416299,283.326503 L343.622825,284.115613 C340.327299,287.393015 339.694688,293.42169 342.233507,297.306172 L354.250805,315.693062 L354.46494,315.693062 L366.482238,297.306172 Z M339.722292,298.947452 C336.407454,293.875633 337.199794,286.272329 341.507362,281.988451 L342.300836,281.199341 C348.959287,274.577508 359.755992,274.577045 366.41491,281.199341 L367.208384,281.988451 C371.516607,286.272982 372.315154,293.865132 368.993453,298.947452 L358.048863,315.693062 L354.357873,321.346472 L350.662918,315.693062 L339.722292,298.947452 Z M354,297.117647 C356.761424,297.117647 359,295.054646 359,292.509804 C359,289.964962 356.761424,287.901961 354,287.901961 C351.238576,287.901961 349,289.964962 349,292.509804 C349,295.054646 351.238576,297.117647 354,297.117647 Z M354,297.117647" id="marker" sketch:type="MSShapeGroup"></path>
            <path d="M251.993056,209.715909 C252.696763,209.571969 253.532403,209.5 254.5,209.5 C255.467597,209.5 256.303237,209.571969 257.006944,209.715909 L257.006944,214.163636 L256.962963,216.754545 L259.55787,216.711364 L263.780093,216.711364 C263.926698,217.63258 264,218.438633 264,219.129545 C264,219.820458 263.926698,220.554542 263.780093,221.331818 L259.55787,221.331818 L256.962963,221.288636 L257.006944,223.793182 L257.006944,228.284091 C256.303237,228.428031 255.467597,228.5 254.5,228.5 C253.532403,228.5 252.696763,228.428031 251.993056,228.284091 L251.993056,223.793182 L252.037037,221.288636 L249.44213,221.331818 L245.219907,221.331818 C245.073302,220.756058 245,219.993187 245,219.043182 C245,218.093177 245.073302,217.315912 245.219907,216.711364 L249.44213,216.711364 L252.037037,216.754545 L251.993056,214.163636 L251.993056,209.715909 Z M243.694444,182.388889 C238.287848,182.388889 233.888889,186.67153 233.888889,191.974826 C233.888889,197.278123 238.287848,201.560764 243.694444,201.560764 C249.101041,201.560764 253.5,197.278123 253.5,191.974826 C253.5,186.67153 249.101041,182.388889 243.694444,182.388889 Z M243.694444,185.388889 C247.461912,185.388889 250.5,188.346643 250.5,191.974826 C250.5,195.60301 247.461912,198.560764 243.694444,198.560764 C239.926977,198.560764 236.888889,195.60301 236.888889,191.974826 C236.888889,188.346643 239.926977,185.388889 243.694444,185.388889 Z M231.309836,222.373264 C229.779603,222.373264 228.761038,221.074201 229.046022,219.136791 L229.742677,214.400717 C230.376468,210.092008 234.164333,206.576389 237.965801,206.576389 L250.701608,206.576389 C252.255426,206.576389 254.005067,207.155959 255.265465,208.093164 C255.327641,208.139397 255.39102,208.182863 255.455453,208.223585 L257.055556,205.685764 C255.272215,204.35971 252.893525,203.576389 250.701608,203.576389 L237.965801,203.576389 C232.628964,203.576389 227.618722,208.22563 226.774615,213.964128 L226.07796,218.700203 C225.53585,222.385633 227.8787,225.373264 231.309836,225.373264 L244.642538,225.373264 L246.242771,222.835236 C245.779632,222.542615 245.230862,222.373264 244.642538,222.373264 L231.309836,222.373264 Z M231.309836,222.373264" id="join-person" sketch:type="MSShapeGroup"></path>
            <path d="M138.5,281.5 C127.454304,281.5 118.5,290.454304 118.5,301.5 C118.5,312.545696 127.454304,321.5 138.5,321.5 C149.545696,321.5 158.5,312.545696 158.5,301.5 C158.5,290.454304 149.545696,281.5 138.5,281.5 Z M138.5,284.5 C147.888841,284.5 155.5,292.111159 155.5,301.5 C155.5,310.888841 147.888841,318.5 138.5,318.5 C129.111159,318.5 121.5,310.888841 121.5,301.5 C121.5,292.111159 129.111159,284.5 138.5,284.5 Z M126.447319,310.599381 C122.285167,304.745505 123.000343,295.86057 127.065721,291.745323 C127.615123,292.080028 129.164525,291.414734 129.713927,291.749439 C130.398171,292.166293 130.766659,294 130.766659,294 L128.613907,297.289924 L125.377757,300 L130.766659,304 L132.483835,309 L134,316 C134,316 129.205271,314.098646 128.095789,312.726094 C124.89415,308.765313 126.447319,310.599381 126.447319,310.599381 Z M145.202756,292.835675 C145.094605,293.373517 144.570681,293.897414 144.027455,294.006858 L140.279747,294.761905 L140.497282,297.657587 C140.57965,298.754021 141.538963,299.771299 142.632058,299.928603 L146.27369,300.452657 C146.820888,300.531402 147.432282,300.172651 147.633548,299.665791 L149.155353,295.833333 L150.10079,300.595238 L150.10079,304.404762 C150.10079,304.404762 145.373607,302.500002 142.537296,302.5 C139.700986,302.499999 139,307.5 139,307.5 L140.067662,313.095238 L146.196818,315.5 L150.03455,311.466557 C155.747283,305.462493 155.254779,296.262743 148.91766,290.904091 L146.074592,288.5 L145.202756,292.835675 Z M145.202756,292.835675" id="world" sketch:type="MSShapeGroup"></path>
            <path d="M652.914254,188 C652.35769,188 651.958602,188.439458 652.025344,189.002462 L654.278484,208.008845 C654.408847,209.10853 655.404148,210 656.515771,210 L657.016145,210 C658.121401,210 659.124524,209.110326 659.257167,208.008845 L660.949739,193.953517 C661.345691,190.66548 658.973829,188 655.666081,188 L652.914254,188 Z M657,221 C659.209139,221 661,219.209139 661,217 C661,214.790861 659.209139,213 657,213 C654.790861,213 653,214.790861 653,217 C653,219.209139 654.790861,221 657,221 Z M657,221" id="Rectangle-6" sketch:type="MSShapeGroup"></path>
            <path d="M354.943446,391.169037 C350.001386,391.62392 345.818148,395.301725 344.459156,399.947956 C344.440904,400.010356 343.994232,400.697291 343.994232,400.697291 C343.994232,402.349369 342.649364,403.692952 340.990386,403.692952 L338.021536,403.692952 C337.503229,393.591767 346.402744,384.848374 357.97505,385.643075 L360.604934,385.823676 L355.010097,380.966281 C352.922165,379.153554 352.981623,376.301764 355.148885,374.591906 L355.899132,374 L370.67277,388.773638 L355.899132,403.547276 L355.148885,402.95537 C352.984303,401.247626 352.925744,398.390614 355.010097,396.580995 L361.990832,390.520373 L354.943446,391.169037 Z M354.943446,391.169037" id="forward" sketch:type="MSShapeGroup"></path>
            <path d="M452.943446,391.169037 C448.001386,391.62392 443.818148,395.301725 442.459156,399.947956 C442.440904,400.010356 441.994232,400.697291 441.994232,400.697291 C441.994232,402.349369 440.649364,403.692952 438.990386,403.692952 L436.021536,403.692952 C435.503229,393.591767 444.402744,384.848374 455.97505,385.643075 L458.604934,385.823676 L453.010097,380.966281 C450.922165,379.153554 450.981623,376.301764 453.148885,374.591906 L453.899132,374 L468.67277,388.773638 L453.899132,403.547276 L453.148885,402.95537 C450.984303,401.247626 450.925744,398.390614 453.010097,396.580995 L459.990832,390.520373 L452.943446,391.169037 Z M452.943446,391.169037" id="reward" sketch:type="MSShapeGroup" transform="translate(452.336385, 388.846476) scale(-1, 1) translate(-452.336385, -388.846476) "></path>
            <path d="M370.923309,119.912779 L365.284383,120.147734 C365.249777,120.18139 365.215427,120.215192 365.181332,120.249136 C365.18906,120.216447 365.19665,120.183761 365.204102,120.151079 L365.204102,120.151079 L351.467396,120.723442 C351.467396,118.300307 355.045381,114.872524 359.459048,115.056427 L370.923309,115.534105 L367.24452,112.816929 C364.574784,110.845047 364.315408,107.341647 366.647845,105.009211 L366.902206,104.754849 L375.379128,113.231771 L379.878144,117.716096 L375.386473,122.222458 L366.902206,130.692034 C364.421525,128.211352 365.291833,124.07222 368.853512,121.441543 L370.923309,119.912779 Z M362.706013,130.528541 C361.466473,131.924198 360.049678,133.297922 358.476993,134.64787 C356.341238,136.481139 354.059277,138.14101 351.77739,139.601568 C350.978288,140.113046 350.235276,140.563668 349.56674,140.949877 C349.161135,141.184192 348.867204,141.34666 348.703385,141.433634 L348,141.807071 L347.296615,141.433634 C347.132796,141.34666 346.838865,141.184192 346.43326,140.949877 C345.764724,140.563668 345.021712,140.113046 344.22261,139.601568 C341.940723,138.14101 339.658762,136.481139 337.523007,134.64787 C331.285323,129.293624 327.5,123.565348 327.5,117.578039 C327.5,111.008052 332.377301,106.062616 338.370166,105.541942 C342.500404,105.183097 345.982745,107.001275 347.901955,110.51049 C348.120345,110.909809 348.092613,110.463606 348.506828,109.824591 C350.489282,106.766234 353.777778,105.207266 357.629835,105.541942 C359.122059,105.67159 360.545118,106.075578 361.840935,106.710676 C361.549314,107.837158 361.512076,109.001526 361.723554,110.128558 C360.464714,109.24081 358.971248,108.681245 357.370166,108.542139 C352.821727,108.14696 349.5,111.29576 349.5,117.47396 L346.5,117.47396 C346.5,111.29576 343.178273,108.14696 338.629835,108.542139 C334.142195,108.932036 330.5,112.625112 330.5,117.589495 C330.5,122.490146 333.839677,127.544031 339.476993,132.382938 C341.497488,134.117273 343.668652,135.696551 345.83989,137.086286 C346.599382,137.572411 347.303635,137.999527 347.933928,138.363643 C348.307619,138.579522 347.692381,138.579522 348.066072,138.363643 C348.696365,137.999527 349.400618,137.572411 350.16011,137.086286 C352.331348,135.696551 354.502512,134.117273 356.523007,132.382938 C358.737522,130.482064 360.597473,128.548014 362.039692,126.603111 C361.924376,127.951351 362.135745,129.291799 362.706013,130.528541 L362.706013,130.528541 Z M362.706013,130.528541" id="offer" sketch:type="MSShapeGroup"></path>
            <path d="M443.370166,104.541942 C447.500404,104.183097 450.982745,106.001275 452.901955,109.51049 C453.120345,109.909809 453.092613,109.463606 453.506828,108.824591 C455.489282,105.766234 458.777778,104.207266 462.629835,104.541942 C468.622699,105.062616 473.5,110.008052 473.5,116.578039 C473.5,122.565348 469.714677,128.293624 463.476993,133.64787 C461.341238,135.481139 459.059277,137.14101 456.77739,138.601568 C455.978288,139.113046 455.235276,139.563668 454.56674,139.949877 C454.161135,140.184192 453.867204,140.34666 453.703385,140.433634 L453,140.807071 L452.296615,140.433634 C452.132796,140.34666 451.838865,140.184192 451.43326,139.949877 C450.764724,139.563668 450.021712,139.113046 449.22261,138.601568 C448.456737,138.111359 447.690855,137.598697 446.930495,137.064562 L449.078878,134.916179 C449.663883,135.319659 450.251883,135.709923 450.83989,136.086286 C451.599382,136.572411 452.303635,136.999527 452.933928,137.363643 C453.307619,137.579522 452.692381,137.579522 453.066072,137.363643 C453.696365,136.999527 454.400618,136.572411 455.16011,136.086286 C457.331348,134.696551 459.502512,133.117273 461.523007,131.382938 C467.160323,126.544031 470.5,121.490146 470.5,116.589495 C470.5,111.625112 466.857805,107.932036 462.370166,107.542139 C457.821727,107.14696 454.5,110.29576 454.5,116.47396 L451.5,116.47396 C451.5,110.29576 448.178273,107.14696 443.629835,107.542139 C439.142195,107.932036 435.5,111.625112 435.5,116.589495 C435.5,118.060604 435.800945,119.545521 436.374646,121.034286 L435.58123,121.001227 L433.152875,120.900045 C432.724022,119.47581 432.5,118.034589 432.5,116.578039 C432.5,110.008052 437.377301,105.062616 443.370166,104.541942 Z M432.786278,129.221402 L444.250539,128.743725 L440.57175,131.4609 C437.902014,133.432783 437.642638,136.936182 439.975075,139.268619 L440.229436,139.52298 L448.706358,131.046059 L453.205374,126.561734 L448.713703,122.055371 L440.229436,113.585796 C437.748755,116.066477 438.619063,120.20561 442.180742,122.836287 L444.250539,124.365051 L424.794626,123.554388 C424.794626,125.977523 428.372611,129.405305 432.786278,129.221402 Z M432.786278,129.221402" id="need" sketch:type="MSShapeGroup"></path>
            <path d="M553.06674,407.251582 C553.735276,406.865374 554.478288,406.414751 555.27739,405.903273 C557.559277,404.442715 559.841238,402.782845 561.976993,400.949575 C568.214677,395.595329 572,389.867053 572,383.879744 C572,377.309757 567.122699,372.364321 561.129835,371.843647 C557.277778,371.508971 553.989282,373.067939 552.006828,376.126296 C551.592613,376.765311 551.620345,377.211514 551.401955,376.812195 C549.482745,373.30298 546.000404,371.484802 541.870166,371.843647 C535.877301,372.364321 531,377.309757 531,383.879744 C531,389.867053 534.785323,395.595329 541.023007,400.949575 C543.158762,402.782845 545.440723,404.442715 547.72261,405.903273 C548.521712,406.414751 549.264724,406.865374 549.93326,407.251582 C550.338865,407.485897 550.632796,407.648366 550.796615,407.735339 L551.5,408.108776 L552.203385,407.735339 C552.367204,407.648366 552.661135,407.485897 553.06674,407.251582 Z M551.433928,404.665348 C550.803635,404.301232 550.099382,403.874116 549.33989,403.387991 C547.168652,401.998256 544.997488,400.418978 542.976993,398.684644 C537.339677,393.845736 534,388.791851 534,383.8912 C534,378.926817 537.642195,375.233741 542.129835,374.843844 C546.678273,374.448666 550,377.597465 550,383.775665 L553,383.775665 C553,377.597465 556.321727,374.448666 560.870166,374.843844 C565.357805,375.233741 569,378.926817 569,383.8912 C569,388.791851 565.660323,393.845736 560.023007,398.684644 C558.002512,400.418978 555.831348,401.998256 553.66011,403.387991 C552.900618,403.874116 552.196365,404.301232 551.566072,404.665348 C551.192381,404.881227 551.807619,404.881227 551.433928,404.665348 Z M551.433928,404.665348" id="heart" sketch:type="MSShapeGroup"></path>
            <path d="M135.725888,129.621336 L128.171535,137.175689 C126.229267,139.117958 123.061963,139.123184 121.111653,137.172874 L119.693254,135.754475 L130.561491,124.886238 C128.944293,122.492302 128,119.606427 128,116.5 C128,108.215728 134.715728,101.5 143,101.5 C151.284272,101.5 158,108.215728 158,116.5 C158,124.784272 151.284272,131.5 143,131.5 C140.360585,131.5 137.880391,130.81829 135.725888,129.621336 Z M131,116.5 C131,109.872583 136.372583,104.5 143,104.5 C149.627417,104.5 155,109.872583 155,116.5 C155,123.127417 149.627417,128.5 143,128.5 C136.372583,128.5 131,123.127417 131,116.5 Z M131,116.5" id="magnifier" sketch:type="MSShapeGroup"></path>
            <path d="M470.5,298 C470.5,287.230447 461.769553,278.5 451,278.5 C440.230447,278.5 431.5,287.230447 431.5,298 C431.5,308.769553 440.230447,317.5 451,317.5 C461.769553,317.5 470.5,308.769553 470.5,298 Z M434.5,298 C434.5,288.887301 441.887301,281.5 451,281.5 C460.112699,281.5 467.5,288.887301 467.5,298 C467.5,307.112699 460.112699,314.5 451,314.5 C441.887301,314.5 434.5,307.112699 434.5,298 Z M451,304 C454.313709,304 457,301.313709 457,298 C457,294.686291 454.313709,292 451,292 C447.686291,292 445,294.686291 445,298 C445,301.313709 447.686291,304 451,304 Z M451,304" id="locate" sketch:type="MSShapeGroup"></path>
            <path d="M245,324.5 C232.658171,324.5 222.5,320.146498 222.5,314 C222.5,309.722549 227.419603,306.313447 234.571139,304.635666 C235.153035,305.525988 235.74992,306.439244 236.334557,307.333758 C229.887171,308.639153 225.5,311.296931 225.5,314 C225.5,317.794628 234.145868,321.5 245,321.5 C255.854132,321.5 264.5,317.794628 264.5,314 C264.5,311.219107 259.85657,308.48615 253.103496,307.224401 C253.7272,306.270113 254.32124,305.361209 254.877155,304.510641 C262.326157,306.140052 267.5,309.613414 267.5,314 C267.5,320.146498 257.341829,324.5 245,324.5 Z M245,317.5 C239.802386,317.5 235.5,315.886605 235.5,313 C235.5,311.653304 236.436427,310.583726 237.96331,309.825808 L239.318964,311.900007 C239.413392,312.044484 239.59149,312.176649 239.835951,312.29597 C239.282907,312.506354 238.867605,312.738487 238.623789,312.954653 C238.506884,313.058301 238.5,313.070917 238.5,313 C238.5,312.929083 238.506884,312.941699 238.623789,313.045347 C238.872558,313.265905 239.299853,313.503085 239.869831,313.716827 C241.180375,314.208281 243.019581,314.5 245,314.5 C246.980419,314.5 248.819625,314.208281 250.130169,313.716827 C250.700147,313.503085 251.127442,313.265905 251.376211,313.045347 C251.493116,312.941699 251.5,312.929083 251.5,313 C251.5,313.070917 251.493116,313.058301 251.376211,312.954653 C251.127442,312.734095 250.700147,312.496915 250.130169,312.283173 C250.042018,312.250117 249.951475,312.217964 249.858659,312.186743 C249.866497,312.176329 249.873885,312.165821 249.880815,312.155217 C250.449039,311.285815 251.00666,310.432635 251.549102,309.602679 C253.361837,310.367444 254.5,311.515313 254.5,313 C254.5,315.886605 250.197614,317.5 245,317.5 Z M255.235457,278.702833 C259.161573,282.607358 259.88434,289.507237 256.864078,294.128343 L246.613365,309.812297 L244.821404,312.52397 L243.039276,309.797251 L232.778729,294.128343 C229.763378,289.514749 230.487626,282.601001 234.407351,278.702833 L234.888944,278.223888 C240.379915,272.763115 249.268317,272.768511 254.753863,278.223888 L255.235457,278.702833 Z M236.522814,280.829995 C233.613916,283.722895 233.051551,289.062244 235.289944,292.487064 L244.813976,307.081898 L254.352863,292.487064 C256.596173,289.05472 256.035275,283.729243 253.119994,280.829995 L252.6384,280.35105 C248.321022,276.057415 241.323106,276.056102 237.004407,280.35105 L236.522814,280.829995 Z M245,283 C242.238576,283 240,285.063002 240,287.607843 C240,290.152685 242.238576,292.215686 245,292.215686 C247.761424,292.215686 250,290.152685 250,287.607843 C250,285.063002 247.761424,283 245,283 Z M245,283" id="marker_lokate" sketch:type="MSShapeGroup"></path>
            <path d="M552.06244,279.498301 L551.519843,283.917397 C551.38523,285.013733 552.16486,286.011615 553.261197,286.146228 C554.357533,286.280841 555.355414,285.50121 555.490028,284.404874 L556.037677,279.94463 C565.076497,281.954679 571.326559,290.435757 570.413429,299.788841 C570.319328,299.757331 570.220686,299.734742 570.118365,299.722178 L562.116202,298.739636 C561.29395,298.638677 560.545539,299.223399 560.444579,300.045652 C560.343619,300.867904 560.928342,301.616315 561.750594,301.717275 L569.752757,302.699817 C569.79962,302.705571 569.846244,302.709098 569.892521,302.71048 C567.639204,311.313584 559.465711,317.206606 550.434998,316.433931 L551.225441,309.996292 C551.326401,309.17404 550.741678,308.425628 549.919425,308.324669 C549.097173,308.223709 548.348762,308.808432 548.247802,309.630684 L547.473163,315.939616 C539.353083,313.901464 533.601171,306.60414 533.499473,298.248473 L540.968919,299.165606 C541.791171,299.266566 542.539582,298.681843 542.640542,297.859591 C542.741502,297.037339 542.156779,296.288927 541.334527,296.187968 L533.705219,295.251206 C535.075418,286.10051 542.977765,279.456296 552.06244,279.498301 Z M549.379809,319.339742 C561.165424,320.786834 571.892651,312.405806 573.339742,300.620191 C574.71266,289.438672 567.239158,279.209822 556.40478,276.954816 L556.47257,276.402711 C556.607183,275.306375 555.827552,274.308494 554.731216,274.17388 C553.63488,274.039267 552.636998,274.818898 552.502385,275.915234 L552.43026,276.502648 C541.533103,276.271402 532.017133,284.328949 530.660258,295.379809 C529.268903,306.711487 536.963164,317.064737 548.033517,319.131702 C548.19552,319.220464 548.376751,319.280585 548.571275,319.30447 C548.724392,319.32327 548.874948,319.318294 549.019239,319.292434 C549.139068,319.309168 549.259261,319.324941 549.379809,319.339742 Z M555.419027,296.149881 L550.583801,286.503633 C548.605646,282.557223 547.268254,282.931824 547.596076,287.332558 L548.510555,299.608695 L553.34578,309.254943 C555.323936,313.201353 556.661327,312.826752 556.333506,308.426018 L555.419027,296.149881 Z M555.419027,296.149881" id="compass" sketch:type="MSShapeGroup"></path>
            <path d="M123.625189,400.115611 L141.64289,376.205313 C142.961934,374.454884 145.474148,374.093724 147.236604,375.42183 L150.437812,377.834114 C152.194255,379.157689 152.553383,381.666282 151.226516,383.427094 L133.208815,407.337391 C133.208815,407.337391 131.115698,408.308374 128.899128,409 L154.5,409 C155.328427,409 156,409.671573 156,410.5 C156,411.328427 155.328427,412 154.5,412 L118.5,412 C117.671573,412 117,411.328427 117,410.5 C117,409.671573 117.671573,409 118.5,409 L123.864825,409 C122.873582,407.098007 123.625189,400.115611 123.625189,400.115611 Z M148.632367,380.23002 C149.068861,380.558942 149.157891,381.187331 148.83061,381.621649 C148.83061,381.621649 131.414044,404.852383 131.318751,404.893322 C131.094586,404.989626 130.854125,405.090366 130.600749,405.193471 C130.215209,405.350356 129.202013,405.727932 129.202013,405.727932 L126.381864,403.646339 C126.381864,403.646339 126.437556,402.499498 126.480805,401.905086 C126.497761,401.672038 126.515431,401.448529 126.533361,401.236853 C126.545403,401.094679 144.038797,378.010758 144.038797,378.010758 C144.363953,377.579262 144.996211,377.48998 145.431159,377.817737 L148.632367,380.23002 Z M148.632367,380.23002" id="edit" sketch:type="MSShapeGroup"></path>
            <path d="M643.578432,470.203825 C642.767165,469.449507 642.813679,468.290814 643.690159,467.609724 L645.761679,466 L656.545782,476.784103 L666.737996,466 L668.831986,468.343146 C669.569789,469.168737 669.509536,470.435322 668.691025,471.177934 L659.383793,479.622114 L668.786881,488.365132 C669.999245,489.492392 669.925701,491.227088 668.607239,492.25163 L667.329885,493.244229 L656.545782,482.460125 L645.761679,493.244228 L643.690159,491.634504 C642.817187,490.95614 642.766308,489.795518 643.578432,489.040403 L653.707771,479.622114 L643.578432,470.203825 Z M643.578432,470.203825" id="cross" sketch:type="MSShapeGroup"></path>
            <path d="M469.273456,487.149499 C472.637981,492.858995 470.001075,497.487456 463.37015,497.487456 L438.325758,497.487456 C431.700927,497.487456 429.059722,492.855948 432.422451,487.149499 L444.755943,466.219936 C448.120468,460.51044 453.577235,460.513488 456.939964,466.219936 L469.273456,487.149499 Z M466.688841,488.672576 C468.876448,492.384879 467.676665,494.487456 463.37015,494.487456 L438.325758,494.487456 C434.024237,494.487456 432.821814,492.380884 435.007067,488.672576 L447.340559,467.743013 C449.543878,464.004046 452.152294,464.004497 454.355349,467.743013 L466.688841,488.672576 Z M448.074773,472.599695 L449.443575,484.146241 C449.508748,484.696007 450.019119,485.14168 450.561896,485.14168 L451.332045,485.14168 C451.884503,485.14168 452.386599,484.691266 452.452232,484.146241 L453.484464,475.574459 C453.748512,473.381776 452.176888,471.604255 449.956611,471.604255 L448.948502,471.604255 C448.400782,471.604255 448.010162,472.05467 448.074773,472.599695 Z M453.552335,489.449043 C453.552335,488.089677 452.450351,486.987693 451.090985,486.987693 C449.731619,486.987693 448.629635,488.089677 448.629635,489.449043 C448.629635,490.808409 449.731619,491.910393 451.090985,491.910393 C452.450351,491.910393 453.552335,490.808409 453.552335,489.449043 Z M453.552335,489.449043" id="alert" sketch:type="MSShapeGroup"></path>
            <path d="M652,389 C652,388.654192 651.956118,388.318633 651.873619,387.998589 L662.912526,379.412772 C663.520201,379.78526 664.235023,380 665,380 C667.209139,380 669,378.209139 669,376 C669,373.790861 667.209139,372 665,372 C662.790861,372 661,373.790861 661,376 C661,376.345808 661.043882,376.681367 661.126381,377.001411 L650.087474,385.587228 C649.479799,385.21474 648.764977,385 648,385 C645.790861,385 644,386.790861 644,389 C644,391.209139 645.790861,393 648,393 C648.449672,393 648.882013,392.925799 649.285448,392.788974 L661.126381,401.998589 C661.043882,402.318633 661,402.654192 661,403 C661,405.209139 662.790861,407 665,407 C667.209139,407 669,405.209139 669,403 C669,400.790861 667.209139,399 665,399 C664.235023,399 663.520201,399.21474 662.912526,399.587228 L651.584737,390.776725 C651.850549,390.241449 652,389.638178 652,389 Z M652,389" id="share" sketch:type="MSShapeGroup"></path>
            <path d="M218,111.009928 L218,133.990072 C218,138.413833 221.584911,142 225.996941,142 L264.003059,142 C268.419647,142 272,138.418268 272,133.990072 L272,111.009928 C272,106.586167 268.415089,103 264.003059,103 L225.996941,103 C221.580353,103 218,106.581732 218,111.009928 Z M264.003059,106 C266.758983,106 269,108.243773 269,111.009928 L269,133.990072 C269,136.760714 266.76349,139 264.003059,139 L225.996941,139 C223.241017,139 221,136.756227 221,133.990072 L221,111.009928 C221,108.239286 223.23651,106 225.996941,106 L264.003059,106 Z M228.999615,111.162791 C227.895258,111.162791 227,112.058958 227,113.171602 L227,115.502816 C227,116.612252 227.887433,117.511628 228.999615,117.511628 L235.000385,117.511628 C236.104742,117.511628 237,116.61546 237,115.502816 L237,113.171602 C237,112.062166 236.112567,111.162791 235.000385,111.162791 L228.999615,111.162791 Z M264,124.383721 C264,118.032446 258.851275,112.883721 252.5,112.883721 C246.148725,112.883721 241,118.032446 241,124.383721 C241,130.734996 246.148725,135.883721 252.5,135.883721 C258.851275,135.883721 264,130.734996 264,124.383721 Z M245,124.383721 C245,120.241585 248.357864,116.883721 252.5,116.883721 C256.642136,116.883721 260,120.241585 260,124.383721 C260,128.525857 256.642136,131.883721 252.5,131.883721 C248.357864,131.883721 245,128.525857 245,124.383721 Z M245,124.383721" id="camera" sketch:type="MSShapeGroup"></path>
            <path d="M575.5,123 C575.5,110.021308 564.978692,99.5 552,99.5 C539.021308,99.5 528.5,110.021308 528.5,123 C528.5,135.978692 539.021308,146.5 552,146.5 C564.978692,146.5 575.5,135.978692 575.5,123 Z M531.5,123 C531.5,111.678162 540.678162,102.5 552,102.5 C563.321838,102.5 572.5,111.678162 572.5,123 C572.5,134.321838 563.321838,143.5 552,143.5 C540.678162,143.5 531.5,134.321838 531.5,123 Z M543.115385,123.846154 C545.685633,123.846154 547.769231,121.762556 547.769231,119.192308 C547.769231,116.622059 545.685633,114.538462 543.115385,114.538462 C540.545136,114.538462 538.461538,116.622059 538.461538,119.192308 C538.461538,121.762556 540.545136,123.846154 543.115385,123.846154 Z M560.038462,123.846154 C562.60871,123.846154 564.692308,121.762556 564.692308,119.192308 C564.692308,116.622059 562.60871,114.538462 560.038462,114.538462 C557.468213,114.538462 555.384615,116.622059 555.384615,119.192308 C555.384615,121.762556 557.468213,123.846154 560.038462,123.846154 Z M551.931617,138.665908 C556.859456,138.665908 561.43827,136.365241 564.685869,132.431754 C565.564928,131.367038 565.414424,129.791297 564.349709,128.912237 C563.284993,128.033178 561.709252,128.183682 560.830192,129.248397 C558.504583,132.065173 555.31878,133.665908 551.931617,133.665908 C548.52841,133.665908 545.328562,132.049786 543.000829,129.209235 C542.12569,128.141295 540.550513,127.984999 539.482572,128.860138 C538.414632,129.735278 538.258337,131.310455 539.133476,132.378395 C542.382891,136.343684 546.98079,138.665908 551.931617,138.665908 Z M551.931617,138.665908" id="smile" sketch:type="MSShapeGroup"></path>
            <path d="M680.5,123 C680.5,110.021308 669.978692,99.5 657,99.5 C644.021308,99.5 633.5,110.021308 633.5,123 C633.5,135.978692 644.021308,146.5 657,146.5 C669.978692,146.5 680.5,135.978692 680.5,123 Z M636.5,123 C636.5,111.678162 645.678162,102.5 657,102.5 C668.321838,102.5 677.5,111.678162 677.5,123 C677.5,134.321838 668.321838,143.5 657,143.5 C645.678162,143.5 636.5,134.321838 636.5,123 Z M665.038462,123.846154 C667.60871,123.846154 669.692308,121.762556 669.692308,119.192308 C669.692308,116.622059 667.60871,114.538462 665.038462,114.538462 C662.468213,114.538462 660.384615,116.622059 660.384615,119.192308 C660.384615,121.762556 662.468213,123.846154 665.038462,123.846154 Z M648.115385,123.846154 C650.685633,123.846154 652.769231,121.762556 652.769231,119.192308 C652.769231,116.622059 650.685633,114.538462 648.115385,114.538462 C645.545136,114.538462 643.461538,116.622059 643.461538,119.192308 C643.461538,121.762556 645.545136,123.846154 648.115385,123.846154 Z M656.923946,134.376769 C658.634898,134.376769 660.25544,135.191025 661.457553,136.647023 C662.336613,137.711739 663.912354,137.862243 664.97707,136.983183 C666.041785,136.104124 666.192289,134.528382 665.31323,133.463667 C663.189127,130.890957 660.175574,129.376769 656.923946,129.376769 C653.6572,129.376769 650.63124,130.905067 648.506115,133.498374 C647.630976,134.566314 647.787271,136.141491 648.855211,137.016631 C649.923152,137.89177 651.498329,137.735474 652.373468,136.667534 C653.57691,135.198964 655.204819,134.376769 656.923946,134.376769 Z M656.923946,134.376769" id="sadly" sketch:type="MSShapeGroup"></path>
            <path d="M534.067895,223.120557 L540.705648,224.53053 L540.242069,202.33081 L540.205233,200.566822 L538.470162,200.887037 L532.851075,201.924065 C531.350111,202.234492 530.421692,203.760633 530.505201,205.320604 L531.127234,220.2092 C531.216522,221.879027 532.440896,223.269169 534.067895,223.120557 Z M533.501749,205.177795 C533.494134,205.033629 533.526123,204.905791 533.57738,204.821534 C533.583049,204.812215 537.280362,204.195868 537.280362,204.195868 C537.280362,204.195868 537.690252,220.858238 537.671297,220.854395 C536.488393,220.614601 534.229465,220.156677 534.229465,220.156677 C534.229465,220.156677 534.129131,220.166311 534.123782,220.066392 L533.501749,205.177795 Z M562.188888,224.28215 L567.955384,223.832141 C569.82556,223.686195 571.483511,222.046285 571.811211,220.121755 C571.819365,220.076125 571.837605,219.972611 571.8632,219.825833 C571.90572,219.581997 571.953063,219.307243 572.00403,219.007378 C572.149643,218.150652 572.295263,217.263532 572.431317,216.392147 C572.692055,214.722202 572.886173,213.312904 572.987326,212.282964 C573.150509,210.621453 573.280098,208.954694 573.37966,207.36212 C573.41452,206.804495 573.443153,206.295662 573.465985,205.845628 C573.479755,205.574221 573.488569,205.381754 573.492848,205.278258 C573.633098,202.666373 571.896913,200.087549 569.474277,199.475858 L566.425824,198.706154 L566.270049,198.666822 L566.109478,198.661374 C566.039031,198.658984 566.039031,198.658984 565.72342,198.648428 C565.302723,198.634459 565.074894,198.626957 564.706841,198.615003 C563.655152,198.580845 562.603416,198.547905 561.621472,198.51886 C560.513256,198.486079 560.826727,198.486665 560.826727,198.486665 L561.947899,194.963292 L562.005556,194.7821 L562.016179,194.592253 L562.29014,189.696271 C562.441291,186.995032 560.551231,184.586376 558.061188,184.500883 L557.222288,184.472081 L556.758947,185.172006 L551.340316,193.371974 L543.07208,199.986838 L542.490451,200.45216 L542.509644,201.196773 L543.060471,222.566716 L543.096143,223.950641 L544.478483,224.02585 L551.501076,224.407927 C554.465703,224.569223 559.228646,224.513163 562.188888,224.28215 Z M546.023881,221.108484 L545.543612,201.851467 L553.377738,195.583906 L553.561523,195.436872 L553.691442,195.240615 L558.645643,187.802471 C558.645643,187.802471 559.335845,188.79561 559.294826,189.528664 L559.030955,194.236475 L557.359752,199.488363 L556.752249,201.397487 L558.755186,201.442821 C559.488397,201.459416 560.4309,201.484956 561.532773,201.517548 C562.511482,201.546498 563.560444,201.579351 564.609454,201.613422 C564.976645,201.625348 565.845821,201.653858 565.845821,201.653858 L568.739855,202.384573 C569.717554,202.631432 570.563261,203.887593 570.496284,205.135919 C570.491507,205.248686 570.483121,205.431826 570.469839,205.693619 C570.447585,206.132253 570.41961,206.629403 570.385505,207.174937 C570.288023,208.734248 570.161123,210.366407 570.001691,211.989735 C569.907409,212.949708 569.719852,214.311379 569.46723,215.929348 C569.333443,216.786211 569.189947,217.660387 569.046445,218.504692 C568.996221,218.800188 568.949603,219.070735 568.907797,219.310477 C568.882797,219.453846 568.864897,219.555428 568.855666,219.607326 C568.749043,220.233271 568.169716,220.806293 567.721978,220.841234 L561.955481,221.291244 C559.127115,221.511965 554.49659,221.566466 551.664055,221.412357 L546.023881,221.108484 Z M546.023881,221.108484" id="thumb-up" sketch:type="MSShapeGroup"></path>
            <path d="M450.608108,187.5 C445.736577,187.5 441.781853,191.418493 441.781853,196.259136 C441.781853,201.09978 445.736577,205.018272 450.608108,205.018272 C455.47964,205.018272 459.434363,201.09978 459.434363,196.259136 C459.434363,191.418493 455.47964,187.5 450.608108,187.5 Z M450.608108,190.5 C453.828935,190.5 456.434363,193.081559 456.434363,196.259136 C456.434363,199.436713 453.828935,202.018272 450.608108,202.018272 C447.387282,202.018272 444.781853,199.436713 444.781853,196.259136 C444.781853,193.081559 447.387282,190.5 450.608108,190.5 Z M435.068768,220.251796 C434.590578,223.560384 436.657184,226.242525 439.683758,226.242525 L462.679176,226.242525 C465.70575,226.242525 467.772357,223.560384 467.294166,220.251796 L466.679654,215.999994 C465.935075,210.848267 461.515585,206.674419 456.80801,206.674419 L445.554924,206.674419 C440.847349,206.674419 436.42786,210.848267 435.683281,215.999994 L435.068768,220.251796 Z M463.710504,216.429125 L464.325017,220.680927 C464.552667,222.256029 463.792668,223.242525 462.679176,223.242525 L439.683758,223.242525 C438.570267,223.242525 437.810268,222.256029 438.037917,220.680927 L438.65243,216.429125 C439.191123,212.701917 442.396178,209.674419 445.554924,209.674419 L456.80801,209.674419 C459.966757,209.674419 463.171811,212.701917 463.710504,216.429125 Z M430.724811,192.631738 C430.410604,196.223134 432.337338,199.595928 435.509856,201.178111 C436.478688,201.661282 437.534055,201.960703 438.63345,202.056887 C439.458724,202.129089 440.186273,201.518603 440.258475,200.693329 C440.330678,199.868054 439.720192,199.140505 438.894917,199.068303 C438.172086,199.005064 437.482041,198.809289 436.848736,198.49345 C434.770039,197.456773 433.507495,195.246657 433.713395,192.893206 C433.987763,189.757161 436.752448,187.437315 439.888492,187.711683 C440.670298,187.780083 441.413646,188.00355 442.087787,188.365835 C442.817516,188.757993 443.726984,188.484338 444.119142,187.75461 C444.5113,187.024881 444.237645,186.115413 443.507917,185.723255 C442.476678,185.169064 441.33935,184.827158 440.14996,184.723099 C435.363366,184.304327 431.143584,187.845145 430.724811,192.631738 Z M429.428616,219 C428.494952,219 427.826158,218.113223 428.035437,216.634088 L428.616475,212.527452 C429.119821,208.969926 432.094107,206.1 434.979956,206.1 L438.916853,206.1 L440.240234,203.1 L434.979956,203.1 C430.528821,203.1 426.350079,207.131342 425.64606,212.107175 L425.065022,216.213811 C424.612881,219.409435 426.566911,222 429.428616,222 L431.90293,222 L433.114041,219.254508 C432.743634,219.090874 432.333894,219 431.90293,219 L429.428616,219 Z M468.286605,192.893206 C468.492505,195.246657 467.229961,197.456773 465.151264,198.49345 C464.517959,198.809289 463.827914,199.005064 463.105083,199.068303 C462.279808,199.140505 461.669322,199.868054 461.741525,200.693329 C461.813727,201.518603 462.541276,202.129089 463.36655,202.056887 C464.465945,201.960703 465.521312,201.661282 466.490144,201.178111 C469.662662,199.595928 471.589396,196.223134 471.275189,192.631738 C470.856416,187.845145 466.636634,184.304327 461.85004,184.723099 C460.66065,184.827158 459.523322,185.169064 458.492083,185.723255 C457.762355,186.115413 457.4887,187.024881 457.880858,187.75461 C458.273016,188.484338 459.182484,188.757993 459.912213,188.365835 C460.586354,188.00355 461.329702,187.780083 462.111508,187.711683 C465.247552,187.437315 468.012237,189.757161 468.286605,192.893206 Z M473.383525,212.527452 L473.964563,216.634088 C474.173842,218.113223 473.505048,219 472.571384,219 L470.09707,219 C469.666103,219 469.25636,219.090875 468.885959,219.254508 L470.09707,222 L472.571384,222 C475.433089,222 477.387119,219.409435 476.934978,216.213811 L476.35394,212.107175 C475.649921,207.131342 471.471179,203.1 467.020044,203.1 L461.759766,203.1 L463.083147,206.1 L467.020044,206.1 C469.905893,206.1 472.880179,208.969926 473.383525,212.527452 Z M473.383525,212.527452" id="group" sketch:type="MSShapeGroup"></path>
            <path d="M343.785714,193.214286 C343.785714,198.579338 348.134948,202.928571 353.5,202.928571 C358.865052,202.928571 363.214286,198.579338 363.214286,193.214286 C363.214286,187.849234 358.865052,183.5 353.5,183.5 C348.134948,183.5 343.785714,187.849234 343.785714,193.214286 Z M360.214286,193.214286 C360.214286,196.922484 357.208198,199.928571 353.5,199.928571 C349.791802,199.928571 346.785714,196.922484 346.785714,193.214286 C346.785714,189.506088 349.791802,186.5 353.5,186.5 C357.208198,186.5 360.214286,189.506088 360.214286,193.214286 Z M341.251487,227.142857 L367.034228,227.142857 C370.427659,227.142857 372.744763,224.107803 372.208611,220.363875 L371.519612,215.552624 C370.684781,209.723039 365.729596,205 360.451406,205 L347.834309,205 C342.556119,205 337.600933,209.723039 336.766103,215.552624 L336.077103,220.363875 C335.540951,224.107803 337.858055,227.142857 341.251487,227.142857 Z M369.238908,220.789154 C369.527875,222.807002 368.508158,224.142857 367.034228,224.142857 L341.251487,224.142857 C339.777556,224.142857 338.757839,222.807002 339.046807,220.789154 L339.735806,215.977903 C340.367015,211.570202 344.111975,208 347.834309,208 L360.451406,208 C364.17374,208 367.9187,211.570202 368.549908,215.977903 L369.238908,220.789154 Z M369.238908,220.789154" id="user" sketch:type="MSShapeGroup"></path>
            <path d="M656.924259,291.642501 C658.294679,291.810767 659.542031,290.836229 659.710298,289.465809 L660.663347,281.703846 C668.901769,284.1069 674.52158,291.983139 673.918223,300.718941 L665.942429,299.739636 C665.120176,299.638677 664.371765,300.223399 664.270805,301.045652 C664.169846,301.867904 664.754568,302.616315 665.576821,302.717275 L673.472928,303.686795 C671.427175,312.453275 663.278471,318.544644 654.201819,317.917746 L655.051667,310.996292 C655.152627,310.17404 654.567904,309.425628 653.745652,309.324669 C652.9234,309.223709 652.174989,309.808432 652.074029,310.630684 L651.233965,317.472451 C642.791486,315.502308 636.830033,307.871996 636.960832,299.203673 L644.795145,300.165606 C645.617397,300.266566 646.365808,299.681843 646.466768,298.859591 C646.567728,298.037339 645.983005,297.288927 645.160753,297.187968 L637.246753,296.21625 C637.776341,293.227761 639.006344,290.520327 640.74466,288.244035 L651.924051,296.554521 C651.24009,297.343841 650.826226,298.373589 650.826226,299.5 C650.826226,301.985281 652.840945,304 655.326226,304 C657.811508,304 659.826226,301.985281 659.826226,299.5 C659.826226,297.292172 658.236239,295.455705 656.138844,295.073181 L656.505583,291.554627 C656.640176,291.595128 656.780025,291.624791 656.924259,291.642501 Z M634.120876,296.839951 C632.673785,308.625566 641.054813,319.352793 652.840428,320.799884 C664.626042,322.246976 675.353269,313.865947 676.800361,302.080333 C678.247452,290.294718 669.866424,279.567491 658.080809,278.1204 C646.295195,276.673308 635.567968,285.054336 634.120876,296.839951 Z M649.168368,273.10839 C648.109728,273.423597 647.507057,274.53732 647.822264,275.59596 C648.137471,276.654599 649.251194,277.257271 650.309834,276.942064 C653.118037,276.105929 656.079626,275.85207 659.055529,276.217465 C662.592898,276.6518 665.896302,277.930393 668.749617,279.927411 C669.654561,280.560776 670.901606,280.340618 671.534971,279.435674 C672.168336,278.53073 671.948177,277.283685 671.043234,276.65032 C667.656855,274.280215 663.734037,272.761875 659.543007,272.247281 C656.017923,271.814455 652.501909,272.115837 649.168368,273.10839 Z M649.168368,273.10839" id="stopwatch" sketch:type="MSShapeGroup"></path>
            <path d="M228.95824,410.181571 C230.748197,411.530401 238.018577,408.157721 238.018577,408.157721 L256.036278,384.247423 C257.363145,382.486612 257.004017,379.978018 255.247574,378.654444 L252.046366,376.24216 C250.28391,374.914054 247.771696,375.275213 246.452652,377.025643 L228.434951,400.935941 C228.434951,400.935941 227.553655,409.12314 228.95824,410.181571 Z M248.848559,378.831088 C249.173715,378.399592 249.805973,378.31031 250.240921,378.638066 L253.442129,381.05035 C253.878623,381.379272 253.967653,382.007661 253.640372,382.441978 C253.640372,382.441978 236.223806,405.672713 236.128513,405.713652 C235.904348,405.809955 235.663887,405.910695 235.410511,406.0138 C235.024971,406.170686 234.011775,406.548261 234.011775,406.548261 L231.191626,404.466669 C231.191626,404.466669 231.247318,403.319828 231.290567,402.725416 C231.307523,402.492367 231.325193,402.268858 231.343123,402.057182 C231.355165,401.915009 248.848559,378.831088 248.848559,378.831088 Z M248.848559,378.831088" id="pencil" sketch:type="MSShapeGroup"></path>
            <path d="M542.088457,492.386659 C542.199657,493.586031 543.354188,494.636364 544.561752,494.636364 L558.904915,494.636364 C560.112044,494.636364 561.267319,493.582699 561.37821,492.386659 L563.268369,472 L540.198298,472 L542.088457,492.386659 Z M539.101268,492.663617 C539.355899,495.409989 541.808727,497.636364 544.561752,497.636364 L558.904915,497.636364 C561.666025,497.636364 564.111863,495.398174 564.365398,492.663617 L566.281236,472 L568,472 L567.733517,466.210899 C567.390236,462.780714 564.449819,460 561.183883,460 L541.816117,460 C538.542135,460 535.609515,462.783203 535.266483,466.210899 L535,472 L537.185431,472 L539.101268,492.663617 Z M547.5,490.515152 C548.328427,490.515152 549,489.843579 549,489.015152 L549,477.5 C549.000001,476.671573 548.328428,476 547.500001,476 C546.671573,476 546.000001,476.671573 546,477.5 L546,489.015151 C546,489.843579 546.671573,490.515151 547.5,490.515152 Z M555.433333,490.515152 C556.26176,490.515152 556.933333,489.843579 556.933333,489.015152 L556.933334,477.5 C556.933334,476.671573 556.261761,476 555.433334,476 C554.604907,476 553.933334,476.671573 553.933334,477.5 L553.933333,489.015151 C553.933333,489.843579 554.604906,490.515151 555.433333,490.515152 Z M561.347273,463.126316 L541.652197,463.126316 C539.867601,463.126316 538.179381,465.238217 537.992358,467.702897 L537.893932,469 L565.105539,469 L565.007113,467.702897 C564.820295,465.240916 563.128058,463.126316 561.347273,463.126316 Z M561.347273,463.126316" id="basket" sketch:type="MSShapeGroup"></path>
            <path d="M366.820312,481.056103 C366.820312,487.910043 361.264097,493.466259 354.410156,493.466259 C347.556216,493.466259 342,487.910043 342,481.056103 C342,477.42975 343.561506,474.060677 346.23733,471.716844 C347.068221,470.989043 347.151791,469.725473 346.42399,468.894583 C345.696188,468.063692 344.432619,467.980122 343.601728,468.707923 C340.067716,471.803468 338,476.264731 338,481.056103 C338,490.119182 345.347077,497.466259 354.410156,497.466259 C363.473236,497.466259 370.820312,490.119182 370.820312,481.056103 C370.820312,476.134161 368.637789,471.563874 364.936295,468.466224 C364.089214,467.757332 362.827849,467.869357 362.118957,468.716438 C361.410065,469.563518 361.522089,470.824884 362.36917,471.533776 C365.171917,473.879295 366.820312,477.331098 366.820312,481.056103 Z M352,480.607582 C352,481.988294 353.119288,483.107582 354.5,483.107582 C355.880712,483.107582 357,481.988294 357,480.607582 L357,463.409091 C357,462.028379 355.880712,460.909091 354.5,460.909091 C353.119288,460.909091 352,462.028379 352,463.409091 L352,480.607582 Z M352,480.607582" id="off" sketch:type="MSShapeGroup"></path>
            <path d="M127.007963,496.386913 L127.264641,493.992746 L127.34975,493.19889 L126.738757,492.684947 C126.125806,492.169357 125.546727,491.614107 125.006649,491.023961 L124.485251,490.454228 L123.718621,490.547659 L121.415539,490.828342 C119.406922,491.073138 119.150039,490.645619 120.313176,488.989689 L121.527399,487.26103 L122.000237,486.587862 L121.686777,485.827288 C121.225733,484.708621 120.888934,483.550525 120.684014,482.368794 L120.549776,481.594673 L119.836979,481.264214 L118.392571,480.594575 C116.54084,479.736096 116.537532,479.086497 118.372431,478.215138 L119.916436,477.481919 L120.606521,477.154211 L120.747294,476.403349 C120.913442,475.517149 121.147821,474.648599 121.447697,473.80396 L121.712962,473.056809 L121.245019,472.416786 L119.982833,470.690446 C118.79159,469.061137 119.037631,468.631729 121.047555,468.838799 L123.146902,469.055083 L123.942956,469.137095 L124.454369,468.521559 C125.053488,467.800461 125.70964,467.129279 126.415696,466.515262 L127.006071,466.001847 L126.922873,465.223891 L126.704809,463.184841 C126.490061,461.1768 126.941205,460.913312 128.592835,462.090802 L130.197721,463.234967 L130.848822,463.699154 L131.597139,463.417334 C132.525792,463.067597 133.48449,462.80034 134.464585,462.619416 L135.216855,462.480549 L135.546176,461.790084 L136.21104,460.396113 C137.09677,458.539068 137.834978,458.534928 138.744903,460.381898 L139.437863,461.788471 L139.773031,462.468796 L140.519615,462.602183 C141.227084,462.728582 141.923746,462.899931 142.606417,463.114881 L143.325571,463.341318 L143.936353,462.899277 L145.716348,461.611041 C147.360482,460.421131 147.878726,460.713921 147.71251,462.736282 L147.546565,464.755337 L147.481104,465.551801 L148.105619,466.050419 C148.678135,466.507521 149.221663,467.001166 149.732629,467.528039 L150.235299,468.046357 L150.953971,467.976776 L152.915199,467.786893 C154.961244,467.588798 155.315092,468.176782 154.177892,469.894467 L153.298679,471.222477 L152.847598,471.903813 L153.175412,472.652299 C153.727336,473.912485 154.128387,475.236999 154.367959,476.602759 L154.494682,477.325191 L155.142675,477.668806 L155.856099,478.047117 C157.721689,479.036393 157.721116,480.021819 155.850185,481.010254 L155.162408,481.373615 L154.511965,481.717252 L154.38545,482.441929 C154.190171,483.560484 153.879929,484.665236 153.461051,485.737335 L153.171016,486.479664 L153.62385,487.135495 L154.597632,488.545807 C155.758481,490.227045 155.436037,490.780144 153.416084,490.593841 L151.588443,490.425275 L150.821865,490.354572 L150.317481,490.936153 C149.793767,491.540022 149.230793,492.107075 148.63284,492.632423 L148.053796,493.141157 L148.130281,493.908133 L148.315062,495.761092 C148.51614,497.777485 148.011505,498.072969 146.355255,496.913373 L144.914767,495.904841 L144.26226,495.447999 L143.51834,495.732694 C142.90381,495.967872 142.274942,496.166392 141.633694,496.327029 L140.913894,496.507343 L140.620457,497.1889 L139.740217,499.233402 C138.944067,501.082593 138.445837,501.087743 137.602536,499.250063 L136.824125,497.553786 L136.478443,496.800492 L135.656719,496.692247 C134.424758,496.529962 133.205234,496.223607 132.019874,495.781224 L131.248184,495.493224 L130.591042,495.989826 L128.765144,497.369653 C127.164195,498.579487 126.795168,498.371759 127.007963,496.386913 Z M131.783489,498.875497 L134.427739,499.524632 L134.875921,500.50129 C136.802059,504.698638 140.670666,504.658649 142.495685,500.41974 L143.107206,499.034851 L143.859215,498.828009 L144.634649,499.370916 C148.392383,502.001829 151.755882,500.032371 151.300255,495.463403 L151.198544,494.358435 L152.124364,493.487437 L153.140559,493.581162 C157.697993,494.001501 159.672134,490.615188 157.066327,486.841241 L156.536064,486.051173 L157.25157,483.662823 C161.252421,481.549124 161.25477,477.514206 157.26155,475.3967 L156.231954,472.226351 L156.679356,471.55057 C159.210762,467.727002 157.184232,464.359543 152.626095,464.800855 L151.418653,464.972755 L150.600716,464.219552 L150.702428,462.982021 C151.078411,458.407408 147.679388,456.487079 143.957469,459.180744 L142.930978,460.081469 L141.804939,459.804877 L141.436042,459.056087 C139.41916,454.962212 135.468445,454.984371 133.503264,459.104621 L133.196494,459.816835 L131.301102,460.337255 L130.33435,459.648032 C126.57643,456.968912 123.231849,458.922299 123.721819,463.503854 L123.861629,464.780966 L122.730607,465.996315 L121.355,465.854594 C116.758403,465.381034 114.836727,468.73487 117.561081,472.461072 L118.369706,473.553309 L117.967476,475.086358 L117.085524,475.50518 C112.954032,477.467148 112.974004,481.3892 117.130754,483.316305 L117.887519,483.65448 L118.611426,486.193074 L117.85826,487.265338 C115.200311,491.049394 117.192671,494.365192 121.778471,493.806308 L123.334484,493.619036 L124.198912,494.445485 L124.025057,496.067116 C123.531676,500.669136 126.880455,502.554191 130.57386,499.763091 L131.783489,498.875497 Z M137.75,490 C143.558477,490 148,485.661769 148,479.895833 C148,474.281877 143.271852,469.5 137.75,469.5 C131.988293,469.5 127.5,473.936704 127.5,479.895833 C127.5,485.42887 132.286242,490 137.75,490 Z M137.75,472.5 C141.607362,472.5 145,475.931191 145,479.895833 C145,483.98891 141.917217,487 137.75,487 C133.913023,487 130.5,483.740372 130.5,479.895833 C130.5,475.601371 133.637434,472.5 137.75,472.5 Z M137.75,472.5" id="settings" sketch:type="MSShapeGroup"></path>
        </g>
    </g>
</svg>