<?xml version="1.0" encoding="UTF-8" standalone="no"?>
<svg width="59px" height="53px" viewBox="0 0 59 53" version="1.1" xmlns="http://www.w3.org/2000/svg" xmlns:xlink="http://www.w3.org/1999/xlink" xmlns:sketch="http://www.bohemiancoding.com/sketch/ns">
    <title>google</title>
    <description>Created with Sketch (http://www.bohemiancoding.com/sketch)</description>
    <defs></defs>
    <g id="Page 1" stroke="none" stroke-width="1" fill="none" fill-rule="evenodd">
        <g id="google" fill="#FEFFA8">
            <path d="M23.4852423,15.3824739 L28.5904537,15.7761071 L32.7295681,13.1641953 L33.56168,16.424876 L29.8985667,17.3250708 L31.5401586,18.8459735 L28.6271737,25.339274 L24.9414286,27.6155771 L27.0223018,30.6237094 L33.2352452,32.5071594 L32.7295684,38.6345453 L26.3526853,41.3463542 L20.6597921,41.3463542 L14.0313859,37.4245578 L16.2012867,31.9448183 L23.2760179,30.3992219 L20.6597918,28.6841376 L23.008935,25.8735542 L20.6230718,25.8174324 L16.4019738,23.2874584 L16.1633797,18.7617907 L18.6312263,16.1756949 Z M18.9608034,33.519598 L17.2138672,36.8528437 L21.3964844,39.3876953 L26.3613281,39.3876953 L30.8369141,36.8528438 L29.8165832,33.519598 L24.9423828,31.953125 Z M19.5916484,18.7864843 L18.9990014,22.8654219 L24.0191023,24.7466271 L27.5414517,22.8654219 L28.8749074,19.4341307 L24.0191021,17.6371084 Z M37.4967754,13.2371537 L41.275878,12.5572917 L41.275878,19.0957163 L46.5999131,19.0957163 L46.5999131,21.5446093 L41.0557911,21.5446093 L41.0557911,27.2552747 L37.4967756,27.2552747 L37.4967756,21.8215569 L32.7823057,21.8215569 L32.7823057,18.9905275 L37.4967754,18.9905275 Z M37.4967754,13.2371537" id="Path 6"></path>
        </g>
    </g>
</svg>