<?xml version="1.0" encoding="utf-8"?>
<!-- Generator: Adobe Illustrator 15.0.0, SVG Export Plug-In . SVG Version: 6.00 Build 0)  -->
<!DOCTYPE svg PUBLIC "-//W3C//DTD SVG 1.1//EN" "http://www.w3.org/Graphics/SVG/1.1/DTD/svg11.dtd">
<svg version="1.1" id="Layer_1" xmlns="http://www.w3.org/2000/svg" xmlns:xlink="http://www.w3.org/1999/xlink" x="0px" y="0px"
	 width="792px" height="612px" viewBox="0 0 792 612" enable-background="new 0 0 792 612" xml:space="preserve">
<g>
	<g>
		<g>
			<g>
				<path fill="#FFFFFF" d="M27.847,31.077c-0.24,3.211,0.835,3.156,0.667,3.757c-0.168,0.601-2.335,1.29-3.816,1.29
					c-2.391,0-3.09-1.29-2.911-3.681l0.606-8.083c0.128-1.707-0.154-2.504-1.407-2.504c-0.797,0-1.888,0.379-2.942,1.29
					L17.094,35.82c-0.846,0.152-1.876,0.228-2.939,0.228c-0.949,0-1.967-0.076-2.829-0.228L13.4,8.156l0.286-0.265h2.277
					c2.353,0,3.157,0.91,2.958,3.566l-0.538,7.172c1.53-1.176,3.131-1.628,5.142-1.628c3.453,0,5.202,2.35,4.906,6.296
					L27.847,31.077z"/>
			</g>
			<g>
				<path fill="#FFFFFF" d="M45.227,31.012c-1.506,0.555-3.401,1.244-4.993,1.244c-2.504,0-3.246-2.439-3.152-3.68
					c1.799-0.131,8.799-0.054,8.799-0.054c0.473-1.252,1.761-1.945,1.887-3.616c0.344-4.591-2.371-7.788-7.379-7.788
					c-6.033,0-8.743,4.184-9.173,9.914c-0.375,5.008,1.074,9.474,7.752,9.474c2.452,0,5.146-0.68,7.119-1.858
					C45.262,33.61,45.18,32.308,45.227,31.012z M40.123,21.074c1.784,0,2.394,1.479,2.263,3.226l-0.032,0.417h-5.009
					C37.681,22.251,38.453,21.074,40.123,21.074z"/>
			</g>
			<g>
				<path fill="#FFFFFF" d="M64.215,30.738c0.21-2.807,0.578-7.702,0.578-7.702c0.361-4.821-3.11-5.917-6.411-5.917
					c-2.419,0-7.815,0.017-8.014,0.519s1.071,4.136,1.412,4.139c0.34,0.003,3.197-0.066,4.587-0.066
					c1.708,0,2.551,0.225,2.431,1.819l-0.054,0.721c-0.981-0.076-2.006-0.076-2.689-0.076c-3.909,0-7.665,2.011-8.005,6.564
					c-0.205,2.732,1.427,5.768,5.335,5.768c2.466,0,4.378-1.368,5.695-1.368s2.009,1.134,3.695,0.979
					c1.686-0.153,2.579-0.925,2.711-1.32C65.618,34.404,64.005,33.544,64.215,30.738z M58.235,31.042
					c-0.927,0.721-1.904,1.101-2.776,1.101c-1.063,0-1.688-0.76-1.612-1.784c0.108-1.442,0.864-2.428,2.572-2.428
					c0.531,0,1.288,0.038,2.043,0.076L58.235,31.042z"/>
			</g>
			<g>
				<path fill="#FFFFFF" d="M167.746,22.045c0.204-0.683,0.39-2.162,0.447-2.921c0.048-0.645,0.213-1.505,0.117-2.227l-4.521,0.077
					l0.483-8.817l-0.246-0.265h-2.314c-2.315,0-3.297,0.948-3.493,3.566l-0.427,5.692l-0.307,4.099l-0.728,9.714
					c-0.27,3.604,1.198,5.275,4.652,5.275c1.479,0,3.505-0.189,4.923-0.379c0.143-0.38,0.217-0.873,0.251-1.329
					c0.068-0.91-0.042-1.973-0.282-2.808h-2.125c-1.176,0-1.622-0.646-1.536-1.784l0.598-7.969L167.746,22.045z"/>
			</g>
			<g>
				<path fill="#FFFFFF" d="M144,28.955c0.036,2.049,0.674,3.147,3.18,3.147c1.708,0,3.416-0.531,5.019-1.139
					c0.806,0.873,1.231,2.314,1.293,3.491c-2,1.366-4.942,2.163-7.6,2.163c-6.683,0-8.134-4.437-7.759-9.446
					c0.43-5.73,3.229-10.169,9.268-10.169c5.009,0,7.634,3.453,7.29,8.044c-0.125,1.669-0.313,2.657-0.787,3.909L144,28.955
					L144,28.955z M144.269,24.856h5.008l0.032-0.418c0.13-1.745-0.479-3.226-2.263-3.226
					C145.377,21.213,144.605,22.39,144.269,24.856z"/>
			</g>
			<g>
				<g>
					<path fill="#FFFFFF" d="M135.669,30.831l0.58-7.721c0.294-3.917-1.388-6.107-4.816-6.107c-2.185,0-3.911,0.419-5.479,1.738
						c-0.382-1.431-1.336-2.26-2.918-2.26H121h-0.188l-0.283,0.263l-0.656,8.752c0.742,1.763,1.43,3.486,1.281,5.485
						c-0.157,2.087-1.044,3.578-1.929,4.574c-0.974,1.094-1.945,1.588-1.945,1.588c1.412-0.394,2.606-0.871,3.618-1.411
						c2.813-1.504,4.165-3.513,4.512-5.689c0.065-0.415,0.097-0.833,0.094-1.257l0.438-5.828c1.047-0.905,2.129-1.28,2.882-1.28
						c1.281,0,1.561,0.79,1.434,2.486l-0.601,8.022c-0.178,2.373,0.517,3.653,2.891,3.653c1.468,0,2.827-0.528,3.749-1.281
						C135.686,33.618,135.559,32.298,135.669,30.831z"/>
				</g>
				<g>
					<path fill="#FFFFFF" d="M111.203,35.403c-0.688-0.994-1.273-2.436-1.125-4.41c0.152-2.026,1.124-3.77,2.145-5.558l0.167-2.239
						c0.138-1.841-0.177-2.917-0.877-4.087c-0.79-1.319-2.097-2.108-3.914-2.108c-1.968,0-3.613,0.37-5.116,1.513l0.529-7.057
						c0.199-2.656-0.605-3.566-2.958-3.566h-2.276l-0.286,0.265l-1.747,23.307c-2.123,0.128-5.676,0.031-5.676,0.031
						c-1.176,0-1.621-0.646-1.536-1.784l0.58-7.741l4.51,0.076c0.204-0.683,0.407-2.39,0.464-3.149
						c0.048-0.645,0.024-1.328-0.074-2.049l-4.521,0.075l0.656-8.766l-0.245-0.265h-2.314c-2.315,0-3.297,0.948-3.493,3.566
						l-0.41,5.464l-0.36,4.806l-0.675,9.006c-0.27,3.605,1.199,5.275,4.652,5.275c0.979,0,4.637-1.143,8.121-0.249
						c3.484,0.896,5.433-0.836,5.851-1.104c0.419-0.267,0.863-11.512,0.863-11.512l0.012-0.152c1.026-0.863,2.08-1.227,2.854-1.227
						c1.243,0,1.523,0.791,1.396,2.485l-0.342,4.568c-0.064,0.408-0.094,0.815-0.091,1.213c0.012,2.228,1.102,4.281,3.811,5.798
						c0.9,0.505,1.974,0.953,3.254,1.326C113.029,37.156,112.04,36.614,111.203,35.403z"/>
				</g>
				<path fill="#270200" d="M115.907,27.588c0.715,1.552,1.505,3.838,1.396,5.277c-0.091,1.217-1.334,1.634-1.913,1.763
					c-0.426-0.108-1.163-0.386-1.489-0.898c-0.112-0.177-0.17-0.385-0.182-0.647c-0.003-0.083-0.007-0.162-0.002-0.217
					C113.826,31.426,114.959,29.14,115.907,27.588 M116.126,24.666c-0.509,0-3.899,5.144-4.129,8.2
					c-0.011,0.148-0.007,0.285-0.001,0.419c0.023,0.579,0.182,1.055,0.428,1.441c0.889,1.398,2.824,1.654,2.824,1.654
					s3.548-0.457,3.777-3.514C119.254,29.81,116.635,24.666,116.126,24.666L116.126,24.666z"/>
				<g>
					<path fill="#270200" d="M116.927,34.95c0.071-0.955-1.152-2.563-1.379-2.563c-0.228,0-1.692,1.607-1.764,2.563
						c-0.004,0.046,0,0.089,0.003,0.132c0.017,0.18,0.093,0.33,0.206,0.45c0.412,0.437,1.28,0.517,1.28,0.517
						S116.855,35.905,116.927,34.95z"/>
				</g>
			</g>
			<g>
				<path fill="#FFFFFF" d="M80.903,16.848l-0.727,0.012l-3.288,0.064c-0.142,0.051-0.278,0.108-0.411,0.17
					c-1.235,0.58-2.326,1.858-2.693,1.858c-0.368,0-2.266-2.181-4.679-2.371c-0.541,0.403-1.17,1.242-1.6,2.062
					c0.755,1.008,1.173,2.403,1.033,4.276l-0.971,12.94c0.818,0.125,1.801,0.188,2.696,0.188c1.024,0,2.13-0.076,2.976-0.228
					l0.885-11.802c0.761-1.069,1.603-1.718,2.682-1.887l0.83-0.017l1.193-0.037l1.683-0.033c0.204-0.683,0.407-2.39,0.464-3.149
					C81.026,18.251,81.001,17.568,80.903,16.848z"/>
			</g>
		</g>
	</g>
</g>
</svg>
