<?xml version="1.0" encoding="utf-8"?>
<!-- Generator: Adobe Illustrator 19.0.1, SVG Export Plug-In . SVG Version: 6.00 Build 0)  -->
<svg version="1.1" id="Vrstva_1" xmlns="http://www.w3.org/2000/svg" xmlns:xlink="http://www.w3.org/1999/xlink" x="0px" y="0px"
	 viewBox="495 -15.9 1190.6 227" style="enable-background:new 495 -15.9 1190.6 227;" xml:space="preserve">
<style type="text/css">
	.st0{fill:#FFFFFF;}
</style>
<path d="M1255.2-5c0,0-9.1,44.6-44.2,89.9c-35.2,45.3-24.6,90.3,23.4,113.3c0,0-22.1-39.9,6.4-81.7c28.5-41.7,27.5-52.5,24.5-58.2
	c0,0,66.8,66.9,7.8,142.7C1273.1,201.1,1405.5,132.3,1255.2-5z"/>
<path d="M1266,113c0,0-33.2,37.3-11.4,74.6C1254.6,187.6,1274.3,165.8,1266,113"/>
<path class="st0" d="M1660,196.4l2.2-20.9c-1.5,0.6-3,0.9-4.4,1.1s-2.7,0.2-4.1,0.2c-4.8,0-8.3-1.2-10.5-3.7s-3.1-5.5-2.7-9.2
	l6.7-63.7h22.9l2.2-20.5h-22.9l3.6-33.8l-37.8,8.5l-2.7,25.3h-16.8l-2.2,20.5h16.8l-6.6,63.2c-0.5,5.2-0.3,10,0.8,14.4
	c1.1,4.4,3,8.2,5.9,11.4c2.9,3.3,6.7,5.8,11.6,7.6s11,2.7,18.3,2.7c3.6,0,7.2-0.3,10.7-0.8C1654.4,198.4,1657.4,197.6,1660,196.4
	 M1499.5,133.4l0.3-2.6c1.1-10.8,4.4-19.2,9.8-25.2s12.3-9,20.6-9s14.3,2.5,18,7.6s5,12.6,4,22.5L1499.5,133.4z M1586.7,138.7
	c2-19.4-1.2-34.5-9.8-45.3c-8.6-10.9-22.8-16.3-42.6-16.3c-9.7,0-18.6,1.4-26.7,4.1c-8.1,2.8-15.1,6.7-21.1,11.9
	c-6,5.2-10.8,11.5-14.5,19c-3.7,7.5-6,16-7.1,25.6c-1,9.9-0.4,18.7,1.9,26.4c2.3,7.7,6.1,14.2,11.4,19.5s11.9,9.3,20,12.1
	c8.1,2.8,17.4,4.1,28,4.1c9.3,0,18.2-0.7,26.7-1.9c8.5-1.3,16.4-3.4,23.7-6.3l-5.4-21c-5,2-10.8,3.7-17.5,4.9
	c-6.7,1.2-13.3,1.9-19.8,1.9c-9.6,0-17.5-2.2-23.7-6.7c-6.2-4.4-9.4-11.3-9.6-20.7L1586.7,138.7z M1447.3,197.3l8.1-77
	c1.6-15.1-2.5-26.1-12.2-32.9c-9.8-6.8-24.2-10.3-43.4-10.3c-9.9,0-19.6,0.7-29.1,2.1s-18.4,3.5-26.5,6.4l-11.7,111.7h36.9l10.2-97
	c2.6-0.9,5.4-1.5,8.5-2c3.1-0.4,6.1-0.7,9-0.7c8,0,13.8,1.8,17.4,5.4c3.6,3.6,5,9.2,4.2,16.9l-8.1,77.4H1447.3z M1040.1,196.4
	l2.2-20.9c-1.5,0.6-3,0.9-4.4,1.1c-1.4,0.2-2.7,0.2-4.1,0.2c-4.8,0-8.3-1.2-10.5-3.7s-3.1-5.5-2.7-9.2l6.7-63.7h22.9l2.2-20.5h-22.9
	l3.6-33.8l-37.8,8.5l-2.7,25.3h-16.8l-2.2,20.5h16.8l-6.6,63.2c-0.6,5.2-0.3,10,0.8,14.4s3,8.2,5.9,11.4c2.9,3.3,6.7,5.8,11.6,7.6
	c4.9,1.8,11,2.7,18.3,2.7c3.6,0,7.2-0.3,10.7-0.8C1034.5,198.4,1037.5,197.6,1040.1,196.4 M976,78c-2-0.3-4.6-0.5-7.7-0.7
	c-3.1-0.1-6.1-0.2-9-0.2c-11.8,0-22.4,0.7-31.7,2c-9.4,1.3-18.2,3.4-26.5,6.3l-11.8,111.9h36.9l10.2-97.5c1.8-0.7,3.9-1.3,6.4-1.6
	c2.4-0.4,5-0.5,7.6-0.5c2.8,0,5.6,0.2,8.4,0.7c2.9,0.4,5.5,1.1,7.9,2L976,78z M840.7,178.5c-2.3,0.9-4.9,1.5-7.9,2
	c-3,0.4-6.1,0.7-9.3,0.7c-8.3,0-14.6-1.5-19-4.6c-4.4-3.1-6.3-8-5.5-14.8c0.5-4.9,2-9,4.5-12.2c2.4-3.2,5.7-5.7,9.7-7.6
	s8.8-3.3,14.2-4.3c5.4-0.9,11.4-1.7,18-2.3L840.7,178.5z M881.7,120.1c0.8-7.7,0.2-14.3-1.7-19.7c-2-5.5-5.1-9.9-9.5-13.3
	s-9.9-5.9-16.6-7.5c-6.7-1.6-14.3-2.4-22.9-2.4c-18,0-35,2.8-51,8.3l5.9,19c5.7-2,11.9-3.7,18.6-4.9c6.7-1.2,13.1-1.8,19.4-1.8
	c8.1,0,14.3,1.3,18.4,3.8c4.1,2.6,5.8,7,5.1,13.4l-0.6,5.5c-10.7,0.9-20.9,2.1-30.6,3.8c-9.7,1.7-18.3,4.1-25.8,7.2
	s-13.7,7.2-18.5,12.3c-4.8,5.1-7.6,11.6-8.5,19.4c-0.7,6.4,0.2,11.9,2.5,16.6c2.3,4.6,6,8.5,10.9,11.4c4.9,3,11,5.2,18.4,6.7
	c7.3,1.5,15.7,2.2,25,2.2c10.2,0,20-0.7,29.3-2.1c9.4-1.4,17.6-3.5,24.8-6.2L881.7,120.1z M675.5,133.4l0.3-2.6
	c1.1-10.8,4.4-19.2,9.8-25.2c5.4-6,12.3-9,20.6-9s14.3,2.5,18,7.6s5,12.6,4,22.5L675.5,133.4z M762.6,138.7
	c2-19.4-1.2-34.5-9.8-45.3c-8.6-10.9-22.8-16.3-42.6-16.3c-9.7,0-18.7,1.4-26.7,4.1c-8.1,2.8-15.1,6.7-21.1,11.9
	c-6,5.2-10.8,11.5-14.5,19c-3.7,7.5-6,16-7.1,25.6c-1,9.9-0.4,18.7,1.9,26.4c2.3,7.7,6.1,14.2,11.4,19.5c5.3,5.3,11.9,9.3,20,12.1
	c8.1,2.8,17.4,4.1,28,4.1c9.3,0,18.2-0.7,26.7-1.9c8.5-1.3,16.4-3.4,23.7-6.3l-5.4-21c-5,2-10.9,3.7-17.5,4.9
	c-6.7,1.2-13.3,1.9-19.8,1.9c-9.6,0-17.5-2.2-23.7-6.7c-6.2-4.4-9.4-11.3-9.6-20.7L762.6,138.7z M623.2,197.3l8.1-77.2
	c1.5-14-1.6-24.6-9.1-31.8c-7.5-7.3-19.2-10.9-35.1-10.9c-10.8,0-20.8,1.8-30,5.5l6-56.7h-36.8l-18,171.2h36.9l10.1-96.3
	c6.1-2.5,12.4-3.7,18.9-3.7c15.1,0,21.9,7.6,20.3,22.7l-8.1,77.2H623.2z"/>
<path class="st0" d="M1166.2,197.2l8.1-77.2c1.5-14-1.6-24.6-9.1-31.8c-7.5-7.3-19.2-10.9-35.1-10.9c-10.8,0-20.8,1.8-30,5.5l6-56.7
	h-36.9l-18,171.2h36.9l10.1-96.2c6.1-2.5,12.4-3.7,18.9-3.7c15.1,0,21.9,7.6,20.3,22.7l-8.1,77.2L1166.2,197.2L1166.2,197.2z"/>
</svg>
