<?xml version="1.0" encoding="UTF-8" standalone="no"?>
<svg width="113px" height="21px" viewBox="0 0 113 21" version="1.1" xmlns="http://www.w3.org/2000/svg" xmlns:xlink="http://www.w3.org/1999/xlink" xmlns:sketch="http://www.bohemiancoding.com/sketch/ns">
    <!-- Generator: Sketch 3.3.3 (12081) - http://www.bohemiancoding.com/sketch -->
    <title>Fill 7</title>
    <desc>Created with Sketch.</desc>
    <defs></defs>
    <g id="trziste" stroke="none" stroke-width="1" fill="none" fill-rule="evenodd" sketch:type="MSPage">
        <g id="iPhone-4s" sketch:type="MSArtboardGroup" transform="translate(-64.000000, -25.000000)" fill="#FFFFFF">
            <g id="part-navbar-copy" sketch:type="MSLayerGroup">
                <g id="image-hearth-logo" transform="translate(64.000000, 25.000000)" sketch:type="MSShapeGroup">
                    <path d="M111.78605,19.6293591 L111.999725,17.598274 C111.852617,17.6546526 111.711622,17.6901682 111.57577,17.7036563 C111.440403,17.7183089 111.309015,17.7251986 111.18209,17.7251986 C110.716991,17.7251986 110.376391,17.6049695 110.161453,17.3653847 C109.947292,17.1252177 109.858212,16.8291573 109.895377,16.4761361 L110.544362,10.2970999 L112.767192,10.2970999 L112.976405,8.3071585 L110.754156,8.3071585 L111.098638,5.02652568 L107.435194,5.85250611 L107.177463,8.3071585 L105.547821,8.3071585 L105.338609,10.2970999 L106.968251,10.2970999 L106.323148,16.4344101 C106.270165,16.9424967 106.295007,17.4076929 106.398643,17.8311632 C106.502472,18.2540512 106.691986,18.6245391 106.969318,18.9420448 C107.246262,19.2594534 107.622961,19.506413 108.098249,19.6829236 C108.573052,19.858852 109.164008,19.9474469 109.869371,19.9474469 C110.22181,19.9474469 110.566972,19.9226054 110.904176,19.8736016 C111.240215,19.8239186 111.534626,19.7426985 111.78605,19.6293591 L111.78605,19.6293591 Z M96.2172111,13.5134941 L96.2442845,13.2597419 C96.3537424,12.2154278 96.6723155,11.4006066 97.1995185,10.8153754 C97.7267214,10.2300472 98.3926876,9.93738304 99.1968346,9.93738304 C100.000885,9.93738304 100.58107,10.1837604 100.938652,10.6777767 C101.296137,11.1716959 101.424129,11.8980192 101.32321,12.8577168 L96.2172111,13.5134941 L96.2172111,13.5134941 Z M104.670411,14.0345837 C104.868366,12.1545855 104.549114,10.6872863 103.715759,9.63404483 C102.880075,8.58012407 101.503602,8.05340629 99.5847893,8.05340629 C98.6396472,8.05340629 97.7758222,8.1876087 96.9931204,8.4554313 C96.2093511,8.72325391 95.5269857,9.10839446 94.9451508,9.60920332 C94.3638011,10.1099151 93.8934619,10.7233842 93.5353947,11.4497074 C93.1767453,12.1770981 92.9484168,13.0054074 92.8508945,13.9369643 C92.7493936,14.896662 92.8114004,15.7499098 93.0363325,16.4975813 C93.2613617,17.2452527 93.6278711,17.8773529 94.1387719,18.3916499 C94.6485082,18.9065292 95.2952609,19.2989475 96.078545,19.5661879 C96.861732,19.8341075 97.7684474,19.9688921 98.7986911,19.9688921 C99.7008457,19.9688921 100.564768,19.9051387 101.389681,19.7799608 C102.214109,19.6542006 102.979829,19.451781 103.686454,19.1714406 L103.159736,17.1324955 C102.673094,17.3304514 102.10698,17.4889131 101.459062,17.6084629 C100.811824,17.7284978 100.17002,17.788855 99.5351062,17.788855 C98.6047138,17.788855 97.8366645,17.5729473 97.2333844,17.14152 C96.6294251,16.7106749 96.318712,16.0418947 96.3006631,15.1375082 L104.670411,14.0345837 L104.670411,14.0345837 Z M91.1428461,19.7145577 L91.9283621,12.2436656 C92.082263,10.7764635 91.6869336,9.71128643 90.7402389,9.04813437 C89.7940294,8.38498231 88.3899985,8.05340629 86.527467,8.05340629 C85.5677693,8.05340629 84.6260235,8.12055601 83.7024237,8.25475843 C82.7781446,8.38837862 81.92053,8.59700854 81.1288037,8.87890154 L79.9897813,19.7145577 L83.5664746,19.7145577 L84.5560597,10.2976821 C84.804766,10.2124834 85.0793812,10.148827 85.3805846,10.1065188 C85.6815939,10.0642106 85.9726084,10.0427654 86.2545014,10.0427654 C87.0304106,10.0427654 87.5942937,10.2158797 87.9461505,10.5626906 C88.2980073,10.9089192 88.4344415,11.4569852 88.3555503,12.2059181 L87.5661529,19.7145577 L91.1428461,19.7145577 L91.1428461,19.7145577 Z M51.6340632,19.6293591 L51.8474479,17.598274 C51.7000485,17.6546526 51.5587623,17.6901682 51.4233955,17.7036563 C51.2881256,17.7183089 51.1566403,17.7251986 51.0298127,17.7251986 C50.5644224,17.7251986 50.224016,17.6049695 50.0091757,17.3653847 C49.7947235,17.1252177 49.7058375,16.8291573 49.7427116,16.4761361 L50.3923755,10.2970999 L52.6149149,10.2970999 L52.823836,8.3071585 L50.6015876,8.3071585 L50.9460696,5.02652568 L47.2828192,5.85250611 L47.0248944,8.3071585 L45.3955432,8.3071585 L45.186331,10.2970999 L46.8159734,10.2970999 L46.1708702,16.4344101 C46.1173057,16.9424967 46.1424383,17.4076929 46.246074,17.8311632 C46.3496127,18.2540512 46.5399026,18.6245391 46.8170408,18.9420448 C47.0938878,19.2594534 47.470295,19.506413 47.9456801,19.6829236 C48.4207742,19.858852 49.0114394,19.9474469 49.7170938,19.9474469 C50.0692417,19.9474469 50.4143059,19.9226054 50.7507338,19.8736016 C51.0873557,19.8239186 51.3816695,19.7426985 51.6340632,19.6293591 L51.6340632,19.6293591 Z M45.413301,8.13792567 C45.2187414,8.11036711 44.9703263,8.08892189 44.6686377,8.07426928 C44.3670462,8.06078111 44.0748672,8.05340629 43.7926831,8.05340629 C42.6499733,8.05340629 41.6234171,8.11715971 40.714761,8.2439873 C39.8052315,8.3703297 38.9475199,8.57556333 38.1425966,8.85745632 L37.0012453,19.7145577 L40.5779385,19.7145577 L41.5720844,10.2547916 C41.748595,10.1843427 41.9552842,10.1313604 42.1915697,10.0958448 C42.4286315,10.0608143 42.6736504,10.0427654 42.9276937,10.0427654 C43.1955163,10.0427654 43.4680938,10.0642106 43.7462023,10.1065188 C44.0238257,10.1482448 44.2784512,10.2119012 44.5095938,10.2970999 L45.413301,8.13792567 L45.413301,8.13792567 Z M32.2829097,17.8943344 C32.061956,17.979436 31.8048075,18.042025 31.5115612,18.0849154 C31.2178297,18.1271266 30.9152677,18.1486688 30.605331,18.1486688 C29.8009899,18.1486688 29.1849979,18.000299 28.7581313,17.7036563 C28.3301004,17.4076929 28.1513579,16.9284263 28.2210306,16.2652743 C28.2714899,15.7854254 28.415299,15.390096 28.652943,15.079383 C28.8898108,14.7692521 29.2049875,14.5222925 29.5985703,14.3389893 C29.9913768,14.1557831 30.4497804,14.0181844 30.9750426,13.9262902 C31.4991404,13.8349782 32.0822368,13.7610359 32.7233614,13.7040751 L32.2829097,17.8943344 L32.2829097,17.8943344 Z M36.2648302,12.2228026 C36.3434303,11.4750341 36.2871487,10.8361414 36.0961796,10.3072888 C35.9045311,9.77833911 35.5969233,9.34807628 35.1734531,9.01591803 C34.7496917,8.68492422 34.2145317,8.44136091 33.5674878,8.28629551 C32.9204439,8.1312301 32.1814088,8.05340629 31.3486358,8.05340629 C29.5991525,8.05340629 27.9483561,8.32122889 26.3966346,8.85745632 L26.9651754,10.6985426 C27.5217807,10.5012661 28.1239934,10.3422221 28.7719106,10.2220901 C29.4190515,10.1025403 30.0460087,10.0427654 30.6527822,10.0427654 C31.4427618,10.0427654 32.0365323,10.1662937 32.4340936,10.4126711 C32.8312668,10.660213 32.9976855,11.0944543 32.9322825,11.7141337 L32.8766802,12.2436656 C31.8378002,12.328185 30.8476328,12.4522955 29.9061782,12.6141535 C28.9653057,12.7764967 28.1296216,13.0093859 27.3991257,13.3128212 C26.6692121,13.6155772 26.0692312,14.0147881 25.6018031,14.5087073 C25.1335017,15.0021414 24.8597599,15.6297778 24.7796071,16.3921019 C24.7142041,17.0129457 24.7954242,17.548688 25.0229764,18.000299 C25.2507226,18.4514248 25.6031617,18.8223979 26.0810697,19.1111806 C26.5581045,19.4010306 27.1527483,19.6158709 27.8650012,19.7568659 C28.5765748,19.8978609 29.3840211,19.9688921 30.2870491,19.9688921 C31.2744023,19.9688921 32.2231348,19.9017424 33.1333435,19.76754 C34.0436492,19.6339198 34.8438178,19.4319855 35.5354017,19.1641629 L36.2648302,12.2228026 L36.2648302,12.2228026 Z M16.256832,13.5134941 L16.2836143,13.2597419 C16.3932663,12.2154278 16.7115482,11.4006066 17.2385571,10.8153754 C17.7660512,10.2300472 18.4314351,9.93738304 19.2357763,9.93738304 C20.0402145,9.93738304 20.6204968,10.1837604 20.9778847,10.6777767 C21.3353697,11.1716959 21.4634587,11.8980192 21.362443,12.8577168 L16.256832,13.5134941 L16.256832,13.5134941 Z M24.7097404,14.0345837 C24.9074051,12.1545855 24.588735,10.6872863 23.7542153,9.63404483 C22.9196956,8.58012407 21.5429322,8.05340629 19.6243131,8.05340629 C18.678977,8.05340629 17.8145698,8.1876087 17.0315769,8.4554313 C16.2486809,8.72325391 15.5660244,9.10839446 14.9846747,9.60920332 C14.4030338,10.1099151 13.9326947,10.7233842 13.5738512,11.4497074 C13.2152018,12.1770981 12.9870674,13.0054074 12.8892539,13.9369643 C12.7883353,14.896662 12.8506331,15.7499098 13.0750801,16.4975813 C13.3004004,17.2452527 13.6674921,17.8773529 14.1782958,18.3916499 C14.688032,18.9065292 15.3345907,19.2989475 16.1177778,19.5661879 C16.9010619,19.8341075 17.807195,19.9688921 18.8374387,19.9688921 C19.7404666,19.9688921 20.6040975,19.9051387 21.4290105,19.7799608 C22.2528561,19.6542006 23.0186735,19.451781 23.7252012,19.1714406 L23.1987745,17.1324955 C22.7124242,17.3304514 22.145436,17.4889131 21.4983921,17.6084629 C20.850766,17.7284978 20.2090592,17.788855 19.5747271,17.788855 C18.6431703,17.788855 17.8754121,17.5729473 17.2723261,17.14152 C16.6684637,16.7106749 16.3577507,16.0418947 16.340284,15.1375082 L24.7097404,14.0345837 L24.7097404,14.0345837 Z M11.1821759,19.7145577 L11.9695356,12.2228026 C12.1119861,10.8677755 11.8181576,9.83811401 11.0879528,9.13265375 C10.3577481,8.42729052 9.22406277,8.07426928 7.68641169,8.07426928 C6.64170946,8.07426928 5.6710466,8.25136212 4.77306458,8.60380114 L5.3513091,3.10082294 L1.77490697,3.10082294 L0.0288200411,19.7145577 L3.60522217,19.7145577 L4.58607394,10.381134 C5.17567182,10.1414522 5.78807343,10.0214172 6.42327878,10.0214172 C7.89048087,10.0214172 8.54713143,10.7555035 8.39284233,12.2228026 L7.60567676,19.7145577 L11.1821759,19.7145577 Z M63.8683162,19.7095118 L64.6555788,12.2171744 C64.7976412,10.8627295 64.5043948,9.83306808 63.7741901,9.12760782 C63.0439854,8.42214755 61.9100089,8.06922335 60.3722608,8.06922335 C59.3279467,8.06922335 58.3569928,8.24573397 57.4592048,8.59865817 L58.0377404,3.095777 L54.4607561,3.095777 L52.7147662,19.7095118 L56.2917506,19.7095118 L57.2731845,10.3759911 C57.8618121,10.1364063 58.4742137,10.0162743 59.1091279,10.0162743 C60.57633,10.0162743 61.2332717,10.7498753 61.0793707,12.2171744 L60.2916229,19.7095118 L63.8683162,19.7095118 Z M73.5580603,11.534809 C73.5580603,11.534809 70.3383669,15.1566246 72.4517395,18.7785371 C72.4517395,18.7785371 74.3633719,16.6656497 73.5580603,11.534809 Z M72.5092825,0.0868482719 C72.5092825,0.0868482719 71.6290583,4.41412407 68.2169401,8.81243107 C64.8044338,13.2118055 65.8250708,17.5796428 70.4922678,19.8110127 C70.4922678,19.8110127 68.3478433,15.9353479 71.1108798,11.8855984 C73.8739163,7.83633413 73.7825073,6.78697411 73.484215,6.24172222 C73.484215,6.24172222 79.9616406,12.7370026 74.2438221,20.0866953 C74.2438221,20.0866953 87.0890211,13.4069472 72.5092825,0.0868482719 Z" id="Fill-7"></path>
                </g>
            </g>
        </g>
    </g>
</svg>