<?xml version="1.0" encoding="utf-8"?>
<!-- Generator: Adobe Illustrator 17.0.0, SVG Export Plug-In . SVG Version: 6.00 Build 0)  -->
<!DOCTYPE svg PUBLIC "-//W3C//DTD SVG 1.1//EN" "http://www.w3.org/Graphics/SVG/1.1/DTD/svg11.dtd">
<svg version="1.1" xmlns="http://www.w3.org/2000/svg" xmlns:xlink="http://www.w3.org/1999/xlink" x="0px" y="0px"
	 width="296.667px" height="306.667px" viewBox="0 0 296.667 306.667" enable-background="new 0 0 296.667 306.667"
	 xml:space="preserve">
<g id="Vrstva_1">
	<g>
		<g>
			<polygon fill="#FEF4C0" points="51.738,89.463 65.039,83.06 66.382,91.18 74.933,91.913 80.987,85.74 76.788,78.972 
				93.606,74.804 97.649,90.393 104.326,86.385 110.166,92.4 110.201,101.311 101.698,102.474 109.887,118.954 93.779,126.849 
				92.538,119.011 84.128,118.228 77.69,124.22 81.941,131.129 68.145,134.842 67.2,133.112 62.969,115.679 55.958,119.648 
				49.927,113.543 50.608,104.85 58.638,103.7 			"/>
			<polygon fill="#FEF4C0" points="156.045,38.958 145.481,45.32 143.732,38.672 136.563,38.729 132.009,44.334 136.029,49.636 
				122.367,54.413 117.789,41.763 112.548,45.617 107.222,41.069 106.499,33.661 113.48,32.031 105.385,18.963 118.167,11.141 
				119.809,17.563 126.865,17.56 131.752,12.074 127.679,6.659 138.863,2.496 139.783,3.861 144.661,18.03 150.182,14.183 
				155.675,18.791 155.785,26.073 149.197,27.655 			"/>
			<polygon fill="#FEF4C0" points="150.91,49.279 165.063,45.082 165.092,53.312 173.417,55.4 180.379,50.272 177.313,42.921 
				194.581,41.49 196.084,57.525 203.316,54.634 208.121,61.505 206.733,70.307 198.153,70.097 203.607,87.673 186.445,92.896 
				186.472,84.961 178.294,82.845 170.982,87.733 174.076,95.232 159.864,96.696 159.208,94.837 157.813,76.952 150.259,79.751 
				145.279,72.761 147.339,64.289 155.45,64.435 			"/>
			<polygon fill="#FEF4C0" points="32.223,212.386 35.463,221.613 30.019,221.901 28.909,227.477 32.53,231.916 37.293,229.647 
				38.805,241.025 28.245,242.544 30.394,247.235 26.006,250.639 20.136,250.008 19.994,244.324 8.544,248.508 4.526,237.324 
				9.778,237.082 10.91,231.602 7.437,226.924 2.576,229.216 1.143,219.861 2.351,219.366 14.139,217.858 12.04,212.952 
				16.502,209.428 22.175,210.514 22.343,215.885 			"/>
			<polygon fill="#FEF4C0" points="68.437,122.432 67.668,132.181 62.573,130.243 59.302,134.894 60.818,140.417 66.092,140.269 
				62.871,151.287 52.6,148.404 52.668,153.563 47.277,154.901 42.165,151.95 44.334,146.695 32.17,145.888 33.02,134.035 
				37.92,135.938 41.173,131.385 39.889,125.701 34.517,125.832 36.99,116.696 38.295,116.733 49.686,120.122 49.751,114.786 
				55.257,113.368 60.005,116.656 57.987,121.636 			"/>
		</g>
		<g>
			<defs>
				<polygon id="SVGID_1_" points="295.479,182.564 283.423,241.382 243.759,286.538 187.38,305.588 130.061,293.204 
					86.404,253.211 67.354,196.833 77.762,138.429 115.778,93.688 172.157,74.638 231.124,86.607 276.429,126.185 				"/>
			</defs>
			<clipPath id="SVGID_2_">
				<use xlink:href="#SVGID_1_"  overflow="visible"/>
			</clipPath>
			<rect x="64" y="48" clip-path="url(#SVGID_2_)" fill="#B0D49B" width="262" height="270"/>
			<polygon clip-path="url(#SVGID_2_)" fill="#9ED47D" points="93.735,150.054 149.169,129.542 208.046,281.78 132.126,284.549 			
				"/>
			
				<rect x="186.582" y="172.732" transform="matrix(0.9986 -0.0528 0.0528 0.9986 -10.903 12.3904)" clip-path="url(#SVGID_2_)" fill="#B0D49B" width="84.684" height="79.408"/>
			<polygon clip-path="url(#SVGID_2_)" fill="#ABC83C" points="103.272,160.951 93.735,150.054 101.059,146.658 99.512,138.383 
				92.091,134.276 86.794,140.019 78.448,125.212 92.126,117.307 86.588,112.045 90.745,104.948 99.16,102.582 102.486,110.316 
				115.919,98.258 127.602,111.417 120.518,114.642 121.98,122.798 129.331,127.314 134.749,121.487 141.872,133.556 
				140.484,134.901 125.113,143.467 130.701,149.055 126.509,156.356 118.113,157.988 114.923,150.699 			"/>
			<polygon clip-path="url(#SVGID_2_)" fill="#B0D49B" points="154.971,319.698 151.571,304.601 144.369,309.034 138.115,302.661 
				138.779,293.757 146.853,292.6 139.822,277.851 151.577,274.694 147.485,267.53 153.675,261.67 162.867,262.228 163.88,270.355 
				180.253,262.403 182.323,261.809 186.658,279.016 193.572,274.688 199.918,280.864 199.201,289.624 190.891,291.03 
				197.5,304.626 195.785,305.744 177.267,310.069 181.936,317.022 175.655,323.079 166.568,322.808 165.411,314.734 			"/>
			<polygon clip-path="url(#SVGID_2_)" fill="#ABC83C" points="81.645,246.607 94.937,240.185 96.291,248.303 104.843,249.024 
				110.889,242.843 106.679,236.081 123.492,231.889 127.557,247.472 134.229,243.455 140.077,249.462 140.124,258.373 
				131.623,259.547 139.835,276.016 123.738,283.934 122.487,276.098 114.075,275.326 107.645,281.328 111.906,288.23 
				98.115,291.963 97.169,290.234 92.913,272.807 85.908,276.786 79.867,270.689 80.537,261.996 88.565,260.834 			"/>
			<polygon clip-path="url(#SVGID_2_)" fill="#35A648" points="110.496,332.865 104.419,319.721 112.404,318.529 113.253,310.153 
				107.291,304.12 100.589,308.136 96.757,291.577 112.108,287.85 108.279,281.239 114.268,275.603 123.009,275.705 
				124.019,284.063 140.307,276.282 147.806,292.201 140.099,293.298 139.203,301.535 144.982,307.941 151.823,303.877 
				155.255,317.465 153.543,318.365 136.381,322.249 140.166,329.186 134.086,335.009 125.571,334.207 124.565,326.314 			"/>
			<polygon clip-path="url(#SVGID_2_)" fill="#35A648" points="125.762,233.256 122.362,218.159 115.16,222.592 108.906,216.219 
				109.57,207.315 117.644,206.158 110.613,191.409 122.368,188.252 118.276,181.088 124.466,175.228 133.658,175.787 
				134.671,183.914 151.044,175.962 153.114,175.367 157.449,192.574 164.363,188.246 170.709,194.422 169.992,203.182 
				161.682,204.588 168.291,218.185 166.576,219.303 148.058,223.627 152.727,230.58 146.445,236.637 137.359,236.367 
				136.202,228.292 			"/>
			<polygon clip-path="url(#SVGID_2_)" fill="#B0D49B" points="52.468,161.445 65.76,155.024 67.114,163.142 75.666,163.862 
				81.712,157.681 77.503,150.919 94.315,146.727 98.38,162.31 105.052,158.293 110.9,164.3 110.948,173.211 102.446,174.386 
				110.658,190.854 94.561,198.772 93.31,190.936 84.899,190.164 78.469,196.166 82.729,203.069 68.938,206.801 67.992,205.073 
				63.736,187.646 56.731,191.624 50.69,185.527 51.36,176.834 59.388,175.673 			"/>
			<polygon clip-path="url(#SVGID_2_)" fill="#ABC83C" points="81.32,247.704 75.243,234.56 83.227,233.367 84.076,224.991 
				78.114,218.959 71.412,222.975 67.58,206.416 82.931,202.688 79.102,196.078 85.091,190.441 93.832,190.543 94.842,198.901 
				111.131,191.12 118.629,207.04 110.923,208.137 110.026,216.373 115.806,222.78 122.647,218.716 126.078,232.303 
				124.367,233.203 107.204,237.088 110.99,244.024 104.909,249.847 96.395,249.046 95.389,241.153 			"/>
			<polygon clip-path="url(#SVGID_2_)" fill="#35A648" points="242.375,289.514 238.975,274.416 231.773,278.849 225.519,272.476 
				226.183,263.573 234.257,262.416 227.226,247.666 238.981,244.509 234.889,237.346 241.078,231.485 250.271,232.044 
				251.283,240.171 267.656,232.219 269.727,231.625 274.062,248.831 280.976,244.504 287.321,250.679 286.604,259.439 
				278.295,260.846 284.904,274.442 283.189,275.56 264.671,279.884 269.339,286.837 263.058,292.894 253.971,292.624 
				252.815,284.55 			"/>
			<polygon clip-path="url(#SVGID_2_)" fill="#35A648" points="167.8,217.735 181.093,211.314 182.446,219.431 190.999,220.152 
				197.044,213.971 192.835,207.209 209.648,203.017 213.712,218.6 220.384,214.583 226.233,220.59 226.28,229.501 217.778,230.675 
				225.991,247.144 209.894,255.062 208.642,247.226 200.231,246.454 193.801,252.456 198.061,259.359 184.271,263.091 
				183.324,261.362 179.068,243.935 172.063,247.914 166.023,241.817 166.692,233.124 174.72,231.962 			"/>
			<polygon clip-path="url(#SVGID_2_)" fill="#B0D49B" points="211.918,204.384 208.518,189.287 201.316,193.72 195.062,187.347 
				195.726,178.443 203.8,177.287 196.769,162.537 208.523,159.38 204.431,152.216 210.621,146.356 219.814,146.915 
				220.826,155.042 237.199,147.09 239.27,146.496 243.605,163.702 250.519,159.375 256.864,165.55 256.147,174.31 247.838,175.717 
				254.447,189.313 252.732,190.431 234.214,194.755 238.882,201.708 232.601,207.765 223.514,207.495 222.358,199.421 			"/>
			<polygon clip-path="url(#SVGID_2_)" fill="#B0D49B" points="138.697,131.607 151.99,125.186 153.343,133.304 161.896,134.025 
				167.941,127.843 163.732,121.081 180.545,116.889 184.609,132.473 191.281,128.455 197.13,134.463 197.177,143.374 
				188.675,144.548 196.888,161.016 180.791,168.935 179.539,161.098 171.128,160.327 164.698,166.328 168.959,173.231 
				155.168,176.964 154.221,175.235 149.965,157.808 142.96,161.787 136.92,155.69 137.589,146.996 145.618,145.835 			"/>
			<polygon clip-path="url(#SVGID_2_)" fill="#ABC83C" points="167.443,217.552 161.366,204.408 169.35,203.215 170.199,194.839 
				164.237,188.807 157.535,192.823 153.703,176.264 169.055,172.536 165.225,165.925 171.214,160.289 179.955,160.391 
				180.965,168.749 197.254,160.968 204.752,176.887 197.046,177.984 196.149,186.221 201.929,192.627 208.77,188.564 
				212.201,202.151 210.49,203.051 193.327,206.935 197.113,213.872 191.033,219.695 182.518,218.894 181.512,211.001 			"/>
			<polygon clip-path="url(#SVGID_2_)" fill="#9ED47D" points="253.743,188.235 267.036,181.813 268.389,189.931 276.942,190.652 
				282.987,184.47 278.778,177.709 295.591,173.516 299.655,189.1 306.327,185.082 312.176,191.09 312.223,200.001 303.721,201.175 
				311.934,217.644 295.837,225.562 294.585,217.726 286.174,216.954 279.744,222.956 284.005,229.858 270.214,233.591 
				269.267,231.862 265.011,214.435 258.006,218.414 251.966,212.317 252.635,203.624 260.664,202.462 			"/>
			<polygon clip-path="url(#SVGID_2_)" fill="#B0D49B" points="282.595,274.493 276.518,261.349 284.502,260.157 285.351,251.781 
				279.389,245.748 272.687,249.764 268.855,233.205 284.207,229.478 280.378,222.867 286.367,217.231 295.107,217.332 
				296.118,225.69 312.406,217.91 319.905,233.829 312.198,234.926 311.301,243.163 317.081,249.569 323.922,245.505 
				327.354,259.093 325.642,259.993 308.479,263.877 312.265,270.814 306.185,276.637 297.67,275.835 296.664,267.942 			"/>
			<polygon clip-path="url(#SVGID_2_)" fill="#ABC83C" points="253.418,189.332 247.341,176.188 255.326,174.995 256.175,166.619 
				250.213,160.587 243.511,164.603 239.679,148.044 255.03,144.316 251.201,137.705 257.19,132.069 265.931,132.171 
				266.941,140.529 283.229,132.748 290.728,148.667 283.022,149.764 282.125,158.001 287.904,164.407 294.745,160.344 
				298.177,173.931 296.465,174.831 279.303,178.715 283.088,185.652 277.008,191.475 268.493,190.674 267.487,182.781 			"/>
			<polygon clip-path="url(#SVGID_2_)" fill="#B0D49B" points="196.462,304.511 190.265,291.106 198.408,289.889 199.273,281.347 
				193.193,275.195 186.358,279.29 182.45,262.402 198.106,258.601 194.201,251.859 200.309,246.111 209.223,246.214 
				210.253,254.738 226.866,246.803 234.513,263.039 226.654,264.157 225.739,272.558 231.633,279.091 238.61,274.947 
				242.11,288.804 240.365,289.722 222.861,293.684 226.722,300.758 220.521,306.697 211.837,305.88 210.811,297.83 			"/>
			<polygon clip-path="url(#SVGID_2_)" fill="#35A648" points="234.24,130.772 228.897,116.248 222.335,121.583 215.303,116.082 
				214.798,107.168 222.652,104.966 213.755,91.262 224.996,86.596 220.004,80.029 225.375,73.41 234.561,72.763 236.627,80.688 
				251.821,70.666 253.796,69.806 260.342,86.299 266.631,81.106 273.729,86.4 274.162,95.178 266.107,97.658 274.436,110.275 
				272.881,111.607 255.087,118.313 260.624,124.596 255.187,131.422 246.143,132.341 243.942,124.487 			"/>
			<polygon clip-path="url(#SVGID_2_)" fill="#ABC83C" points="174.763,93.727 185.586,83.688 189.262,91.051 197.649,89.231 
				201.616,81.548 195.607,76.319 210.45,67.378 218.908,81.083 224.108,75.285 231.461,79.312 234.121,87.817 226.338,91.434 
				239.021,104.768 225.956,117.061 222.46,109.936 214.193,111.666 209.807,119.291 215.905,124.64 203.816,132.254 
				202.404,130.879 193.222,115.468 187.693,121.327 180.13,117.27 178.219,108.764 185.553,105.298 			"/>
		</g>
	</g>
</g>
<g id="Vrstva_2" display="none">
	<polygon display="inline" fill="none" stroke="#FF2EFF" stroke-miterlimit="10" points="-6066.689,663.739 -6031.498,668.314 
		-6035.369,649.311 -6016.717,640.865 -5998.066,649.311 -6001.937,667.61 -5964.634,664.091 -5967.097,691.892 -5948.446,688.725 
		-5940.704,706.673 -5949.15,726.028 -5967.449,721.805 -5963.227,763.331 -5963.578,768.258 -6004.048,764.035 -6000.177,782.334 
		-6018.477,791.132 -6036.776,782.686 -6033.257,763.683 -6067.745,767.202 -6068.801,762.627 -6063.522,719.342 -6082.173,723.917 
		-6090.268,705.617 -6082.525,686.262 -6064.226,690.133 	"/>
	<polygon display="inline" fill="none" stroke="#FF2E27" stroke-miterlimit="10" points="-6067.745,767.202 -6033.257,763.683 
		-6036.776,782.686 -6018.477,791.132 -6000.177,782.334 -6004.048,764.035 -5963.578,768.258 -5967.097,805.913 -5949.15,802.394 
		-5941.056,820.341 -5948.094,840.048 -5967.801,835.825 -5962.875,878.759 -6004.752,883.334 -6001.233,865.034 -6019.181,856.588 
		-6038.184,864.682 -6034.313,883.334 -6067.745,880.519 -6068.449,875.944 -6063.874,834.066 -6082.525,837.233 -6090.971,818.934 
		-6082.525,800.282 -6063.874,804.153 	"/>
	<polygon display="inline" fill="none" stroke="#FF2E27" stroke-miterlimit="10" points="-5849.707,663.777 -5846.188,698.265 
		-5865.191,694.745 -5873.637,713.045 -5864.839,731.345 -5846.54,727.474 -5850.763,767.944 -5888.418,764.425 -5884.898,782.372 
		-5902.846,790.466 -5922.554,783.428 -5918.331,763.721 -5961.264,768.648 -5965.839,726.77 -5947.54,730.289 -5939.093,712.341 
		-5947.188,693.338 -5965.839,697.209 -5963.023,663.777 -5958.449,663.073 -5916.571,667.648 -5919.738,648.997 -5901.438,640.551 
		-5882.787,648.997 -5886.658,667.648 	"/>
</g>
</svg>
