<?xml version="1.0" encoding="utf-8"?>
<!-- Generator: Adobe Illustrator 17.0.0, SVG Export Plug-In . SVG Version: 6.00 Build 0)  -->
<!DOCTYPE svg PUBLIC "-//W3C//DTD SVG 1.1//EN" "http://www.w3.org/Graphics/SVG/1.1/DTD/svg11.dtd">
<svg version="1.1" xmlns="http://www.w3.org/2000/svg" xmlns:xlink="http://www.w3.org/1999/xlink" x="0px" y="0px" width="466px"
	 height="256.667px" viewBox="0 0 466 256.667" enable-background="new 0 0 466 256.667" xml:space="preserve">
<g id="Vrstva_1">
	<polygon fill="#35A648" points="121.633,138.158 209.73,144.958 268.203,159.339 333.713,153.447 349.713,171.447 314.125,231.664 
		197.925,233.978 93.799,204.519 	"/>
	
		<rect x="281.932" y="139.899" transform="matrix(-0.9915 -0.1302 0.1302 -0.9915 543.0105 351.9522)" fill="#4C1202" width="2.155" height="36.654"/>
	<path fill="#B0D49B" d="M198.494,110.497l4.432,8.126l5.536,11.355l4.92,11.798l1.104,11.173l1.538,7.869l-0.59,3.604l-3.05,2.001
		l-5.298-0.87l-1.483-0.242l-2.078,2.053l-7.115-0.406l-5.708-1.698l-2.772-0.999c0,0-2.209-0.472-2.739-0.559
		c-0.53-0.087-7.349-1.64-7.349-1.64l-6.748-1.326c0,0-4.784-0.676-5.209-0.746c-0.424-0.069-6.038-0.99-6.038-0.99l-2.457-1.6
		l-0.804-3.072l1.054-2.438l3.311-2.939l1.988-2.175l2.013-0.323l9.431,0.895l4.643,0.871l5.017,1.258l3.307,1.739
		c0,0,1.2-0.02,0.863-0.62c-0.338-0.6-2.109-3.067-2.109-3.067l-1.687-2.997l-0.908-3.741c0,0-1.407-4.692-1.529-4.602
		c-0.124,0.088-1.313-2.611-1.313-2.611l-1.426-4.585l-0.769-3.936l-0.36-3.106l1.206-4.699l3.009-3.75c0,0,2.039-3.799,2.443-4.278
		c0.403-0.479,3.88-1.758,3.88-1.758l6.463,1.061L198.494,110.497z"/>
	<path fill="#FACDB1" d="M269.116,120.453l1.078,0.721l0.286,1.569l-2.198,2.796l-1.161,1.768l-0.366,2.225l-1.058,0.479
		l-1.377-0.225l-0.951,1.15l-1.393,0.533l-0.175,1.06l-1.676,0.269l-0.156,0.953l-1.906,0.341l-1.751-1.267l-1.505-2.096
		l-2.494-1.389l-2.262-1.459l-5.473,0.842l-3.629-4.403l0.042-4.237c0,0,3.84-4.158,4.174-4.213
		c0.335-0.054,9.545-1.807,10.182-1.703c0.636,0.105,9.22,2.819,9.22,2.819L269.116,120.453z"/>
	<polygon fill="#FACDB1" points="251.198,156.034 263.152,164.09 268.56,166.936 269.621,167.11 272.55,166.502 273.837,166.604 
		277.019,167.779 279.368,168.71 279.938,170.543 282.13,171.775 283.122,173.026 282.913,174.296 282.722,175.462 283.114,176.396 
		280.145,175.91 276.828,176.236 273.95,176.527 271.178,175.526 267.196,171.935 253.926,167.254 244.754,162.812 242.803,159.446 
			"/>
	<path fill="#FEF4C0" d="M268.446,121.214l0.82,3.072l1.977-0.22l1.332-3.481l0.451-2.754l-1.915-3.579c0,0-1.009-1.799-1.17-2.152
		c-0.16-0.351-2.002-3.048-2.251-3.525c-0.249-0.476-2.494-2.041-2.494-2.041s-2.58-1.51-3.005-1.581
		c-0.424-0.07-3.657-0.6-3.657-0.6l-2.275,0.933l-2.132,1.065c0,0-1.99,1.523-2.272,1.912c-0.281,0.39-1.691,1.681-1.691,1.681
		l-0.953,0.497l-1.589-0.261l-1.413-0.667l-1.89-0.42l-1.606,0.499c0,0-0.848-0.141-1.472,1.009
		c-0.623,1.149-2.049,2.548-2.049,2.548l2.068,1.319l0.532,0.739l2.529,2.484c0,0,2.19,0.576,2.508,0.628
		c0.32,0.053,5.479,1.77,5.479,1.77l1.817-0.463l1.324-0.109l0.565,0.201l0.707,0.661l-0.314,1.254l-0.368,0.918l0.957,0.81
		l0.952,0.157l2.226,0.365l1.906-0.34l3.529-0.291l0.736-1.839L268.446,121.214z"/>
	<polygon fill="#FACDB1" points="257.679,151.809 258.892,154.903 260.35,159.93 261.907,163.251 260.77,165.332 255.126,160.596 
		251.291,156.816 249.711,150.502 	"/>
	<path fill="#ABC83C" d="M250.981,154.693l2.968,0.487l3.119-1.773l0.81-0.956l-3.774-12.153l-0.525-5.745l-0.062-3.276l0.192-1.16
		l-3.66-2.238l-5.469,0.843l-1.659-2.012l0.434-2.651l0.261-1.587l-1.265-2.059l0.435-2.648l0.95-1.802l-4.189-2.588l0.919-1.649
		l1.283-1.78l0.963-0.354l-8.567-2.168l-5.616-0.921l-6.783-1.766l-7.841-1.286l-11.004,1.404l-10.684,1.457l-2.345,1.683
		l-0.418,2.544l0.227,2.595l2.652,5.059l5.556,4.611l3.343,2.834l7.231,4.341l4.592,0.538l5.583,1.785l4.646,1.524l5.579-0.173
		l1.589,0.26l1.215,5.858l1.944,7.392l0.947,4.836l1.456,3.068l1.95,2.713l1.927,1.513l2.34,3.65l4.303-1.689l3.733-3.521
		l1.485-1.326l-5.614-4.686l-1.439-3.826l0.399-2.436l-1.968-4.568l-0.332-4.625l-1.009-1.798c0,0-0.09-0.775-0.092-1.43
		c-0.001-0.653,0.047-1.624,0.047-1.624l2.631-0.111l0.861,4.711l0.682,4.465l-0.487,2.966l1.399,2.081l0.729,2.186l-0.26,1.59
		l1.79,3.013L250.981,154.693z"/>
	<circle fill="#ABC83C" cx="285.47" cy="138.02" r="11.611"/>
	<polyline fill="#FEF4C0" points="164.953,146.453 163.005,146.225 154.421,145.221 148.077,160.163 157.963,164.967 159.849,159 
		156.588,154.329 	"/>
	<polygon fill="none" points="164.298,89.59 204.885,84.843 199.403,93.72 221.118,103.357 242.534,92.67 239.318,84.75 
		287.092,89.025 282.074,124.465 304.69,129.008 314.542,150.021 306.589,173.371 283.288,168.736 289.84,219.254 240.561,225.374 
		244.391,203.744 223.09,194.101 200.832,203.971 205.719,225.887 166.266,223.149 165.357,217.769 170.022,168.331 
		148.093,172.388 137.821,150.966 147.451,128.836 169.502,133.074 	"/>
	<g>
		<defs>
			<polygon id="SVGID_1_" points="208.019,28.126 175.371,129.142 150.24,124.527 139.11,148.737 150.162,171.475 174.963,167.759 
				166.927,223.121 119.67,216.694 124.358,240.416 100.646,251.152 74.577,241.886 80.122,215.823 23.369,222.421 0.128,193.149 
				21.098,148.773 -4.414,111.226 -0.445,53.367 47.255,8.627 102.099,-4.163 164.255,8.65 			"/>
		</defs>
		<clipPath id="SVGID_2_">
			<use xlink:href="#SVGID_1_"  overflow="visible"/>
		</clipPath>
		<polygon clip-path="url(#SVGID_2_)" fill="#ABC83C" points="155.028,138.818 -39.446,155.856 9.857,227.738 110.046,288.145 
			260.072,192.695 		"/>
		<g clip-path="url(#SVGID_2_)">
			<g>
				<polygon fill="#35A648" points="106.581,145.818 118.595,153.074 123.391,158.704 129.206,157.033 124.123,144.541 
					120.204,141.514 121.914,133.689 112.703,133.027 106.55,137.132 				"/>
				<polygon fill="#FACDB1" points="37.744,71.343 43.607,80.379 40.673,88.966 21.753,86.337 16.405,85.149 11.614,86.069 
					5.724,80.859 2.122,76.431 4.455,71.476 14.955,74.424 18.18,78.083 33.093,79.343 				"/>
				<polygon fill="#35A648" points="28.227,173.926 20.398,181.638 12.813,182.94 13.152,189.548 26.55,190.231 36.29,186.42 
					43.693,183.756 40.462,174.212 				"/>
				<polygon fill="#9ED47D" points="47.897,89.767 84.959,95.29 90.838,114.178 88.14,137.274 106.615,134.5 110.001,149.288 
					87.243,153.196 72.13,148.032 63.784,121.162 43.448,138.881 43.553,176.567 22.767,176.605 21.757,130.17 44.874,104.313 				
					"/>
				<polygon fill="#FACDB1" points="90.464,48.485 93.979,58.64 101.324,54.159 116.361,31.897 123.954,31.611 129.581,25.449 
					126.438,21.587 126.902,18.483 124.387,17.013 121.74,21.541 115.865,23.507 101.253,39.267 				"/>
				<polygon fill="#35A648" points="61.221,48.879 48.374,52.278 36.557,73.558 45.969,87.81 47.257,97.338 76.351,103.385 
					84.363,97.035 83.987,69.642 93.926,65.248 100.775,58.501 91.733,46.972 77.922,49.393 				"/>
				<polygon fill="#FACDB1" points="47.921,45.843 52.929,55.007 62.174,61.073 69.458,55.567 71.288,49.421 72.588,40.722 
					64.868,33.452 55.656,31.817 47.182,38.011 				"/>
				<polygon fill="#ABC83C" points="54.484,34.721 49.927,40.547 46.38,44.833 44.277,36.84 51.017,26.568 58.673,24.979 
					70.452,28.301 73.421,38.331 73.277,41.91 66.296,42.472 				"/>
				<g>
					<polygon fill="#4C1202" points="83.66,2.938 132.762,28.839 128.581,30.989 95.496,13.074 79.335,5.739 					"/>
					<polygon fill="#4C1202" points="92.259,9.329 95.279,1.298 98.168,2.125 94.608,9.52 					"/>
					<polygon fill="#4C1202" points="100.734,14.159 87.92,19.026 92.523,20.584 103.614,14.092 					"/>
				</g>
			</g>
			<polygon fill="#B72D0D" points="57.003,181.935 38.005,181.375 32.193,186.907 41.205,189.054 50.465,186.046 67.795,192.501 
				90.814,196.003 100.374,194.993 105.723,203.356 119.428,202.71 122.384,215.548 127.772,210.595 127.688,199.86 123.64,193.338 
				129.998,184.648 147.095,179.368 145.835,164.214 133.374,159.543 138.573,166.905 137.752,171.642 130.066,174.913 
				118.604,170.083 92.166,167.637 79.225,156.389 89.786,155.22 84.587,147.858 89.578,147.063 76.817,140.393 67.927,135.666 
				65.384,139.142 56.068,134.995 56.122,142.15 62.443,146.775 57.752,149.57 66.068,153.876 59.765,169.723 44.487,170.107 
				30.727,163.596 32.506,172.014 45.814,175.526 56.251,176.937 			"/>
		</g>
	</g>
	<g>
		<defs>
			<polygon id="SVGID_3_" points="463.007,101.862 464.322,192.727 464.697,227.652 400.66,223.647 405.419,245.215 
				383.981,255.497 359.989,247.561 364.526,223.648 312.833,230.818 306.118,180.389 328.311,184.117 337.542,162.021 
				326.439,139.784 305.277,144.701 307.724,104.258 313.227,103.278 333.996,82.356 341.281,24.713 374.654,-6.771 441.31,-3.078 
				457.935,59.144 			"/>
		</defs>
		<clipPath id="SVGID_4_">
			<use xlink:href="#SVGID_3_"  overflow="visible"/>
		</clipPath>
		<path clip-path="url(#SVGID_4_)" fill="#9ED47D" d="M250.666,146.818l69.719,3.513l183.727,48.731c0,0,0.332,8.036,1.075,14.969
			c0.742,6.934-125.375,73.022-125.375,73.022l-82.97-45.482L250.666,146.818z"/>
		<g clip-path="url(#SVGID_4_)">
			<polygon fill="#FFFFFF" points="353.358,192.486 348.959,201.306 354.477,207.213 359.45,201.339 362.966,195.093 
				359.777,189.929 			"/>
			<polygon fill="#FFFFFF" points="373.625,193.156 375.238,201.73 381.229,207.966 384.733,203.562 385.307,196.986 
				378.727,188.563 			"/>
			<polygon fill="#35A648" points="350.165,111.602 349.884,141.677 352.011,167.451 353.034,193.221 358.545,196.551 
				365.917,193.262 366.064,146.882 368.208,167.134 370.703,192.909 379.528,195.882 384.705,188.536 382.891,180.064 
				382.239,153.559 383.798,126.325 383.721,110.98 			"/>
			<polygon fill="#35A648" points="422.737,109.87 427.588,126.883 436.617,181.758 432.904,191.685 423.717,186.87 416.43,163.289 
				410.616,139.344 407.294,142.278 406.124,162.888 409.763,176.151 413.031,190.517 404.924,193.068 399.041,191.209 
				395.41,175.37 390.377,137.44 391.897,122.352 392.071,107.008 			"/>
			<polygon fill="#ABC83C" points="385.511,67.885 405.586,57.927 425.616,62.375 426.817,78.664 421.773,106.936 425.062,114.676 
				404.428,120.869 386.406,116.394 388.547,97.96 387.836,76.09 			"/>
			<polygon fill="#35A648" points="347.15,74.962 367.232,62.735 387.258,68.176 388.448,88.153 380.851,113.48 375.826,118.073 
				365.168,121.112 354.525,119.542 350.164,111.846 349.468,85.024 			"/>
			<polygon fill="#FACDB1" points="371.047,47.618 378.318,49.692 382.16,61.316 377.811,71.872 368.862,79.246 361.89,70.217 
				361.931,57.249 365.235,49.584 			"/>
			<polyline fill="#FACDB1" points="404.734,43.389 411.579,44.64 416.198,55.101 413.227,65.335 405.445,73.066 397.91,65.343 
				396.714,53.267 399.307,45.793 404.734,43.389 			"/>
			<polyline fill="#ABC83C" points="411.568,40.603 415.238,45.126 416.088,53.707 410.549,48.257 400.283,50.607 395.131,55.227 
				396.149,43.073 			"/>
			<polyline fill="#ABC83C" points="367.428,42.223 380.683,45.36 384.179,58.638 381.562,79.856 378.81,74.098 378.848,61.937 
				375.018,51.533 362.124,56.863 363.138,67.617 362.46,78.468 360.7,73.598 357.207,59.44 360.776,47.95 367.428,42.223 			"/>
			<polygon fill="#FFF8EE" points="355.335,108.933 353.05,118.506 358.084,130.638 376.655,138.869 400.888,138.946 
				415.572,129.13 419.55,118.717 415.05,109.376 			"/>
			<polygon fill="#B72D0D" points="366.19,89.509 368.08,85.56 372.562,85.683 375.551,82.497 379.938,83.489 382.66,81.186 
				387.678,83.498 391.565,80.75 395.277,83.864 398.631,82.882 401.751,87.08 404.697,87.338 409.005,93.324 412.877,100.208 
				415.05,109.305 414.208,115.398 414.855,116.89 411.237,122.71 407.728,123.878 404.97,127.731 399.131,129.791 397.091,132.034 
				391.229,131.859 383.719,132.518 380.186,131.451 375.844,130.972 372.251,129.223 369.415,128.268 367.76,127.037 
				364.768,126.267 360.669,122.671 357.735,118.628 355.795,114.155 355.925,107.78 357.656,100.061 362.118,92.102 			"/>
			<polygon fill="#4C1202" points="379.823,99.838 372.064,105.505 368.114,113.419 369.415,128.268 373.646,129.445 
				374.542,125.927 377.87,108.952 381.227,102.122 			"/>
			<path fill="#4C1202" d="M385.88,102.23l1.871,1.728l-2.196,12.232l1.389,2.114l3.678-14.941l3.219-2.518l5.117,5.399l2.802,6.462
				l-2.583-11.813l-1.108-2.827l4.674-1.614l2.458,2.536l3.048,7.3l-0.784-6.983l-4.198-6.684l-0.641-3.384l6.378,4.085l4.281,9.6
				l1.847,9.297l-0.925,3.177l0.647,1.491l-3.618,5.821l-3.509,1.168l-2.758,3.853l-5.839,2.06l-2.039,2.243l-5.863-0.174
				l-7.51,0.658l-3.533-1.066c0,0-4.297,0.033-4.342-0.479c-0.045-0.512-0.553-6.315-0.553-6.315l5.867-15.477L385.88,102.23z"/>
			<polygon fill="#4C1202" points="378.358,90.851 383.625,88.153 393.161,89.037 397.143,95.224 389.717,98.798 380.321,97.558 
				377.061,93.716 			"/>
			<polygon fill="#FACDB1" points="425.986,82.588 427.599,91.814 428.976,97.861 412.129,119.478 406.314,126.075 398.853,119.287 
				399.599,112.961 407.916,112.774 418.545,96.727 417.073,87.494 			"/>
			<polygon fill="#FFFFFF" points="402.768,192.158 400.776,201.388 407.856,205.044 411.213,198.289 413.022,191.633 
				408.458,187.949 			"/>
			<polygon fill="#FFFFFF" points="426.7,189.872 430.359,197.737 437.231,202.751 439.139,198.075 437.916,191.777 
				429.955,184.783 			"/>
			<polygon fill="#FACDB1" points="347.15,74.962 342.567,87.381 337.07,103.738 354.259,114.649 359.008,120.297 365.417,113.985 
				363.1,111.718 364.099,107.724 357.044,108.734 349.67,99.22 354.399,80.683 			"/>
		</g>
	</g>
</g>
<g id="Vrstva_2" display="none">
	<polygon display="inline" fill="none" stroke="#FF2EFF" stroke-miterlimit="10" points="-6034.689,683.739 -5999.498,688.314 
		-6003.369,669.311 -5984.717,660.865 -5966.066,669.311 -5969.937,687.61 -5932.634,684.091 -5935.097,711.892 -5916.446,708.725 
		-5908.704,726.673 -5917.15,746.028 -5935.449,741.805 -5931.227,783.331 -5931.578,788.258 -5972.048,784.035 -5968.177,802.334 
		-5986.477,811.132 -6004.776,802.686 -6001.257,783.683 -6035.745,787.202 -6036.801,782.627 -6031.522,739.342 -6050.173,743.917 
		-6058.268,725.617 -6050.525,706.262 -6032.226,710.133 	"/>
	<polygon display="inline" fill="none" stroke="#FF2E27" stroke-miterlimit="10" points="-6035.745,787.202 -6001.257,783.683 
		-6004.776,802.686 -5986.477,811.132 -5968.177,802.334 -5972.048,784.035 -5931.578,788.258 -5935.097,825.913 -5917.15,822.394 
		-5909.056,840.341 -5916.094,860.048 -5935.801,855.825 -5930.875,898.759 -5972.752,903.334 -5969.233,885.034 -5987.181,876.588 
		-6006.184,884.682 -6002.313,903.334 -6035.745,900.519 -6036.449,895.944 -6031.874,854.066 -6050.525,857.233 -6058.971,838.934 
		-6050.525,820.282 -6031.874,824.153 	"/>
	<polygon display="inline" fill="none" stroke="#FF2E27" stroke-miterlimit="10" points="-5817.707,683.777 -5814.188,718.265 
		-5833.191,714.745 -5841.637,733.045 -5832.839,751.345 -5814.54,747.474 -5818.763,787.944 -5856.418,784.425 -5852.898,802.372 
		-5870.846,810.466 -5890.554,803.428 -5886.331,783.721 -5929.264,788.648 -5933.839,746.77 -5915.54,750.289 -5907.093,732.341 
		-5915.188,713.338 -5933.839,717.209 -5931.023,683.777 -5926.449,683.073 -5884.571,687.648 -5887.738,668.997 -5869.438,660.551 
		-5850.787,668.997 -5854.658,687.648 	"/>
</g>
</svg>
