<?xml version="1.0" encoding="utf-8"?>
<!-- Generator: Adobe Illustrator 16.0.0, SVG Export Plug-In . SVG Version: 6.00 Build 0)  -->
<!DOCTYPE svg PUBLIC "-//W3C//DTD SVG 1.1//EN" "http://www.w3.org/Graphics/SVG/1.1/DTD/svg11.dtd">
<svg version="1.1" id="Vrstva_1" xmlns="http://www.w3.org/2000/svg" xmlns:xlink="http://www.w3.org/1999/xlink" x="0px" y="0px"
	 width="156.771px" height="168.363px" viewBox="79.489 55.899 156.771 168.363"
	 enable-background="new 79.489 55.899 156.771 168.363" xml:space="preserve">
<g>
	<g>
		<path fill="#71C2BA" d="M175.711,97.669c0.232-1.79,1.016-3.098,2.09-3.226c1.498-0.179,2.99,2.007,3.332,4.881
			c0.344,2.875-0.592,5.352-2.09,5.529c-1.496,0.179-2.988-2.007-3.332-4.882C175.613,99.159,175.619,98.375,175.711,97.669z"/>
		<path fill="#71C2BA" d="M172.664,103.925c-1.58-0.868-2.512-2.076-2.24-3.123c0.381-1.459,2.959-2.051,5.76-1.321
			c2.803,0.729,4.768,2.503,4.387,3.961c-0.379,1.461-2.959,2.053-5.76,1.323C174.018,104.558,173.289,104.269,172.664,103.925z"/>
		<path fill="#FBCB4C" d="M178.025,99.403c1.602-0.831,3.125-0.935,3.842-0.126c1.002,1.127,0.061,3.601-2.105,5.523
			c-2.164,1.923-4.73,2.567-5.732,1.44c-1-1.128-0.059-3.601,2.105-5.523C176.748,100.174,177.395,99.731,178.025,99.403z"/>
		<polygon fill="#19160C" points="179.313,100.011 180.25,100.987 180.82,102.772 180.748,103.782 181.57,102.654 181.205,101.114 
			180.559,100.016 179.625,99.255 178.809,98.979 177.859,99.496 		"/>
		<polygon fill="#19160C" points="177.508,101.43 178.27,102.279 179.076,103.997 179.381,105.163 180.113,104.433 179.463,102.338 
			178.814,101.242 177.881,100.481 176.963,100.009 176.117,100.721 		"/>
		<polygon fill="#19160C" points="175.631,103.292 176.498,103.923 177.16,105.203 177.463,106.262 178.391,105.809 
			177.758,104.113 177.109,103.015 176.176,102.254 175.213,101.589 174.611,102.466 		"/>
	</g>
	<g>
		<path fill="#71C2BA" d="M207.541,94.306c1.115-1.418,2.461-2.14,3.447-1.701c1.379,0.614,1.541,3.255,0.363,5.9
			c-1.178,2.645-3.248,4.292-4.625,3.68c-1.377-0.614-1.541-3.255-0.363-5.9C206.695,95.536,207.102,94.867,207.541,94.306z"/>
		<path fill="#71C2BA" d="M201.723,98.123c-0.914-1.558-1.096-3.071-0.326-3.831c1.074-1.06,3.592-0.247,5.625,1.813
			c2.033,2.062,2.813,4.591,1.738,5.648c-1.072,1.06-3.592,0.248-5.625-1.813C202.561,99.357,202.084,98.736,201.723,98.123z"/>
		<path fill="#FBCB4C" d="M208.643,96.98c1.801,0.106,3.162,0.797,3.365,1.859c0.283,1.481-1.793,3.122-4.637,3.666
			c-2.842,0.544-5.377-0.217-5.66-1.696c-0.285-1.481,1.791-3.123,4.635-3.667C207.152,96.989,207.932,96.939,208.643,96.98z"/>
		<polygon fill="#19160C" points="209.438,98.163 209.742,99.48 209.318,101.306 208.738,102.136 210.023,101.588 210.5,100.079 
			210.504,98.804 210.092,97.673 209.533,97.017 208.451,96.975 		"/>
		<polygon fill="#19160C" points="207.16,98.458 207.379,99.576 207.193,101.465 206.859,102.622 207.861,102.37 208.373,100.238 
			208.379,98.964 207.967,97.833 207.42,96.957 206.328,97.135 		"/>
		<polygon fill="#19160C" points="204.596,99.094 205.016,100.083 204.93,101.519 204.648,102.584 205.676,102.671 206.002,100.888 
			206.006,99.614 205.594,98.484 205.105,97.418 204.141,97.865 		"/>
	</g>
	<g>
		<path fill="#71C2BA" d="M205.408,80.96c1.779,0.313,3.049,1.155,3.129,2.234c0.111,1.503-2.141,2.896-5.027,3.108
			s-5.316-0.833-5.43-2.336c-0.111-1.505,2.141-2.896,5.029-3.11C203.926,80.797,204.707,80.837,205.408,80.96z"/>
		<path fill="#71C2BA" d="M199.297,77.636c0.938-1.541,2.186-2.417,3.221-2.098c1.439,0.445,1.916,3.048,1.061,5.813
			c-0.855,2.767-2.715,4.648-4.154,4.203c-1.441-0.445-1.916-3.048-1.063-5.814C198.604,78.958,198.924,78.245,199.297,77.636z"/>
		<path fill="#FBCB4C" d="M203.574,83.195c0.758,1.637,0.791,3.163-0.049,3.844c-1.17,0.95-3.6-0.103-5.422-2.352
			c-1.824-2.249-2.354-4.842-1.182-5.791c1.172-0.951,3.6,0.102,5.422,2.351C202.859,81.884,203.273,82.547,203.574,83.195z"/>
		<polygon fill="#19160C" points="202.906,84.455 201.891,85.345 200.082,85.834 199.076,85.717 200.166,86.589 201.721,86.295 
			202.846,85.698 203.648,84.799 203.961,83.996 203.486,83.025 		"/>
		<polygon fill="#19160C" points="201.57,82.585 200.689,83.308 198.936,84.038 197.76,84.291 198.453,85.053 200.574,84.498 
			201.701,83.9 202.502,83.002 203.016,82.106 202.342,81.227 		"/>
		<polygon fill="#19160C" points="199.797,80.627 199.125,81.465 197.816,82.068 196.746,82.324 197.156,83.272 198.881,82.713 
			200.006,82.117 200.809,81.218 201.516,80.285 200.666,79.646 		"/>
	</g>
	<g>
		<path fill="#71C2BA" d="M234.725,101.187c1.154,1.387,1.58,2.853,0.943,3.727c-0.889,1.219-3.504,0.826-5.846-0.876
			c-2.34-1.704-3.52-4.074-2.633-5.293c0.889-1.22,3.506-0.827,5.846,0.876C233.699,100.103,234.268,100.639,234.725,101.187z"/>
		<path fill="#71C2BA" d="M232.209,94.7c1.713-0.569,3.23-0.431,3.813,0.481c0.813,1.271-0.508,3.563-2.947,5.122
			c-2.439,1.558-5.076,1.791-5.887,0.521c-0.813-1.272,0.506-3.564,2.947-5.123C230.826,95.259,231.531,94.923,232.209,94.7z"/>
		<path fill="#FBCB4C" d="M231.879,101.706c-0.479,1.739-1.439,2.926-2.521,2.901c-1.506-0.031-2.678-2.404-2.615-5.3
			c0.061-2.894,1.334-5.213,2.84-5.181c1.51,0.032,2.682,2.403,2.619,5.299C232.184,100.245,232.068,101.018,231.879,101.706z"/>
		<polygon fill="#19160C" points="230.557,102.236 229.205,102.258 227.508,101.463 226.818,100.723 227.084,102.092 
			228.461,102.875 229.707,103.145 230.898,102.978 231.658,102.567 231.924,101.521 		"/>
		<polygon fill="#19160C" points="230.744,99.946 229.604,99.928 227.797,99.35 226.734,98.782 226.771,99.814 228.75,100.762 
			229.994,101.034 231.188,100.866 232.158,100.514 232.213,99.409 		"/>
		<polygon fill="#19160C" points="230.656,97.305 229.604,97.511 228.215,97.125 227.234,96.627 226.934,97.616 228.609,98.305 
			229.855,98.577 231.047,98.41 232.189,98.155 231.955,97.118 		"/>
	</g>
	<g>
		<path fill="#71C2BA" d="M178.582,162.48c1.775-0.322,3.26,0.027,3.707,1.012c0.627,1.373-1.002,3.459-3.637,4.658
			s-5.277,1.061-5.902-0.311c-0.625-1.373,1.004-3.459,3.639-4.658C177.135,162.842,177.881,162.609,178.582,162.48z"/>
		<path fill="#71C2BA" d="M171.697,161.48c0.346-1.771,1.213-3.025,2.295-3.084c1.506-0.082,2.852,2.195,3.008,5.086
			s-0.938,5.303-2.443,5.383s-2.852-2.195-3.01-5.086C171.504,162.959,171.559,162.18,171.697,161.48z"/>
		<path fill="#FBCB4C" d="M177.633,165.213c1.279,1.273,1.84,2.691,1.289,3.623c-0.771,1.295-3.414,1.148-5.902-0.328
			c-2.49-1.479-3.883-3.729-3.115-5.023c0.771-1.299,3.414-1.152,5.902,0.326C176.512,164.23,177.129,164.711,177.633,165.213z"/>
		<polygon fill="#19160C" points="177.445,166.625 176.801,167.813 175.273,168.898 174.289,169.137 175.611,169.578 
			176.969,168.764 177.818,167.813 178.26,166.693 178.275,165.83 177.494,165.084 		"/>
		<polygon fill="#19160C" points="175.545,165.336 174.967,166.318 173.574,167.609 172.559,168.254 173.477,168.73 
			175.273,167.473 176.121,166.523 176.563,165.402 176.734,164.385 175.797,163.793 		"/>
		<polygon fill="#19160C" points="173.203,164.113 172.861,165.131 171.846,166.15 170.928,166.76 171.641,167.508 173.064,166.387 
			173.914,165.438 174.355,164.316 174.695,163.195 173.678,162.891 		"/>
	</g>
	<g>
		<path fill="#71C2BA" d="M221.563,121.669c0.232-1.791,1.018-3.099,2.092-3.227c1.496-0.179,2.988,2.007,3.332,4.882
			c0.342,2.875-0.594,5.351-2.09,5.528c-1.498,0.18-2.99-2.006-3.334-4.882C221.467,123.158,221.473,122.375,221.563,121.669z"/>
		<path fill="#71C2BA" d="M218.518,127.925c-1.582-0.868-2.512-2.076-2.242-3.124c0.383-1.459,2.959-2.05,5.762-1.32
			c2.803,0.729,4.766,2.503,4.387,3.961c-0.381,1.461-2.959,2.053-5.762,1.323C219.869,128.558,219.143,128.268,218.518,127.925z"/>
		<path fill="#FBCB4C" d="M223.877,123.402c1.604-0.831,3.125-0.934,3.842-0.126c1.002,1.127,0.061,3.601-2.105,5.523
			c-2.162,1.923-4.729,2.568-5.73,1.441c-1.002-1.129-0.061-3.601,2.105-5.523C222.6,124.172,223.246,123.731,223.877,123.402z"/>
		<polygon fill="#19160C" points="225.166,124.01 226.102,124.986 226.672,126.772 226.6,127.782 227.422,126.654 227.059,125.113 
			226.41,124.016 225.479,123.255 224.66,122.979 223.711,123.496 		"/>
		<polygon fill="#19160C" points="223.359,125.43 224.121,126.279 224.928,127.996 225.234,129.163 225.965,128.433 
			225.314,126.338 224.666,125.241 223.732,124.48 222.814,124.008 221.969,124.721 		"/>
		<polygon fill="#19160C" points="221.484,127.291 222.35,127.923 223.012,129.203 223.316,130.261 224.244,129.809 
			223.609,128.112 222.961,127.014 222.027,126.254 221.064,125.588 220.463,126.466 		"/>
	</g>
	<g>
		<path fill="#71C2BA" d="M134.466,84.74c1.518,0.978,2.361,2.248,2.016,3.272c-0.48,1.429-3.096,1.838-5.839,0.912
			c-2.743-0.925-4.577-2.832-4.097-4.262c0.483-1.429,3.098-1.837,5.842-0.912C133.164,84.012,133.869,84.353,134.466,84.74z"/>
		<path fill="#71C2BA" d="M130.126,79.301c1.464-1.055,2.955-1.377,3.781-0.681c1.156,0.97,0.583,3.552-1.279,5.77
			c-1.862,2.215-4.309,3.228-5.461,2.258c-1.156-0.971-0.583-3.553,1.279-5.77C128.974,80.25,129.548,79.719,130.126,79.301z"/>
		<path fill="#FBCB4C" d="M131.909,86.085c0.062,1.804-0.499,3.222-1.537,3.523c-1.448,0.42-3.277-1.493-4.083-4.273
			c-0.808-2.78-0.287-5.375,1.16-5.795c1.449-0.421,3.277,1.492,4.083,4.272C131.761,84.6,131.882,85.374,131.909,86.085z"/>
		<polygon fill="#19160C" points="130.804,86.987 129.523,87.414 127.666,87.162 126.784,86.662 127.449,87.89 128.998,88.222 
			130.265,88.109 131.353,87.593 131.955,86.974 131.894,85.895 		"/>
		<polygon fill="#19160C" points="130.298,84.746 129.206,85.07 127.308,85.061 126.125,84.835 126.468,85.809 128.64,86.122 
			129.908,86.008 130.996,85.492 131.817,84.865 131.538,83.794 		"/>
		<polygon fill="#19160C" points="129.425,82.253 128.482,82.764 127.042,82.811 125.956,82.63 125.964,83.663 127.771,83.819 
			129.04,83.706 130.128,83.19 131.143,82.604 130.609,81.685 		"/>
	</g>
	<g>
		<path fill="#71C2BA" d="M137.287,112.662c1.115-1.419,2.461-2.14,3.448-1.7c1.378,0.614,1.541,3.254,0.364,5.899
			c-1.178,2.645-3.249,4.292-4.626,3.679c-1.378-0.612-1.541-3.254-0.363-5.899C136.443,113.891,136.847,113.222,137.287,112.662z"
			/>
		<path fill="#71C2BA" d="M131.469,116.477c-0.913-1.557-1.097-3.07-0.326-3.83c1.073-1.06,3.591-0.248,5.625,1.813
			c2.033,2.062,2.813,4.591,1.738,5.648c-1.073,1.061-3.591,0.248-5.626-1.813C132.306,117.712,131.83,117.091,131.469,116.477z"/>
		<path fill="#FBCB4C" d="M138.388,115.335c1.802,0.106,3.162,0.797,3.365,1.858c0.283,1.482-1.792,3.123-4.636,3.667
			c-2.843,0.544-5.378-0.216-5.661-1.696c-0.284-1.482,1.792-3.124,4.635-3.666C136.898,115.343,137.677,115.293,138.388,115.335z"
			/>
		<polygon fill="#19160C" points="139.183,116.518 139.489,117.835 139.066,119.661 138.486,120.491 139.769,119.944 
			140.246,118.434 140.251,117.16 139.839,116.029 139.279,115.373 138.199,115.332 		"/>
		<polygon fill="#19160C" points="136.906,116.813 137.125,117.931 136.939,119.821 136.605,120.977 137.607,120.725 
			138.119,118.593 138.125,117.319 137.712,116.189 137.166,115.312 136.074,115.491 		"/>
		<polygon fill="#19160C" points="134.341,117.45 134.763,118.438 134.676,119.875 134.394,120.94 135.422,121.027 135.748,119.244 
			135.753,117.969 135.339,116.838 134.851,115.774 133.888,116.22 		"/>
	</g>
	<g>
		<path fill="#71C2BA" d="M223.938,83.537c1.779,0.312,3.049,1.154,3.129,2.234c0.111,1.503-2.141,2.896-5.027,3.108
			c-2.887,0.212-5.318-0.833-5.428-2.337c-0.111-1.504,2.139-2.896,5.027-3.109C222.455,83.374,223.236,83.414,223.938,83.537z"/>
		<path fill="#71C2BA" d="M217.826,80.212c0.938-1.541,2.188-2.417,3.221-2.098c1.441,0.445,1.916,3.048,1.061,5.813
			c-0.854,2.766-2.715,4.648-4.154,4.203c-1.441-0.445-1.916-3.048-1.063-5.814C217.133,81.534,217.455,80.822,217.826,80.212z"/>
		<path fill="#FBCB4C" d="M222.104,85.771c0.758,1.637,0.791,3.162-0.049,3.844c-1.17,0.949-3.598-0.103-5.422-2.352
			s-2.354-4.842-1.182-5.791c1.172-0.951,3.6,0.102,5.422,2.351C221.391,84.46,221.803,85.124,222.104,85.771z"/>
		<polygon fill="#19160C" points="221.438,87.03 220.42,87.921 218.611,88.411 217.604,88.293 218.693,89.166 220.25,88.872 
			221.375,88.274 222.178,87.375 222.49,86.572 222.018,85.601 		"/>
		<polygon fill="#19160C" points="220.1,85.162 219.219,85.885 217.465,86.614 216.289,86.866 216.984,87.629 219.105,87.075 
			220.23,86.476 221.031,85.578 221.545,84.682 220.871,83.803 		"/>
		<polygon fill="#19160C" points="218.326,83.203 217.654,84.042 216.346,84.644 215.275,84.9 215.686,85.848 217.41,85.29 
			218.535,84.692 219.338,83.794 220.045,82.861 219.195,82.221 		"/>
	</g>
	<g>
		<path fill="#71C2BA" d="M155.992,154.455c1.154,1.387,1.58,2.852,0.941,3.727c-0.887,1.219-3.504,0.826-5.844-0.877
			s-3.52-4.074-2.633-5.293c0.889-1.219,3.506-0.826,5.846,0.877C154.965,153.371,155.535,153.906,155.992,154.455z"/>
		<path fill="#71C2BA" d="M153.477,147.967c1.713-0.568,3.23-0.43,3.813,0.482c0.813,1.27-0.508,3.563-2.947,5.121
			c-2.441,1.559-5.076,1.791-5.887,0.521c-0.813-1.271,0.506-3.564,2.947-5.123C152.094,148.527,152.799,148.191,153.477,147.967z"
			/>
		<path fill="#FBCB4C" d="M153.146,154.973c-0.479,1.74-1.439,2.926-2.521,2.902c-1.506-0.031-2.678-2.404-2.615-5.299
			c0.061-2.895,1.334-5.215,2.84-5.182c1.51,0.031,2.682,2.404,2.619,5.299C153.451,153.512,153.336,154.287,153.146,154.973z"/>
		<polygon fill="#19160C" points="151.824,155.504 150.473,155.525 148.775,154.73 148.084,153.99 148.352,155.359 149.729,156.141 
			150.975,156.414 152.166,156.246 152.926,155.836 153.191,154.789 		"/>
		<polygon fill="#19160C" points="152.014,153.213 150.871,153.195 149.064,152.619 148.002,152.049 148.039,153.082 
			150.018,154.029 151.262,154.301 152.453,154.135 153.426,153.781 153.479,152.676 		"/>
		<polygon fill="#19160C" points="151.926,150.572 150.871,150.779 149.482,150.395 148.5,149.896 148.199,150.885 149.877,151.574 
			151.123,151.844 152.314,151.678 153.457,151.424 153.223,150.385 		"/>
	</g>
	<g>
		<path fill="#71C2BA" d="M153.646,80.203c1.775-0.323,3.262,0.027,3.709,1.011c0.625,1.373-1.004,3.458-3.639,4.658
			s-5.277,1.061-5.902-0.311c-0.625-1.373,1.004-3.459,3.639-4.658C152.199,80.563,152.945,80.33,153.646,80.203z"/>
		<path fill="#71C2BA" d="M146.762,79.201c0.346-1.771,1.215-3.024,2.295-3.083c1.506-0.081,2.852,2.195,3.01,5.086
			c0.154,2.892-0.939,5.302-2.443,5.383c-1.506,0.081-2.854-2.196-3.012-5.087C146.568,80.681,146.625,79.9,146.762,79.201z"/>
		<path fill="#FBCB4C" d="M152.697,82.934c1.279,1.273,1.84,2.692,1.289,3.622c-0.77,1.297-3.412,1.15-5.902-0.328
			c-2.488-1.478-3.883-3.727-3.113-5.022c0.77-1.298,3.412-1.15,5.9,0.327C151.576,81.952,152.193,82.432,152.697,82.934z"/>
		<polygon fill="#19160C" points="152.512,84.345 151.865,85.534 150.338,86.621 149.354,86.858 150.678,87.299 152.035,86.485 
			152.883,85.534 153.324,84.415 153.34,83.551 152.561,82.804 		"/>
		<polygon fill="#19160C" points="150.609,83.056 150.033,84.041 148.641,85.331 147.623,85.975 148.541,86.451 150.338,85.196 
			151.188,84.244 151.629,83.124 151.799,82.106 150.861,81.515 		"/>
		<polygon fill="#19160C" points="148.268,81.834 147.928,82.853 146.91,83.872 145.992,84.482 146.705,85.228 148.131,84.109 
			148.979,83.158 149.42,82.038 149.762,80.917 148.742,80.612 		"/>
	</g>
	<g>
		<path fill="#71C2BA" d="M118.595,97.102c1.234-1.316,2.637-1.918,3.583-1.394c1.32,0.731,1.251,3.375-0.151,5.908
			c-1.402,2.532-3.609,3.993-4.929,3.264c-1.319-0.731-1.251-3.377,0.151-5.909C117.647,98.254,118.11,97.623,118.595,97.102z"/>
		<path fill="#71C2BA" d="M112.466,100.397c-0.774-1.63-0.822-3.155,0.01-3.844c1.162-0.963,3.6,0.066,5.445,2.297
			c1.847,2.229,2.402,4.816,1.241,5.777c-1.161,0.962-3.601-0.065-5.446-2.296C113.193,101.701,112.774,101.041,112.466,100.397z"/>
		<path fill="#FBCB4C" d="M119.46,99.862c1.785,0.263,3.08,1.069,3.189,2.146c0.154,1.499-2.057,2.954-4.938,3.248
			c-2.88,0.294-5.338-0.683-5.492-2.183c-0.152-1.5,2.058-2.955,4.938-3.249C117.973,99.741,118.755,99.759,119.46,99.862z"/>
		<polygon fill="#19160C" points="120.149,101.109 120.337,102.448 119.757,104.23 119.107,105.006 120.433,104.574 121.041,103.11 
			121.157,101.841 120.844,100.678 120.343,99.976 119.271,99.84 		"/>
		<polygon fill="#19160C" points="117.855,101.205 117.976,102.338 117.625,104.203 117.192,105.327 118.212,105.164 
			118.91,103.083 119.025,101.815 118.712,100.652 118.244,99.733 117.14,99.815 		"/>
		<polygon fill="#19160C" points="115.244,101.616 115.578,102.636 115.366,104.061 114.994,105.097 116.01,105.274 
			116.488,103.525 116.604,102.256 116.292,101.093 115.899,99.99 114.899,100.351 		"/>
	</g>
	<g>
		<path fill="#71C2BA" d="M178.141,128.853c1.775-0.323,3.26,0.027,3.707,1.012c0.625,1.372-1.002,3.457-3.639,4.658
			c-2.635,1.2-5.275,1.061-5.902-0.312c-0.625-1.373,1.004-3.458,3.641-4.658C176.691,129.213,177.439,128.981,178.141,128.853z"/>
		<path fill="#71C2BA" d="M171.254,127.851c0.348-1.771,1.215-3.023,2.295-3.082c1.506-0.082,2.854,2.195,3.01,5.086
			c0.154,2.891-0.938,5.301-2.443,5.382s-2.854-2.195-3.01-5.087C171.063,129.332,171.117,128.551,171.254,127.851z"/>
		<path fill="#FBCB4C" d="M177.191,131.584c1.279,1.273,1.84,2.692,1.287,3.623c-0.77,1.296-3.412,1.149-5.9-0.328
			c-2.49-1.479-3.885-3.728-3.115-5.023c0.77-1.297,3.414-1.15,5.902,0.327C176.07,130.602,176.688,131.083,177.191,131.584z"/>
		<polygon fill="#19160C" points="177.004,132.997 176.357,134.184 174.83,135.271 173.846,135.508 175.17,135.95 176.527,135.135 
			177.377,134.184 177.818,133.065 177.834,132.202 177.053,131.456 		"/>
		<polygon fill="#19160C" points="175.104,131.708 174.525,132.691 173.133,133.982 172.115,134.625 173.033,135.102 
			174.83,133.846 175.68,132.895 176.121,131.775 176.293,130.756 175.355,130.166 		"/>
		<polygon fill="#19160C" points="172.76,130.485 172.42,131.503 171.402,132.522 170.486,133.132 171.199,133.879 172.623,132.759 
			173.473,131.809 173.914,130.689 174.254,129.568 173.236,129.262 		"/>
	</g>
	<g>
		<path fill="#71C2BA" d="M123.261,121.923c1.775-0.323,3.26,0.028,3.707,1.013c0.625,1.372-1.002,3.457-3.638,4.657
			c-2.635,1.199-5.278,1.062-5.902-0.312c-0.625-1.372,1.004-3.458,3.64-4.657C121.812,122.285,122.56,122.052,123.261,121.923z"/>
		<path fill="#71C2BA" d="M116.375,120.922c0.348-1.771,1.215-3.024,2.296-3.083c1.505-0.082,2.853,2.195,3.009,5.087
			c0.155,2.89-0.938,5.301-2.443,5.382s-2.854-2.195-3.01-5.087C116.182,122.403,116.238,121.623,116.375,120.922z"/>
		<path fill="#FBCB4C" d="M122.312,124.656c1.279,1.273,1.84,2.692,1.288,3.623c-0.771,1.296-3.413,1.149-5.901-0.329
			c-2.49-1.478-3.884-3.727-3.115-5.022c0.771-1.298,3.412-1.151,5.902,0.326C121.191,123.672,121.808,124.153,122.312,124.656z"/>
		<polygon fill="#19160C" points="122.125,126.068 121.479,127.255 119.952,128.341 118.967,128.58 120.291,129.021 
			121.648,128.207 122.498,127.255 122.939,126.135 122.955,125.273 122.173,124.527 		"/>
		<polygon fill="#19160C" points="120.224,124.779 119.646,125.762 118.253,127.052 117.237,127.697 118.154,128.172 
			119.952,126.917 120.8,125.966 121.242,124.846 121.414,123.827 120.476,123.237 		"/>
		<polygon fill="#19160C" points="117.88,123.556 117.541,124.575 116.523,125.592 115.606,126.204 116.32,126.951 117.744,125.831 
			118.593,124.88 119.034,123.76 119.375,122.639 118.355,122.333 		"/>
	</g>
	<g>
		<path fill="#71C2BA" d="M139.064,135.471c1.775-0.323,3.26,0.027,3.708,1.012c0.625,1.373-1.004,3.457-3.639,4.657
			c-2.635,1.2-5.277,1.062-5.902-0.311c-0.625-1.373,1.005-3.458,3.64-4.658C137.615,135.832,138.362,135.599,139.064,135.471z"/>
		<path fill="#71C2BA" d="M132.177,134.47c0.346-1.771,1.215-3.025,2.295-3.083c1.506-0.082,2.853,2.194,3.01,5.086
			c0.154,2.891-0.938,5.302-2.443,5.382c-1.506,0.082-2.854-2.195-3.01-5.087C131.984,135.95,132.041,135.169,132.177,134.47z"/>
		<path fill="#FBCB4C" d="M138.115,138.203c1.277,1.274,1.838,2.693,1.287,3.623c-0.77,1.297-3.412,1.149-5.9-0.328
			c-2.49-1.478-3.885-3.727-3.115-5.023c0.77-1.298,3.412-1.15,5.901,0.327C136.992,137.22,137.61,137.701,138.115,138.203z"/>
		<polygon fill="#19160C" points="137.927,139.615 137.281,140.802 135.753,141.889 134.769,142.126 136.093,142.568 
			137.451,141.753 138.3,140.802 138.74,139.683 138.756,138.82 137.976,138.074 		"/>
		<polygon fill="#19160C" points="136.026,138.326 135.449,139.309 134.056,140.599 133.039,141.244 133.957,141.719 
			135.753,140.464 136.603,139.513 137.044,138.393 137.215,137.375 136.278,136.784 		"/>
		<polygon fill="#19160C" points="133.683,137.103 133.343,138.122 132.326,139.14 131.409,139.75 132.121,140.498 133.546,139.377 
			134.395,138.427 134.836,137.307 135.177,136.186 134.158,135.88 		"/>
	</g>
	<g>
		<path fill="#71C2BA" d="M157.742,127.75c1.775-0.323,3.26,0.027,3.707,1.012c0.625,1.373-1.002,3.457-3.637,4.658
			c-2.635,1.199-5.279,1.061-5.904-0.312c-0.623-1.373,1.006-3.458,3.641-4.658C156.293,128.112,157.041,127.877,157.742,127.75z"/>
		<path fill="#71C2BA" d="M150.855,126.75c0.348-1.771,1.215-3.024,2.297-3.083c1.504-0.082,2.852,2.195,3.008,5.086
			s-0.938,5.301-2.443,5.382c-1.506,0.082-2.854-2.195-3.01-5.087C150.664,128.23,150.719,127.449,150.855,126.75z"/>
		<path fill="#FBCB4C" d="M156.793,130.483c1.279,1.272,1.84,2.692,1.287,3.622c-0.77,1.297-3.412,1.149-5.9-0.328
			c-2.49-1.479-3.885-3.728-3.115-5.023c0.77-1.297,3.414-1.15,5.902,0.327C155.672,129.5,156.289,129.98,156.793,130.483z"/>
		<polygon fill="#19160C" points="156.605,131.894 155.959,133.082 154.432,134.168 153.449,134.406 154.771,134.847 
			156.129,134.033 156.979,133.082 157.42,131.962 157.436,131.099 156.654,130.353 		"/>
		<polygon fill="#19160C" points="154.705,130.605 154.127,131.588 152.734,132.879 151.719,133.523 152.635,134 154.432,132.744 
			155.281,131.792 155.723,130.672 155.895,129.654 154.957,129.063 		"/>
		<polygon fill="#19160C" points="152.363,129.382 152.021,130.401 151.004,131.419 150.088,132.03 150.801,132.777 
			152.225,131.657 153.074,130.707 153.516,129.586 153.855,128.465 152.836,128.161 		"/>
	</g>
	<g>
		<path fill="#71C2BA" d="M146.33,98.212c1.775-0.323,3.26,0.027,3.709,1.012c0.625,1.373-1.004,3.457-3.639,4.658
			c-2.635,1.199-5.278,1.06-5.903-0.312c-0.625-1.373,1.004-3.458,3.639-4.658C144.883,98.574,145.629,98.339,146.33,98.212z"/>
		<path fill="#71C2BA" d="M139.445,97.211c0.346-1.771,1.215-3.025,2.295-3.083c1.506-0.082,2.852,2.195,3.01,5.086
			c0.154,2.891-0.939,5.301-2.445,5.382c-1.506,0.082-2.853-2.195-3.009-5.087C139.251,98.692,139.306,97.911,139.445,97.211z"/>
		<path fill="#FBCB4C" d="M145.381,100.945c1.279,1.272,1.84,2.692,1.289,3.622c-0.77,1.297-3.414,1.15-5.902-0.328
			c-2.489-1.479-3.884-3.728-3.114-5.023c0.77-1.298,3.412-1.15,5.901,0.327C144.26,99.961,144.877,100.442,145.381,100.945z"/>
		<polygon fill="#19160C" points="145.195,102.356 144.549,103.543 143.021,104.63 142.037,104.868 143.361,105.309 
			144.719,104.495 145.566,103.543 146.008,102.424 146.023,101.561 145.242,100.815 		"/>
		<polygon fill="#19160C" points="143.293,101.067 142.717,102.051 141.323,103.341 140.306,103.985 141.224,104.461 
			143.021,103.206 143.871,102.254 144.313,101.134 144.482,100.116 143.545,99.525 		"/>
		<polygon fill="#19160C" points="140.951,99.844 140.611,100.863 139.593,101.881 138.675,102.492 139.388,103.239 
			140.814,102.119 141.662,101.168 142.103,100.048 142.443,98.927 141.425,98.623 		"/>
	</g>
	<g>
		<path fill="#71C2BA" d="M166.641,110.144c1.775-0.323,3.26,0.028,3.709,1.013c0.625,1.372-1.004,3.457-3.639,4.657
			c-2.635,1.199-5.277,1.061-5.902-0.312c-0.625-1.373,1.004-3.458,3.639-4.658C165.193,110.505,165.939,110.272,166.641,110.144z"
			/>
		<path fill="#71C2BA" d="M159.756,109.143c0.346-1.771,1.215-3.025,2.295-3.083c1.506-0.082,2.852,2.195,3.01,5.086
			c0.154,2.891-0.939,5.302-2.443,5.383c-1.506,0.081-2.854-2.196-3.01-5.088C159.563,110.624,159.617,109.843,159.756,109.143z"/>
		<path fill="#FBCB4C" d="M165.693,112.876c1.277,1.273,1.838,2.692,1.287,3.622c-0.77,1.297-3.412,1.15-5.9-0.328
			c-2.49-1.478-3.885-3.727-3.115-5.023c0.77-1.298,3.412-1.15,5.9,0.327C164.57,111.893,165.188,112.374,165.693,112.876z"/>
		<polygon fill="#19160C" points="165.506,114.289 164.859,115.476 163.332,116.562 162.348,116.799 163.672,117.241 
			165.029,116.427 165.879,115.476 166.32,114.356 166.334,113.493 165.555,112.747 		"/>
		<polygon fill="#19160C" points="163.604,112.999 163.027,113.983 161.635,115.273 160.617,115.917 161.535,116.393 
			163.332,115.137 164.182,114.186 164.623,113.066 164.793,112.047 163.855,111.457 		"/>
		<polygon fill="#19160C" points="161.262,111.776 160.922,112.794 159.904,113.813 158.986,114.424 159.699,115.17 161.125,114.05 
			161.973,113.101 162.414,111.98 162.756,110.86 161.736,110.554 		"/>
	</g>
	<g>
		<path fill="#71C2BA" d="M216.049,112.643c1.775-0.323,3.26,0.026,3.707,1.011c0.625,1.373-1.002,3.458-3.637,4.658
			s-5.277,1.061-5.902-0.311c-0.627-1.374,1.004-3.459,3.639-4.659C214.602,113.003,215.348,112.77,216.049,112.643z"/>
		<path fill="#71C2BA" d="M209.164,111.641c0.346-1.771,1.213-3.024,2.295-3.083c1.504-0.082,2.852,2.195,3.008,5.086
			s-0.938,5.302-2.443,5.382c-1.506,0.082-2.854-2.195-3.01-5.086C208.971,113.121,209.025,112.34,209.164,111.641z"/>
		<path fill="#FBCB4C" d="M215.1,115.374c1.279,1.273,1.84,2.693,1.289,3.623c-0.771,1.296-3.414,1.15-5.902-0.328
			c-2.49-1.478-3.883-3.728-3.115-5.022c0.771-1.298,3.412-1.151,5.902,0.327C213.979,114.391,214.596,114.872,215.1,115.374z"/>
		<polygon fill="#19160C" points="214.912,116.786 214.268,117.974 212.74,119.061 211.754,119.298 213.078,119.74 214.436,118.924 
			215.285,117.974 215.727,116.854 215.742,115.992 214.961,115.245 		"/>
		<polygon fill="#19160C" points="213.012,115.497 212.434,116.48 211.041,117.771 210.025,118.416 210.941,118.891 212.74,117.635 
			213.588,116.684 214.029,115.564 214.201,114.546 213.264,113.955 		"/>
		<polygon fill="#19160C" points="210.668,114.274 210.328,115.292 209.311,116.311 208.395,116.921 209.107,117.668 
			210.531,116.548 211.381,115.598 211.822,114.478 212.162,113.357 211.145,113.052 		"/>
	</g>
	<g>
		<path fill="#71C2BA" d="M197.588,150.504c1.775-0.324,3.26,0.027,3.707,1.012c0.625,1.371-1.002,3.457-3.637,4.658
			c-2.635,1.199-5.277,1.061-5.902-0.313s1.004-3.457,3.639-4.658C196.141,150.863,196.887,150.631,197.588,150.504z"/>
		<path fill="#71C2BA" d="M190.703,149.502c0.346-1.771,1.215-3.023,2.295-3.082c1.506-0.082,2.852,2.195,3.008,5.086
			s-0.938,5.301-2.443,5.381c-1.504,0.082-2.852-2.195-3.01-5.086C190.51,150.982,190.564,150.201,190.703,149.502z"/>
		<path fill="#FBCB4C" d="M196.639,153.234c1.279,1.273,1.84,2.693,1.289,3.623c-0.77,1.297-3.414,1.15-5.902-0.328
			s-3.883-3.727-3.113-5.023s3.412-1.15,5.9,0.328C195.518,152.252,196.135,152.732,196.639,153.234z"/>
		<polygon fill="#19160C" points="196.451,154.646 195.807,155.836 194.279,156.922 193.295,157.158 194.617,157.6 195.977,156.785 
			196.824,155.836 197.266,154.715 197.281,153.852 196.5,153.105 		"/>
		<polygon fill="#19160C" points="194.551,153.357 193.973,154.342 192.582,155.633 191.564,156.275 192.482,156.752 
			194.279,155.496 195.129,154.545 195.57,153.426 195.74,152.406 194.803,151.816 		"/>
		<polygon fill="#19160C" points="192.209,152.135 191.869,153.154 190.852,154.172 189.934,154.783 190.646,155.529 
			192.072,154.41 192.92,153.459 193.361,152.34 193.701,151.219 192.684,150.912 		"/>
	</g>
	<g>
		<path fill="#71C2BA" d="M193.086,135.307c1.775-0.322,3.26,0.027,3.707,1.012c0.625,1.372-1.002,3.457-3.637,4.658
			c-2.637,1.2-5.279,1.061-5.904-0.312c-0.623-1.373,1.006-3.458,3.641-4.658C191.637,135.668,192.385,135.435,193.086,135.307z"/>
		<path fill="#71C2BA" d="M186.199,134.306c0.348-1.771,1.215-3.024,2.295-3.083c1.506-0.082,2.854,2.195,3.01,5.086
			c0.154,2.891-0.938,5.302-2.443,5.382c-1.506,0.081-2.854-2.195-3.01-5.086C186.008,135.786,186.063,135.005,186.199,134.306z"/>
		<path fill="#FBCB4C" d="M192.137,138.039c1.279,1.273,1.84,2.692,1.287,3.623c-0.77,1.295-3.412,1.149-5.9-0.328
			c-2.49-1.479-3.885-3.728-3.115-5.023c0.77-1.297,3.414-1.15,5.902,0.328C191.016,137.056,191.633,137.537,192.137,138.039z"/>
		<polygon fill="#19160C" points="191.949,139.451 191.303,140.639 189.775,141.726 188.791,141.963 190.115,142.404 
			191.473,141.589 192.322,140.639 192.764,139.519 192.779,138.657 191.998,137.91 		"/>
		<polygon fill="#19160C" points="190.049,138.162 189.471,139.145 188.078,140.436 187.061,141.081 187.979,141.556 189.775,140.3 
			190.625,139.349 191.066,138.229 191.238,137.211 190.301,136.62 		"/>
		<polygon fill="#19160C" points="187.707,136.939 187.365,137.958 186.348,138.976 185.432,139.586 186.145,140.333 
			187.568,139.213 188.418,138.263 188.859,137.143 189.199,136.022 188.182,135.716 		"/>
	</g>
	<g>
		<g>
			<g>
				<g>
					<path fill="#E7C491" d="M106.369,63.471l3.214,1.752v3.506l1.169,2.631l1.168,1.752l1.168,1.461l0.293,1.753l-1.169,0.293
						l-1.46,0.876l-0.585,1.461l0.585,1.461l0.875,2.044l-2.922,1.169l-1.459,0.877c0,0,2.045,4.382,0.291,4.091
						c-1.752-0.293-2.338,0-3.506,0s-8.764-2.337-8.764-2.337l0.583-3.8l-2.046-5.842c0,0,0-3.798,1.168-4.967
						c1.17-1.169,0.877-1.754,1.754-2.923c0.878-1.168,1.463-1.752,2.922-2.337C101.109,65.808,106.369,63.471,106.369,63.471z"/>
					<path fill="#19160C" d="M118.052,205.742l-2.371,0.707c0,0-2.039,0.223-2.42,0.223c-0.384,0-2.164,0-2.674,0s-1.401,0-1.401,0
						l-1.653-0.555l-0.703,0.213l-0.445,1.672v1.664l0.382,1.111l4.841,0.221l6.11,0.332h5.859l4.075-0.441l2.166-0.668
						l-0.128-1.219l-1.401-0.777h-2.93l-4.711-1.775L118.052,205.742z"/>
					<path fill="#19160C" d="M101.402,211.309l2.337,3.213l2.922,2.631l3.213,2.045l1.169,1.461l-2.045,2.338
						c0,0-1.754,0.877-2.922,0.877s-0.875,0.875-2.629,0c-1.754-0.877-3.213-2.047-4.383-2.631
						c-1.168-0.584-2.922-2.045-2.922-2.045s-1.167-1.168-2.044-1.754c-0.877-0.584-2.046-1.459-2.046-1.459l-0.877-4.092
						L101.402,211.309z"/>
					<path fill="#19160C" d="M109.503,63.491l-1.641-2.056c0,0-5.962-1.195-6.838-1.195s-5.705,0.845-7.459,1.721
						c-1.753,0.876-4.111,4.44-4.402,5.318c-0.291,0.876-0.584,5.259-0.584,5.259s0.293,3.212,0.877,4.09
						c0.584,0.876,2.921,3.506,2.921,3.506l2.63,0.585l1.169-3.507l0.876-2.921l0.877-1.169l2.338-0.584l2.044,1.169h1.169
						l0.877-2.338l1.168-3.214l1.754-1.169l2.63-1.461L109.503,63.491z"/>
					<path fill="#FFFFFF" d="M120.1,130.376l1.462,7.89c0,0,0,7.011-0.293,7.888s-0.002,3.799-0.293,4.969
						c-0.291,1.168-0.877,4.088-1.168,7.887s-0.293,5.26-0.584,7.305c-0.293,2.045,0,4.092-0.293,6.135
						c-0.292,2.045-0.291,4.676-0.582,7.012c-0.295,2.338-0.295,4.676-0.878,6.428c-0.585,1.754-0.876,4.967-0.876,4.967
						l-0.586,3.799c0,0,0.293,2.922,0.293,3.799s2.629,3.797,2.629,3.797l1.717,4.199c0,0-1.424,1.938-2.299,2.229
						c-0.878,0.293-1.17,0.291-2.632,0.586c-1.461,0.291-2.629,0.291-3.506,0.291c-0.876,0-3.507-0.584-3.507-0.584l-2.32-0.969
						c0,0-0.893-0.783-0.893-1.951c0-1.17,0-7.014,0-8.182c0-1.17-0.293-2.922-0.293-4.967c0-2.047-0.583-3.799-0.583-7.014
						c0-3.213,0-8.471,0-8.471s-1.169,4.674-1.753,5.551c-0.584,0.875-0.877,3.506-0.877,4.381c0,0.877,0,2.631,0,3.799
						c0,1.17,0,4.967,0,5.844s0.293,2.631,0.293,3.506c0,0.877,0.291,3.797,0.291,5.844c0,2.045,0,2.631,0,4.09
						c0,1.461,0,1.461,0,1.461s-1.168,2.338-4.383,2.338s-3.504,0.877-5.258,0s-2.923-0.586-3.506-2.631
						c-0.586-2.045-1.169-6.428-1.461-7.889c-0.293-1.461-0.293-8.473-0.293-10.225c0-1.754-1.168-1.461,0.293-5.26
						s1.752-6.721,2.044-7.889c0.293-1.168,0.585-2.045,0.585-3.213c0-1.17,0-4.967,0-7.305c0-2.336,0.293-3.506,0.293-4.676
						c0-1.168,0.291-3.506,0.291-4.967s-0.293-4.09,0-5.258s0.877-2.922,0.877-2.922l0.584-14.901c0,0,0.293-4.675,2.631-4.967
						C97.604,131.838,120.1,130.376,120.1,130.376z"/>
					<path fill="#FFFFFF" d="M106.661,85.968l3.506-0.293l6.429,2.046c0,0,4.674,2.044,5.551,2.337
						c0.876,0.292,8.846,8.377,10.881,10.932c2.033,2.556,9.292,8.902,10.17,9.673c0.881,0.769,1.102,0.96,2.42,2.114
						c1.32,1.154,4.18,3.655,5.279,4.616c1.098,0.962,3.738,3.27,3.738,3.27s2.145,1.1,2.008,2.144
						c-0.139,1.045-0.99,3.793-0.99,3.793s-0.906,1.925-2.141,2.007c-1.238,0.083-1.594,0.936-4.014-1.181
						c-2.42-2.115-3.492-2.665-6.982-5.331c-3.493-2.664-3.52-3.076-5.884-4.367c-2.364-1.292-2.804-1.675-4.948-2.774
						s-2.584-1.484-5.002-3.6c-2.419-2.116-3.381-4.349-5.676-4.568c-1.453-0.139-3.242-5.039-3.242-4.163s-0.292,3.213-0.292,4.09
						s0,2.045,0,3.213c0,1.169-0.585,2.338,0,3.215c0.583,0.877,1.169,2.046,1.46,3.798c0.293,1.754,0.877,3.215,0.877,3.215
						s0.584,2.922,0.584,3.797c0,0.877,0.293,1.753,0.293,2.63c0,0.876-0.585,3.798-0.585,3.798s-0.001,1.46-0.876,2.337
						c-0.875,0.878-1.752,2.339-2.629,2.922c-0.878,0.586-2.047,0.877-3.215,1.461c-1.169,0.585-1.752,0.293-4.383,0.878
						c-2.629,0.583-4.09,0.584-6.135,0.876c-2.046,0.292-4.383,0.876-4.383,0.876l-2.338-0.584v4.381l-2.629,2.631l-1.753,0.877
						c0,0-1.754,0-2.923-1.17c-1.168-1.168-1.168-2.629-1.752-4.089c-0.584-1.462-0.292-2.339-1.17-4.091
						c-0.875-1.753-0.875-1.753-2.044-3.798c-1.169-2.046-1.755-2.629-2.629-4.675c-0.877-2.047-1.753-5.26-1.753-6.72
						c0-1.462,0-3.506,0-6.135c0-2.63,0-2.922,0-4.968c0-2.045,0-2.337,0-5.551s0.291-8.474,0.291-8.474s-0.875,0.585,0.585-2.629
						s2.628-6.721,3.506-6.721c0.876,0,6.428-1.752,6.428-1.752h4.968l7.596,0.876L106.661,85.968z"/>
				</g>
				<path opacity="0.2" fill="#1A171B" d="M118.245,61.42l1.577,7.891l0.395,7.1l1.184,8.678l-1.578,6.708l-4.34,4.338
					c0,0-7.1,1.972-8.678,2.761c-1.577,0.789-1.184,1.579-3.943,2.762c-2.762,1.184-5.523,1.184-7.494,1.184
					c-1.975,0-4.734-3.156-4.734-3.156s-2.367-2.762-2.762-3.945s0-2.76-0.395-4.731c-0.395-1.974,0-13.808,0-13.808l8.283-3.944
					l9.072-7.89L118.245,61.42z"/>
			</g>
			<polygon fill="#FFFFFF" points="118.279,61.028 106.05,64.578 100.133,70.495 88.695,76.411 82.777,76.805 88.3,72.073 
				87.904,64.972 88.3,60.239 92.638,56.293 99.74,55.899 104.078,56.688 108.417,59.055 110.785,60.633 115.517,59.45 
				119.067,58.661 123.012,59.844 			"/>
		</g>
		<polygon fill="#E7C491" points="154.111,133.78 146.742,129.878 100.792,139.849 100.792,175.396 105.126,179.73 		"/>
		<polygon fill="#FFDF03" points="105.126,181.031 153.244,169.76 153.678,133.347 104.694,144.184 		"/>
		<path fill="#E6AF89" d="M155.99,124.052l1.193,4.42l4.012,4.089l1.07,2.29l-4.098,5.956l-1.92,0.812l-1.154-0.849l-0.969-0.975
			l-1.08-0.347l-1.305-1.843l-1.178-1.66c0,0-1.049-1.478-1.441-2.029c-0.393-0.554,2.533-3.465,2.533-3.465l-2.354-3.319
			l1.059-2.416l2.453-2.017L155.99,124.052z"/>
		<path fill="#E6AF89" d="M96.898,148.627l4.564,0.361l4.756,3.191l2.45,0.631l5.1-5.123l0.445-2.035l-1.045-0.979l-1.138-0.773
			l-0.538-0.998l-2.052-0.945l-1.849-0.854c0,0-1.646-0.757-2.261-1.043c-0.615-0.283-2.938,3.128-2.938,3.128l-3.697-1.704
			l-2.18,1.485l-1.531,2.781L96.898,148.627z"/>
		<g>
			<path fill="#71C2BA" d="M149.254,146.77c2.021-0.369,3.713,0.031,4.223,1.152c0.713,1.563-1.143,3.938-4.143,5.303
				c-3,1.367-6.01,1.209-6.721-0.354c-0.712-1.564,1.141-3.938,4.143-5.305C147.605,147.18,148.457,146.914,149.254,146.77z"/>
			<path fill="#71C2BA" d="M141.413,145.629c0.396-2.016,1.384-3.444,2.615-3.51c1.715-0.093,3.248,2.5,3.426,5.792
				s-1.066,6.037-2.781,6.129c-1.717,0.092-3.25-2.5-3.428-5.793C141.193,147.314,141.257,146.426,141.413,145.629z"/>
			<path fill="#FBCB4C" d="M148.174,149.879c1.457,1.451,2.096,3.066,1.465,4.125c-0.875,1.479-3.885,1.311-6.719-0.373
				c-2.835-1.684-4.423-4.242-3.545-5.719c0.877-1.479,3.883-1.311,6.719,0.371C146.896,148.762,147.6,149.307,148.174,149.879z"/>
			<polygon fill="#19160C" points="147.959,151.488 147.225,152.84 145.486,154.078 144.365,154.348 145.873,154.852 
				147.42,153.924 148.385,152.84 148.887,151.566 148.904,150.584 148.016,149.732 			"/>
			<polygon fill="#19160C" points="145.795,150.02 145.139,151.141 143.553,152.609 142.395,153.344 143.439,153.885 
				145.486,152.455 146.451,151.373 146.955,150.098 147.148,148.938 146.084,148.264 			"/>
			<polygon fill="#19160C" points="143.129,148.627 142.742,149.787 141.582,150.947 140.538,151.643 141.35,152.492 
				142.973,151.217 143.938,150.135 144.439,148.859 144.828,147.584 143.67,147.236 			"/>
		</g>
		<g>
			<path fill="#71C2BA" d="M132.825,140.153c1.121-1.724,2.571-2.679,3.736-2.281c1.625,0.556,2.079,3.533,1.015,6.654
				c-1.064,3.119-3.244,5.199-4.868,4.645c-1.628-0.555-2.081-3.533-1.017-6.654C131.992,141.633,132.383,140.833,132.825,140.153z"
				/>
			<path fill="#71C2BA" d="M126.617,145.074c-1.195-1.672-1.557-3.371-0.762-4.31c1.109-1.311,4.048-0.648,6.564,1.48
				c2.516,2.131,3.658,4.92,2.55,6.23c-1.11,1.311-4.048,0.646-6.564-1.482C127.691,146.391,127.087,145.732,126.617,145.074z"/>
			<path fill="#FBCB4C" d="M134.347,143.072c2.055-0.064,3.667,0.582,4.006,1.764c0.472,1.652-1.713,3.725-4.883,4.633
				s-6.121,0.305-6.594-1.346s1.713-3.725,4.883-4.633C132.656,143.234,133.538,143.098,134.347,143.072z"/>
			<polygon fill="#19160C" points="135.371,144.332 135.849,145.795 135.556,147.908 134.984,148.91 136.384,148.158 
				136.77,146.396 136.646,144.951 136.062,143.711 135.361,143.023 134.13,143.086 			"/>
			<polygon fill="#19160C" points="132.816,144.898 133.179,146.146 133.162,148.307 132.9,149.654 134.011,149.266 
				134.375,146.795 134.251,145.35 133.667,144.107 132.958,143.17 131.738,143.484 			"/>
			<polygon fill="#19160C" points="129.974,145.883 130.55,146.961 130.599,148.6 130.389,149.836 131.565,149.828 131.751,147.773 
				131.625,146.328 131.043,145.088 130.381,143.93 129.333,144.535 			"/>
		</g>
		<g>
			<path fill="#71C2BA" d="M133.936,156.045c1.419,1.486,2.017,3.117,1.362,4.16c-0.913,1.455-3.916,1.213-6.709-0.541
				c-2.791-1.752-4.316-4.352-3.403-5.805c0.913-1.455,3.917-1.215,6.708,0.539C132.685,154.895,133.376,155.457,133.936,156.045z"
				/>
			<path fill="#71C2BA" d="M130.572,148.871c1.9-0.779,3.637-0.74,4.369,0.25c1.021,1.379-0.299,4.088-2.949,6.049
				c-2.65,1.959-5.627,2.43-6.646,1.051c-1.022-1.381,0.298-4.09,2.947-6.051C129.044,149.617,129.82,149.18,130.572,148.871z"/>
			<path fill="#FBCB4C" d="M130.744,156.857c-0.408,2.012-1.406,3.434-2.635,3.492c-1.717,0.08-3.232-2.521-3.389-5.816
				c-0.154-3.293,1.109-6.027,2.824-6.109s3.231,2.523,3.388,5.816C130.976,155.174,130.908,156.061,130.744,156.857z"/>
			<polygon fill="#19160C" points="129.285,157.563 127.75,157.693 125.761,156.922 124.917,156.135 125.328,157.67 
				126.953,158.449 128.388,158.662 129.731,158.379 130.56,157.854 130.781,156.643 			"/>
			<polygon fill="#19160C" points="129.319,154.947 128.021,155.014 125.922,154.5 124.671,153.938 124.794,155.105 
				127.116,156.027 128.55,156.24 129.892,155.957 130.968,155.48 130.943,154.221 			"/>
			<polygon fill="#19160C" points="129.013,151.953 127.832,152.27 126.225,151.939 125.07,151.451 124.806,152.596 126.764,153.25 
				128.2,153.459 129.542,153.178 130.82,152.799 130.472,151.639 			"/>
		</g>
		<g>
			<path fill="#71C2BA" d="M141.594,164.787c-0.745,1.916-1.97,3.148-3.192,2.996c-1.705-0.211-2.756-3.035-2.352-6.307
				c0.406-3.271,2.115-5.752,3.818-5.541c1.705,0.211,2.758,3.033,2.354,6.307C142.107,163.168,141.888,164.031,141.594,164.787z"/>
			<path fill="#71C2BA" d="M146.668,158.703c1.512,1.391,2.211,2.98,1.625,4.064c-0.818,1.508-3.83,1.459-6.73-0.111
				c-2.897-1.572-4.585-4.068-3.767-5.578c0.818-1.508,3.83-1.461,6.729,0.109C145.348,157.633,146.07,158.152,146.668,158.703z"/>
			<path fill="#FBCB4C" d="M139.507,162.24c-1.998,0.48-3.707,0.18-4.281-0.91c-0.8-1.52,0.918-3.996,3.834-5.531
				c2.918-1.535,5.932-1.547,6.731-0.029c0.799,1.52-0.918,3.996-3.834,5.533C141.13,161.736,140.296,162.049,139.507,162.24z"/>
			<polygon fill="#19160C" points="138.25,161.217 137.482,159.883 137.337,157.754 137.695,156.656 136.476,157.678 
				136.458,159.48 136.875,160.869 137.698,161.967 138.527,162.494 139.715,162.182 			"/>
			<polygon fill="#19160C" points="140.634,160.141 140.022,158.992 139.599,156.873 139.58,155.502 138.572,156.107 
				138.72,158.602 139.138,159.992 139.961,161.088 140.847,161.859 141.98,161.303 			"/>
			<polygon fill="#19160C" points="143.217,158.596 142.43,157.658 142.048,156.063 142.001,154.811 140.851,155.057 
				141.089,157.107 141.507,158.496 142.332,159.592 143.217,160.59 144.119,159.783 			"/>
		</g>
		<g>
			<path fill="#71C2BA" d="M116.445,155.303c-0.334-2.029,0.094-3.711,1.223-4.203c1.574-0.686,3.917,1.209,5.234,4.23
				c1.315,3.023,1.107,6.029-0.466,6.715c-1.575,0.686-3.918-1.209-5.235-4.23C116.83,156.957,116.576,156.102,116.445,155.303z"/>
			<path fill="#71C2BA" d="M115.175,163.123c-2.01-0.43-3.422-1.441-3.467-2.672c-0.065-1.715,2.554-3.207,5.848-3.33
				s6.018,1.168,6.08,2.883c0.066,1.717-2.553,3.207-5.846,3.332C116.857,163.369,115.968,163.293,115.175,163.123z"/>
			<path fill="#FBCB4C" d="M119.539,156.434c1.473-1.432,3.1-2.043,4.146-1.396c1.463,0.9,1.246,3.906-0.484,6.713
				s-4.316,4.35-5.778,3.449s-1.245-3.904,0.485-6.713C118.396,157.691,118.956,156.998,119.539,156.434z"/>
			<polygon fill="#19160C" points="121.142,156.674 122.482,157.432 123.691,159.191 123.941,160.316 124.469,158.816 
				123.568,157.256 122.501,156.271 121.234,155.748 120.252,155.715 119.388,156.59 			"/>
			<polygon fill="#19160C" points="119.638,158.814 120.748,159.49 122.19,161.098 122.904,162.27 123.462,161.234 122.067,159.164 
				121,158.18 119.734,157.656 118.578,157.443 117.886,158.496 			"/>
			<polygon fill="#19160C" points="118.201,161.459 119.355,161.865 120.496,163.043 121.173,164.098 122.037,163.301 
				120.789,161.656 119.721,160.674 118.455,160.148 117.185,159.74 116.818,160.895 			"/>
		</g>
		<g>
			<path fill="#71C2BA" d="M132.412,170.84c0.775,1.902,0.732,3.641-0.258,4.369c-1.383,1.018-4.089-0.307-6.045-2.961
				c-1.954-2.654-2.42-5.631-1.037-6.65c1.383-1.018,4.088,0.309,6.044,2.961C131.669,169.313,132.105,170.088,132.412,170.84z"/>
			<path fill="#71C2BA" d="M131.91,162.932c2.055-0.027,3.656,0.645,3.975,1.834c0.443,1.66-1.777,3.695-4.961,4.547
				c-3.186,0.854-6.127,0.201-6.57-1.459c-0.444-1.658,1.776-3.695,4.961-4.547C130.216,163.064,131.098,162.945,131.91,162.932z"/>
			<path fill="#FBCB4C" d="M129.144,170.424c-1.118,1.725-2.568,2.682-3.734,2.285c-1.625-0.555-2.082-3.533-1.02-6.652
				c1.063-3.121,3.242-5.203,4.866-4.65c1.626,0.553,2.083,3.533,1.021,6.654C129.976,168.943,129.585,169.744,129.144,170.424z"/>
			<polygon fill="#19160C" points="127.527,170.545 126.051,170.105 124.484,168.658 123.986,167.617 123.805,169.197 
				125.033,170.518 126.291,171.242 127.642,171.469 128.607,171.283 129.256,170.238 			"/>
			<polygon fill="#19160C" points="128.517,168.125 127.287,167.713 125.521,166.465 124.563,165.482 124.25,166.617 
				126.072,168.324 127.33,169.047 128.681,169.275 129.855,169.229 130.294,168.045 			"/>
			<polygon fill="#19160C" points="129.33,165.229 128.115,165.088 126.742,164.193 125.846,163.316 125.181,164.285 
				126.763,165.609 128.021,166.332 129.373,166.561 130.701,166.678 130.804,165.471 			"/>
		</g>
		<g>
			<path fill="#71C2BA" d="M117.587,167.279c1.633-1.248,3.32-1.662,4.285-0.898c1.346,1.068,0.775,4.025-1.273,6.609
				c-2.047,2.582-4.799,3.813-6.144,2.746c-1.347-1.066-0.776-4.027,1.272-6.609C116.307,168.396,116.943,167.771,117.587,167.279z"
				/>
			<path fill="#71C2BA" d="M110.089,169.836c-0.566-1.977-0.338-3.697,0.728-4.316c1.484-0.863,4.03,0.746,5.688,3.596
				s1.8,5.859,0.315,6.723c-1.484,0.865-4.031-0.746-5.689-3.594C110.662,171.436,110.313,170.615,110.089,169.836z"/>
			<path fill="#FBCB4C" d="M118.044,170.541c1.956,0.627,3.26,1.775,3.184,3.004c-0.109,1.715-2.862,2.936-6.152,2.729
				c-3.291-0.207-5.871-1.766-5.763-3.477c0.106-1.715,2.862-2.936,6.151-2.729C116.397,170.127,117.271,170.293,118.044,170.541z"
				/>
			<polygon fill="#19160C" points="118.585,172.068 118.546,173.607 117.562,175.502 116.688,176.252 118.259,176.014 
				119.212,174.482 119.58,173.08 119.446,171.715 119.014,170.834 117.835,170.48 			"/>
			<polygon fill="#19160C" points="115.99,171.748 115.916,173.045 115.173,175.074 114.476,176.256 115.653,176.262 
				116.824,174.059 117.191,172.652 117.058,171.289 116.702,170.168 115.447,170.055 			"/>
			<polygon fill="#19160C" points="112.981,171.723 113.166,172.934 112.662,174.494 112.048,175.588 113.16,175.975 114.021,174.1 
				114.388,172.697 114.255,171.332 114.019,170.02 112.829,170.238 			"/>
		</g>
		<g>
			<path fill="#71C2BA" d="M148.389,178.74c0.787-1.898,2.041-3.104,3.26-2.924c1.699,0.25,2.688,3.096,2.209,6.357
				c-0.48,3.262-2.246,5.705-3.945,5.455c-1.697-0.25-2.688-3.096-2.209-6.357C147.84,180.348,148.078,179.49,148.389,178.74z"/>
			<path fill="#71C2BA" d="M143.18,184.709c-1.48-1.426-2.143-3.031-1.533-4.1c0.853-1.49,3.861-1.373,6.724,0.262
				c2.863,1.637,4.492,4.172,3.641,5.66c-0.854,1.492-3.861,1.375-6.727-0.26C144.477,185.807,143.764,185.271,143.18,184.709z"/>
			<path fill="#FBCB4C" d="M150.416,181.334c2.01-0.438,3.711-0.096,4.262,1.006c0.766,1.537-1.006,3.973-3.959,5.443
				c-2.951,1.469-5.963,1.414-6.729-0.123s1.008-3.975,3.959-5.443C148.785,181.801,149.625,181.506,150.416,181.334z"/>
			<polygon fill="#19160C" points="151.652,182.385 152.389,183.736 152.486,185.869 152.105,186.957 153.346,185.963 
				153.404,184.162 153.02,182.762 152.219,181.648 151.404,181.102 150.209,181.387 			"/>
			<polygon fill="#19160C" points="149.244,183.408 149.83,184.568 150.205,186.695 150.193,188.068 151.213,187.484 
				151.123,184.988 150.738,183.59 149.938,182.477 149.068,181.684 147.926,182.215 			"/>
			<polygon fill="#19160C" points="146.629,184.895 147.393,185.85 147.738,187.451 147.756,188.705 148.91,188.484 
				148.719,186.432 148.334,185.031 147.535,183.918 146.674,182.898 145.752,183.686 			"/>
		</g>
	</g>
</g>
</svg>
