<?xml version="1.0" encoding="utf-8"?>
<!-- Generator: Adobe Illustrator 16.0.0, SVG Export Plug-In . SVG Version: 6.00 Build 0)  -->
<!DOCTYPE svg PUBLIC "-//W3C//DTD SVG 1.1//EN" "http://www.w3.org/Graphics/SVG/1.1/DTD/svg11.dtd">
<svg version="1.1" id="Vrstva_1" xmlns="http://www.w3.org/2000/svg" xmlns:xlink="http://www.w3.org/1999/xlink" x="0px" y="0px"
	 width="134.509px" height="98.375px" viewBox="78.195 88.945 134.509 98.375"
	 enable-background="new 78.195 88.945 134.509 98.375" xml:space="preserve">
<g>
	<path fill="#FFFFFF" d="M165.658,139.276c-0.943-0.688-1.221,0.129-1.906,0.025C163.525,140.624,165.383,140.387,165.658,139.276z"
		/>
	<path fill="#FFFFFF" d="M163.678,138.515c1.314-0.263,1.309,0.07,2.566,0.229c0.316-1.434-0.654-1.011-1.729-1.424
		C164.33,137.929,163.844,137.861,163.678,138.515z"/>
	<path d="M135.229,135.541c0.354-0.046,2.014-2.433,3.252-2.544C139.021,132.825,135.451,133.396,135.229,135.541z"/>
	<path fill="none" stroke="#FFD302" d="M164.516,137.32c1.074,0.413,2.045-0.01,1.729,1.424c-1.259-0.159-1.252-0.492-2.565-0.229
		C163.844,137.861,164.33,137.929,164.516,137.32z"/>
	<path fill="none" stroke="#FFD302" d="M161.514,139.201c0.498-0.936,1.201-1.409,2.086-1.476
		C163.363,139.246,162.42,139.182,161.514,139.201z"/>
	<path fill="none" stroke="#FFD302" d="M165.658,139.276c-0.275,1.11-2.133,1.348-1.906,0.025
		C164.438,139.405,164.715,138.588,165.658,139.276z"/>
	<path fill="none" stroke="#FFD302" d="M168.074,142.859c-1.625-0.045-1.201-2.193-0.025-1.904
		C167.949,141.639,168.441,142.059,168.074,142.859z"/>
	<path fill="none" stroke="#FFD302" d="M139.541,170.54c0.139,0.062,0.264,0.124,0.365,0.187
		C139.76,170.674,139.639,170.609,139.541,170.54z"/>
	<path fill="none" stroke="#FFD302" d="M161.514,139.201c0.498-0.936,1.201-1.409,2.086-1.476
		C163.363,139.246,162.42,139.182,161.514,139.201z"/>
	<path fill="none" stroke="#FFD302" d="M165.658,139.276c-0.275,1.11-2.133,1.348-1.906,0.025
		C164.438,139.405,164.715,138.588,165.658,139.276z"/>
	<path fill="none" stroke="#FFD302" d="M164.516,137.32c1.074,0.413,2.045-0.01,1.729,1.424c-1.259-0.159-1.252-0.492-2.565-0.229
		C163.844,137.861,164.33,137.929,164.516,137.32z"/>
	<path fill="none" stroke="#FFD302" d="M139.541,170.54c0.139,0.062,0.264,0.124,0.365,0.187
		C139.76,170.674,139.639,170.609,139.541,170.54z"/>
	<path fill="none" stroke="#FFD302" d="M168.074,142.859c-1.625-0.045-1.201-2.193-0.025-1.904
		C167.949,141.639,168.441,142.059,168.074,142.859z"/>
	<path fill="#535038" d="M157.643,146.275l2.367-9.865c-0.035,0.015-0.07,0.029-0.104,0.043c0.582-0.748-0.709-2.019,0.432-2.11
		c-2.25-6.197-3.896-11.539-10.193-14.924c-23.315-12.526-40.199,22.035-19.348,33.535c3.822,2.104,7.137,2.346,10.699,2.704
		l3.666-0.59c0-0.002,0-0.006-0.002-0.008C150.268,154.259,154.115,150.628,157.643,146.275z M157.643,139.376
		c-3.848-0.437-9.471-1.747-14.235-2.441c-0.427-2.69,0.002-4.718-0.435-7.753c0.656,0.034,1.789,1.146,2.113,0.433
		c-2.289-1.245-4-1.195-5.059,0.33c0.576,0.383,1.377,0.669,0.938,1.5c-1.107,1.32-2.297-1.37-3.15,0.305
		c3.275,0.949-1.965,4.865,0.939,6.433c-0.451,0.01-0.883,0.063-1.244,0.28c1.178,0.061,2.619,0.722,2.695-0.103
		c1.182,6.695,2.537,9.654,3.48,14.619c-12.991,2.608-22.775-9.627-20.261-20.312c4.508-19.157,30.306-16.459,34.318-0.459
		c-0.147,0.688-0.697,0.485-1.039,0.739C158.965,134.222,158.01,136.931,157.643,139.376z M144.348,153.23
		c-0.812-4.844-2.193-9.437-3.279-14.162c0.854-0.738,1.07,1.375,1.652,0.638c0.25-0.659-0.74-0.767-0.152-1.577
		c4.476-0.203,9.978,1.902,14.896,2.695C155.498,148.166,149.979,152.146,144.348,153.23z"/>
	<path fill="none" stroke="#FFD302" d="M164.516,137.32c1.074,0.413,2.045-0.01,1.729,1.424c-1.259-0.159-1.252-0.492-2.565-0.229
		C163.844,137.861,164.33,137.929,164.516,137.32z"/>
	<path fill="none" stroke="#FFD302" d="M165.658,139.276c-0.275,1.11-2.133,1.348-1.906,0.025
		C164.438,139.405,164.715,138.588,165.658,139.276z"/>
	<path fill="none" stroke="#FFD302" d="M139.541,170.54c0.139,0.062,0.264,0.124,0.365,0.187
		C139.76,170.674,139.639,170.609,139.541,170.54z"/>
	<path fill="none" stroke="#FFD302" d="M175.396,174.132c-0.131-0.038-0.271-0.08-0.414-0.124l0.047-0.037
		C175.121,174.02,175.238,174.072,175.396,174.132z"/>
	<path fill="none" stroke="#FFD302" d="M165.658,139.276c-0.275,1.11-2.133,1.348-1.906,0.025
		C164.438,139.405,164.715,138.588,165.658,139.276z"/>
	<path fill="none" stroke="#FFD302" d="M164.516,137.32c1.074,0.413,2.045-0.01,1.729,1.424c-1.259-0.159-1.252-0.492-2.565-0.229
		C163.844,137.861,164.33,137.929,164.516,137.32z"/>
	<path fill="#535038" d="M137.828,169.473c0.338,0.205,1.121,0.67,1.529,0.84c0.434,0.185,1.486,0.438,1.852,0.521
		c0.695,2.637,3.805,2.802,6.303,4.307c-1.453,2.201-4.539-0.477-6.992-1.551c-2.996-1.31-7.373-1.98-8.008-3.838
		C133.922,168.438,136.564,168.913,137.828,169.473z"/>
	<path fill="#FBCB4C" d="M158.646,145.007l-0.306,0.427c0.013-0.015,0.021-0.026,0.035-0.041
		c-3.489,6.741-7.801,11.629-12.076,16.602c0.06-2.49-1.202-4.395-1.146-6.883l-3.666,0.59c0.127,0.014,2.227,5.273,3.844,7.818
		c-2.09,2.696-3.471,6.986-7.627,5.033c-0.01,0.344,0.088,0.645,0.373,0.855c0.139,0.062,0.264,0.124,0.365,0.186
		c-0.146-0.051-0.268-0.111-0.365-0.186c-0.012-0.008-0.025-0.01-0.035-0.016c0.336,0.203,1.117,0.67,1.525,0.84
		c0.436,0.184,1.488,0.436,1.854,0.521c-0.002-0.006-0.004-0.012-0.006-0.016c1.918-1.438,3.435-3.783,4.981-6.051
		c6.957,1.873,17.168,6.403,25.558,9.455l1.565-1.267c-5.854-1.748-18.479-6.457-25.699-9.918
		c4.722-6.071,8.613-10.896,13.177-16.526L158.646,145.007z M146.121,163.443c-2.266-1.734-2.158-4.521-2.592-7.069
		C145.172,158.05,145.951,162.93,146.121,163.443z"/>
	<path fill="#535038" d="M176.793,170.229l-2.139,1.73c-0.506-3.076-3.023-8.377-3.033-8.395c-0.002,0.013-2.506-6.407-3.865-10.016
		c-0.107-0.285-0.754-0.414-0.863-0.709c-0.807-2.168-1.238-4.355-1.854-6.02l1.26-0.299c-0.004,0.006-0.01,0.008-0.014,0.012
		C170.045,154.316,171.922,162.939,176.793,170.229z"/>
	<path fill="#773A0E" d="M163.281,144.712l-1.006,6.649l-1.642,7.309l0.753,5.485l0.946,7.26l-0.58,3.567l-2.735,0.699l-0.115,2.428
		l3.572,0.74l3.073,0.104l3.734,0.737l0.67,1.281l2.467,2.055c0,0,4.029-0.562,4.679-0.573c0.646-0.013,3.036-1.836,3.036-1.836
		l-0.096-5.013l-0.313-8.08c0,0-0.56-3.871-0.57-4.518c-0.012-0.646,2.549-10.562,2.549-10.562l-0.301-7.271l-2.188-4.488
		l-12.756,1.052L163.281,144.712z"/>
	<path fill="#E7C491" d="M166.658,92.569l-3.695,1.364l-1.576,2.133l-0.109,2.751l0.855,2.409l0.523,2.093l0.186,1.29l0.971-0.019
		l0.347,1.126c0,0-0.152,0.488,0.338,0.802c0.491,0.314,0.817,0.471,1.303,0.461c0.484-0.009,1.14,0.302,1.14,0.302
		s3.283,2.525,3.143,3.66c-0.141,1.135,4.678-0.575,4.678-0.575l0.727-4.38l-1.823-2.391l-0.683-1.767l0.613-1.791l0.273-2.593
		l-0.686-2.089l-2.941-1.562L166.658,92.569z"/>
	<path fill="#535038" d="M174.955,103.733l-3.094-1.073l0.949-1.149l-0.688-2.09l-1.938,0.036l-1.125,0.345l0.021,1.132
		l-1.791-0.612l-0.985-0.79l-1.63-0.615l-0.021-1.132l-1.783-0.29l-0.818-0.47l-2.125-1.254c0,0-0.344-0.964,0.785-1.146
		s2.865-2.479,2.865-2.479l3.184-2.648l3.547-0.553l3.267,1.556l1.18,2.564l0.869,3.218l-0.103,3.075l-0.949,1.149L174.955,103.733z
		"/>
	<polygon fill="#B0D4A3" points="169.203,107.4 171.305,107.36 173.711,106.345 175.641,105.822 178.576,107.061 181.234,110.729 
		182.43,114.104 183.135,117.163 183.498,119.258 184.35,121.507 184.912,125.539 183.023,128.324 181.416,128.839 181.904,145.973 
		180.021,149.081 170.807,149.257 165.137,148.718 162.525,147.473 161.922,124.197 158.213,124.752 155.775,124.151 
		154.479,124.015 154.375,118.519 158.898,118.271 161.068,113.377 164.23,109.598 	"/>
	<polygon fill="#E7C491" points="154.576,122.233 154.512,118.839 151.74,117.76 148.484,116.527 145.553,115.451 144.035,114.128 
		142.949,114.691 144.105,115.964 142.66,116.476 141.861,116.977 142.688,117.932 144.465,117.735 146.568,117.857 
		149.186,119.425 	"/>
	<polygon fill="#E7C491" points="176.168,125.058 177.471,125.518 177.834,127.614 177.539,129.075 171.697,128.054 
		170.096,128.894 169.297,129.393 168.48,128.924 167.174,128.301 166.518,127.829 166.018,127.03 165.508,125.745 165.166,124.782 
		168.539,123.586 170.982,124.51 172.291,125.293 	"/>
	<path fill="#535038" d="M165.029,146.802l1.26-0.299c3.398-1.833,3.916-7.157,1.764-9.548c0.799-1.289,2.754-2.557,2.439-4.373
		c-2.385-1.051-2.781,2.372-4.297,3.278c-1.543-0.592-3.082-1.184-4.627-1.778c-1.205,0.121,1.32,0.842,1.854,1.094
		c-0.655,0.466-2.112,0.706-3.432,1.256l-2.365,9.866c0.237-0.294,0.474-0.587,0.705-0.886l0.305-0.426l2.355,1.424
		c0.004-0.008,0.012-0.016,0.018-0.023c1.63,0.79,2.773,0.482,4.019,0.407C165.027,146.796,165.029,146.799,165.029,146.802z
		 M162.279,138.151c0.686,0.1,0.963-0.717,1.908-0.026C163.912,139.234,162.055,139.471,162.279,138.151z M160.043,138.048
		c0.5-0.935,1.199-1.409,2.084-1.474C161.891,138.094,160.949,138.03,160.043,138.048z M164.773,137.59
		c-1.258-0.157-1.252-0.492-2.568-0.229c0.168-0.653,0.652-0.585,0.84-1.195C164.119,136.578,165.088,136.159,164.773,137.59z
		 M164.418,145.421c-0.178,0.896-2.234,0.651-2.238-0.101C162.881,145.252,163.373,144.721,164.418,145.421z M166.578,139.802
		c-0.102,0.684,0.393,1.104,0.025,1.907C164.979,141.661,165.402,139.513,166.578,139.802z M167.188,141.174
		c0.332-1.06-0.334-1.678-0.561-2.49C168.365,138.615,168.902,141.475,167.188,141.174z M168.51,141.684
		c-0.461,0.609-0.428,2.33-1.221,2.186C166.676,142.915,167.332,141.702,168.51,141.684z M165.662,145.143
		c0.109-0.859,0.086-1.735,1.297-1.398C166.693,144.582,166.404,145.37,165.662,145.143z"/>
	<path fill="#535038" d="M197.57,138.176c-17.744-4.531-30.379,18.385-19.574,31.172c-0.352,0.41-0.787,0.637-1.143,1.038
		l0.895,1.474c-0.217-0.402-0.289-0.74-0.057-0.732c0.418,0.924,0.703,0.102,1.449,0.178c-0.443,0.743,0.327,0.949-0.306,1.779
		c-0.293-0.145-0.625-0.504-0.879-0.88l0.967,1.595c0.242-1.48,1.269-1.195,1.869-1.859c1.267,0.355,2.185,1.483,3.051,1.933
		C209.352,187.074,226.58,145.584,197.57,138.176z M208.656,165.581c-5.475,9.928-20.166,11.831-28.041,2.875
		c4.275-3.709,5.783-9.931,11.363-10.806c0.336,1.113,2.489,1.123,2.694-0.103c-0.653-3.587-2.627-1.476-5.289-2.034
		c1.132,0.791,1.544,0.617,2.188,1.221c-4.596,2.199-8.42,6.127-12.025,10.553c-11.363-12.561,5.672-33.836,19.703-26.569
		c0.543,0.216-0.168,0.988,0.279,1.247c0.229-0.508,0.396-1.163,1.041-0.738C209.584,146.291,214.141,155.636,208.656,165.581z"/>
	<path fill="#535038" d="M177.748,171.857l-0.895-1.473c-0.008,0.01-0.019,0.018-0.027,0.028c-0.021-0.034-0.043-0.067-0.066-0.103
		l-2.137,1.729c0.053,0.317,0.078,0.642,0.068,0.967c-0.219-0.183-0.558-0.292-0.844-0.338l-0.312,0.251
		c0.09,0.047,0.207,0.102,0.364,0.161c-0.131-0.038-0.272-0.082-0.411-0.124l-1.564,1.268c0.115,0.043,0.236,0.086,0.353,0.129
		c0.342,1.01,0.373,1.072,1.016,2.287c-0.047,0.305-0.248,0.262-0.457,0.205c-1.814-0.59-2.229,1.971-3.383,2.871
		c3.971,3.424,11.977,2.102,11.873,7.602c3.164,0.125,3.123-6.952,5.951-7.576c-0.596-1.297-1.922,0.99-3.154,0.306
		c-0.986,1.354,0.668,2.363-0.812,3.103c-2.886-1.393,1.19-8.186-4.398-9.279c0.002-0.026,0.008-0.049,0.012-0.073l-0.967-1.595
		C177.877,172.087,177.807,171.971,177.748,171.857z M179.471,176.365c1.428,0.732,1.445,2.095,0.838,3.734
		c-0.438,0.502-2.182,1.189-2.363,0.229C179.281,179.718,178.863,177.561,179.471,176.365z M177.031,180.734
		c1.117-1.76-0.264-5.077,1.246-5.213C179.807,176.221,177.883,179.889,177.031,180.734z M176.752,174.559
		c0.555,1.672,0.385,3.664-0.383,5.922c-0.783-0.715-3.465,0.524-4.752-1.447c0.865-0.988,1.996-2.332,2.262-2.924
		c-0.061,0.39,0.238,1.002,0.535,0.586C174.119,175.995,175.594,174.039,176.752,174.559z"/>
	<path fill="#773A0E" d="M94.195,169.032l-3.375,1.5l-3.125,0.5l-2.75,1.125l1,3.75l1.75,2.75l2.125,1.25l0.375,1.875l1,1.75l1.5,1
		c0,0,1.125,0.5,1.875,0.5s3.625-0.25,3.625-0.25s1.625-0.375,2-0.5s0.75-0.125,0.875-0.625s0.125-1.5,0.125-1.5s-1-1.25-1.5-1.25
		s-2-0.625-2-0.625s-0.25-0.625,0.25-1.25s0.875-2.75,0.875-2.75l0.125-3.125l-2.25-2.5L94.195,169.032z"/>
	<path fill="#535038" d="M93.945,152.782l16.875,0.625l5.875,1.125l4.75,0.875l3,1.5l0.5,1.875l0.375,1.875c0,0-0.375,3-0.875,3.5
		s-5.5,3-5.5,3l-2.25,1.75l-0.125,1.125l-2.5,3.125l-4.125,1.75l-0.875-1.625l-6.5,3.75l-6-2.875l-2.75-2.5l-0.75-2.125
		l-3.125,0.625l-5-1.5l-2.875-3.75c0,0,0.375-4.5,0.625-5s6-4.5,6.625-4.875S93.945,152.782,93.945,152.782z"/>
	<path fill="#535038" d="M138.82,138.032l-1.75-0.25l-1.125-1.25l-0.125-1.25l0.5-1.375l0.875-0.625l0.125,0.875v1.25l0.5,1.125
		l1.25,0.125c0,0,0.875-0.25,0.75-0.875s-0.375-1.75-0.375-1.75v-0.5l2,0.625l0.75,1.125v1.375l-0.75,0.875l0.625,1.875l1.5,2.125
		c0,0,1,1.375,1.25,1.75s1.5,1.875,1.5,1.875l0.25,1.5c0,0-0.75,0.875-1.125,0.625s-1.375-1-1.375-1l-1.875-2l-2-3.125
		L138.82,138.032z"/>
	<g>
		<path fill="#E6AF89" d="M106.57,122.782l1.584-7.644c0,0,5.188-1.431,6.082-1.252c0.893,0.179,3.576,0.716,3.576,0.716
			l1.432,2.146l0.715,1.073l0.486,2.836l-0.5,1.5l0.875,2.375l-1.625,0.5l-0.5,0.875v0.875l-0.875,0.375l0.125,0.875l-0.625,1.125
			l-1.75,0.25l-1.875,1.375l-1.625,1.125l-0.25,4.75l1.875,3.25l3.25,4.375l2.5,3l1.25,1.625l5.625-1.375l4.25-1.875
			c0,0,2.75-1.625,3.5-2s2.875-1.375,2.875-1.375l2-1.875v-1.625l0.875-1.75l2.125-0.25l0.875,1l0.125,1l-1,0.75l1,0.75
			c0,0,0.5-0.125,0.5,0.25s0.125,1.125,0.125,1.125l0.125,1.25c0,0-0.125,0.625-0.625,1.125s-1,0.75-1,0.75l-4.875,2.5l-4.125,3
			l-3.75,2.625l-3.625,2.25l-2.375,1.25c0,0-2.75-1.25-3.25-1.25s-4.375-2-4.75-2.125s-4.125-1.875-4.125-1.875l-4.5-1.625
			l-4.625-5.125l1.75-15.625L106.57,122.782z"/>
		<path fill="#E6AF89" d="M109.57,136.907l5.375,0.125l4.125-1.25l1.5-0.375l1-2.375l1-1.375l1.75-0.625l1.5,0.25
			c0,0,0.125,1-0.25,1s-1.75,0.75-1.75,0.75l-0.625,0.875v1.375c0,0,0.375,0.5,0.875,0s1.25-1.125,1.25-1.125s0.5-0.25,0.625-0.75
			s0.625-1.25,0.625-1.25l0.875-0.125c0,0,0.5,0.5,0.5,0.875s0,0.75,0,1.125s-0.5,0.875-0.625,1.375s-0.375,1-0.75,1.25
			s-0.625,0.625-1,0.75s-3.25,1.625-3.25,1.625l-1.875,0.375c0,0-0.625,0.25-1.25,0.75s-1,0.875-1.5,1.375s-4.375,3-4.375,3
			l-2.625,0.5l-2.75-1l-0.875-4.5L109.57,136.907z"/>
	</g>
	<polygon fill="#535038" points="104.893,122.074 104.658,118.108 104.426,114.609 106.059,112.041 109.326,110.408 
		113.525,110.408 117.494,112.509 120.76,114.842 121.693,116.241 118.193,117.175 117.494,118.575 118.66,119.043 117.494,120.442 
		116.561,121.841 114.926,121.841 113.059,119.51 111.193,120.675 110.025,123.242 109.094,124.644 106.76,124.644 105.594,123.709 
			"/>
	<path fill="#A37D2F" d="M105.57,125.407l-2.5,0.125l-2.5,0.75l-3.5,1.125l-5.625,6.125l-4.75,6.75l-5,11.75l-2.375,6.625
		c0,0-0.75,4-0.75,4.375s-0.375,3.125-0.375,3.125l3.125,1.125c0,0,3,1.375,3.625,1.375s6,0,6.5-0.5s3-2.625,3-2.625l-1.5-3.625
		c0,0-0.75-0.25-0.125-1.125s3.25-3.25,3.75-3.5s2-1.125,2.375-1.25s3.25-0.5,3.625-0.625s3.625-0.125,4.25-0.125s3.25,0,3.25,0
		l-0.25-3.5l3.375,0.5c0,0,1.5,0.375,1.875,0s1.875-1.75,2.125-2.125s1.5-2,1.5-2l0.875-3l-5.5-4.5l-2.375-2.75l-0.625-1.125
		l1.625-1.625l-2-3.625L105.57,125.407z"/>
	<path fill="#773A0E" d="M108.695,171.532c0,0-0.5,2.625-0.625,3.375s-0.5,2-0.5,2s-0.875,1.75-0.75,2.25s0.5,1.125,1.375,1.25
		s4.625,0.5,4.625,0.5s3.125-0.375,3.625-0.5s4.25,0,5.125,0s3.375,0.125,3.75,0s1.375-2.625,1.375-2.625s0.5-1.25,0-1.5
		s-3.75-0.375-3.75-0.375l-3-1.25l-2.125-1.875l-0.125-1.5l-7.25,0.125L108.695,171.532z"/>
</g>
</svg>
