<?xml version="1.0" encoding="utf-8"?>
<!-- Generator: Adobe Illustrator 16.0.0, SVG Export Plug-In . SVG Version: 6.00 Build 0)  -->
<!DOCTYPE svg PUBLIC "-//W3C//DTD SVG 1.1//EN" "http://www.w3.org/Graphics/SVG/1.1/DTD/svg11.dtd">
<svg version="1.1" id="Vrstva_1" xmlns="http://www.w3.org/2000/svg" xmlns:xlink="http://www.w3.org/1999/xlink" x="0px" y="0px"
	 width="76.834px" height="128.632px" viewBox="86.381 73.345 76.834 128.632"
	 enable-background="new 86.381 73.345 76.834 128.632" xml:space="preserve">
<g>
	<path fill="#E6AF89" d="M130.214,91.905l-2.5-2.831l-0.5-3l-1.5-2.5l0.667-2.669V78.74l2.333-2.335l4.333-1.331l2.334,0.831
		l0.666,2.335l1.5,2.665l1,0.169l0.167,2.831l-1.667,1.335v3.5l0.834,1.834l-0.167,2.666l0.167,4.165c0,0-2.334,3.335-2.834,3.335
		s-4.333-3.335-4.333-3.335l-3.167-2.665l2.334-0.835L130.214,91.905z"/>
	<path fill="#E6AF89" d="M143.108,166.096l0.511,2.202v3.73l1.188,6.104c0,0,2.373,4.916,2.713,5.427
		c0.338,0.508,1.524,4.407,1.524,4.407l0.849,3.562l-0.68,1.187l1.355,1.697l-1.019,2.373l2.714,1.864l2.373,1.187l2.034-0.168
		h1.695l0.848,0.338l1.019,0.17l1.188-0.34l-3.394-3.562l-2.032-1.694l-1.695-4.916l-0.679-14.582l-1.525-6.609l-1.525-3.73
		l-4.746-2.543L143.108,166.096z"/>
	<path fill="#E6AF89" d="M128.021,164.23l-0.508,6.443l2.204,7.631l2.882,9.662l-0.509,2.543l-2.543,0.85l-2.713,1.018l-1.524,0.508
		l-2.035,1.019l0.848,0.681l1.355,0.168l1.526,0.34h1.695l1.018-0.17l1.017,0.512c0,0,1.356-0.174,2.035-0.342
		c0.678-0.17,3.899-0.17,3.899-0.17l1.524-0.508c0,0,0.17-1.865-0.17-2.543c-0.338-0.681-1.524-4.748-1.524-4.748l-0.509-4.238
		l0.509-4.406v-5.936l-1.356-3.729l-0.509-3.562l-0.339-3.562L128.021,164.23z"/>
	<path fill="#535038" d="M136.158,88.44l4.577-1.187l8.646,1.695c0,0,2.715,0.848,3.225,0.848c0.508,0,5.424,2.373,5.424,2.373
		l0.68,5.767l-1.018,5.086v5.765l0.508,6.442l-1.355,7.97c0,0,0.17,4.407,0,5.086c-0.17,0.678-1.018,5.086-1.018,5.086
		s-0.51,3.393-1.355,3.899c-0.848,0.507-3.223,1.694-3.729,1.864c-0.51,0.171-1.865,0.849-2.885,1.019
		c-1.018,0.171-2.033,0-5.086,0.849c-3.051,0.848-5.424,1.863-6.104,0.848c-0.68-1.018-6.951-10.852-6.951-11.529
		c0-0.677,0.678-12.209,1.186-14.072c0.511-1.865,1.697-17.633,1.697-17.633L136.158,88.44z"/>
	<path fill="#535038" d="M121.578,132.865l-1.524,3.561l0.508,7.291l0.678,5.767c0,0-0.848,2.711-0.848,3.392
		c0,0.678,0.51,5.936,0.51,6.951s1.354,5.934,1.354,5.934l2.543,1.865l4.748,0.17l3.729-1.019l1.355-1.524l3.561,1.695l1.525,2.032
		l3.9-0.681c0,0,4.916-1.522,5.595-1.522c0.681,0,2.884-0.848,2.884-0.848s0-2.884-0.34-3.392c-0.34-0.51-1.863-4.238-1.863-4.238
		s-1.526-6.104-1.526-6.612c0-0.508-0.169-0.849,0-1.354c0.169-0.51-0.849-5.767-0.849-5.767s-0.338-3.729-0.51-4.579
		c-0.17-0.848-0.848-4.576-0.848-4.576v-3.9L121.578,132.865z"/>
	<polygon fill="#E6AF89" points="112.215,111.24 111.881,112.405 101.047,117.071 95.047,117.571 92.881,116.071 89.215,115.905 
		87.881,115.24 86.881,115.24 86.381,116.24 88.215,116.905 87.547,118.405 87.215,119.571 88.215,119.24 88.215,120.24 
		89.215,120.24 88.715,120.905 89.715,121.071 89.215,121.905 90.715,122.24 94.047,121.74 96.715,120.24 109.381,119.405 
		115.715,117.571 117.715,115.571 119.047,112.74 	"/>
	<polygon fill="#FBCB4C" points="130.715,93.571 124.215,95.405 116.215,104.071 112.215,111.24 117.715,115.571 124.715,109.24 
		124.047,119.74 121.881,125.405 120.715,131.24 120.047,134.905 134.547,137.905 140.547,136.405 144.715,133.571 146.381,133.24 
		146.047,122.74 147.047,117.571 148.881,108.905 151.715,112.24 160.047,109.405 151.881,95.405 139.047,90.571 136.215,93.24 
		132.881,94.74 	"/>
	<polygon fill="#535038" points="143.789,91.494 142.093,99.123 143.215,108.905 145.146,114.042 147.01,121.333 149.383,120.655 
		148.026,105.396 148.026,93.358 150.229,90.985 	"/>
	<path fill="#535038" d="M128.19,89.628l-2.375,2.373l-2.713,3.899l-1.524,4.748l-0.849,4.916l0.679,4.408
		c0,0-0.339,5.086-0.171,5.596c0.171,0.509,0.171,4.408,0.171,4.408l0.17,3.392l0.848,0.338l1.621-3.968l0.923-9.426l1.694-7.121
		l2.205-8.479l1.345-2.809L128.19,89.628z"/>
	<path fill="#535038" d="M126.699,82.31l0.176-3.342l0.968-0.879l2.022-0.615l3.34,0.088l2.286,0.791l-0.088,1.67l-0.088,1.145
		l0.703-0.176l0.088,0.967l0.176,1.056c0,0,0.791,0.264,0.791,0c0-0.265-0.088-1.229-0.088-1.229l0.439-0.527
		c0,0,0.264-0.264,0.264-0.703c0-0.441-0.264-2.375-0.264-2.375l-0.354-1.846l-1.055-2.021l-3.429-0.967l-1.935,0.352
		c0,0-1.67,0.791-2.021,1.055c-0.351,0.265-1.318,0.791-1.406,1.056c-0.088,0.264-0.791,1.144-0.791,1.405
		c0,0.264-0.615,1.759-0.615,1.759l-0.264,1.143l-0.089,1.673l0.88,1.143L126.699,82.31z"/>
	<path fill="#535038" d="M129.547,191.359l1.791,0.613c0,0,1.539,0.189,1.828,0.189s1.635,0,2.021,0c0.385,0,1.059,0,1.059,0
		l1.25-0.479l0.529,0.186l0.336,1.449v1.443l-0.287,0.963l-3.656,0.189l-4.617,0.289h-4.425l-3.079-0.386l-1.635-0.577l0.096-1.058
		l1.059-0.675h2.213l3.56-1.538L129.547,191.359z"/>
	<path fill="#535038" d="M149.903,195.436l-0.576,2.31l0.48,1.346l1.826,1.154c0,0,1.827,0.479,2.309,0.578
		c0.481,0.096,2.215,0.963,2.215,0.963s1.251,0.19,1.537,0.19c0.289,0,1.828-0.097,2.117-0.097s1.636,0,1.636,0l1.348,0.097
		l0.19-1.442c0,0-0.19-0.964-0.575-1.06c-0.386-0.097-1.443-0.865-1.731-1.058c-0.287-0.192-1.925-1.924-1.925-1.924l-1.539-1.252
		l-1.729,0.578l-1.637,0.096h-2.5L149.903,195.436z"/>
	<polygon fill="#E6AF89" points="159.381,109.405 154.047,110.24 150.881,111.905 145.047,112.24 143.215,108.905 140.381,108.571 
		137.881,108.571 137.381,111.24 138.215,112.74 138.715,113.905 138.881,114.74 140.215,114.74 140.381,113.905 141.047,115.071 
		143.881,116.24 152.047,116.905 160.047,115.905 163.215,114.071 160.047,109.405 	"/>
</g>
</svg>
