<svg viewBox="0 0 1200 242" width="150" xmlns="http://www.w3.org/2000/svg">
  <g fill="#F1F1F1" fill-rule="nonzero">
    <path d="m720.999 108.815c-35.169 45.337-24.65 90.349 23.447 113.344 0 0-22.099-39.94 6.375-81.674 28.473-41.729 27.532-52.543 24.458-58.163 0 0 66.752 66.937 7.828 142.678 0 0 132.374-68.837-17.875-206.105 0 0-9.071 44.594-44.233 89.92z" />
    <path d="m776.04 136.871s-33.18 37.324-11.401 74.648c0 0 19.7-21.774 11.401-74.649m-642.804 84.295 8.115-77.205c1.467-13.964-1.561-24.575-9.086-31.845-7.525-7.269-19.208-10.907-35.054-10.907-10.765 0-20.769 1.825-30.023 5.457l5.959-56.71h-36.856l-17.994 171.21h36.856l10.108-96.184c6.076-2.469 12.387-3.707 18.933-3.707 15.12 0 21.887 7.565 20.298 22.686l-8.113 77.205zm139.406-58.534c2.037-19.374-1.247-34.495-9.847-45.349-8.6-10.861-22.788-16.289-42.56-16.289-9.742 0-18.65 1.383-26.719 4.143-8.068 2.761-15.103 6.73-21.094 11.89-5.994 5.16-10.84 11.482-14.539 18.967-3.695 7.496-6.046 16.032-7.054 25.632-1.041 9.89-.399 18.683 1.914 26.388 2.322 7.705 6.105 14.219 11.369 19.519 5.253 5.306 11.916 9.35 19.987 12.104 8.072 2.761 17.41 4.15 28.027 4.15 9.306 0 18.206-.657 26.708-1.947 8.489-1.296 16.381-3.382 23.662-6.27l-5.425-21.013c-5.012 2.04-10.855 3.673-17.523 4.905-6.674 1.237-13.286 1.859-19.824 1.859-9.6 0-17.511-2.225-23.727-6.671-6.223-4.44-9.425-11.331-9.605-20.652zm-87.11-5.37.276-2.615c1.13-10.762 4.41-19.159 9.841-25.19 5.436-6.032 12.293-9.048 20.582-9.048 8.29 0 14.27 2.539 17.954 7.63 3.684 5.09 5.003 12.575 3.963 22.465zm206.189-13.301c.81-7.706.23-14.289-1.738-19.74-1.975-5.451-5.145-9.885-9.509-13.308-4.367-3.411-9.882-5.921-16.55-7.519s-14.284-2.4-22.866-2.4c-18.029 0-35.041 2.76-51.032 8.286l5.86 18.974c5.735-2.034 11.942-3.673 18.619-4.911 6.668-1.232 13.129-1.847 19.382-1.847 8.141 0 14.26 1.272 18.357 3.811 4.094 2.551 5.808 7.026 5.134 13.412l-.573 5.457c-10.706.872-20.91 2.15-30.612 3.818-9.696 1.673-18.308 4.073-25.836 7.2-7.522 3.12-13.705 7.234-18.522 12.324-4.826 5.085-7.647 11.553-8.473 19.41-.674 6.398.163 11.918 2.508 16.572 2.347 4.649 5.98 8.473 10.904 11.448 4.917 2.987 11.044 5.201 18.384 6.654 7.333 1.453 15.654 2.185 24.961 2.185 10.174 0 19.952-.692 29.331-2.075 9.381-1.377 17.627-3.458 24.754-6.218zm-41.035 58.447c-2.277.877-4.927 1.522-7.949 1.964-3.027.436-6.145.657-9.338.657-8.289 0-14.638-1.529-19.037-4.586-4.411-3.05-6.253-7.989-5.535-14.823.52-4.945 2.002-9.019 4.451-12.221 2.441-3.196 5.689-5.741 9.745-7.63 4.048-1.888 8.772-3.306 14.185-4.253 5.401-.941 11.41-1.703 18.017-2.29zm135.313-100.542c-2.005-.285-4.565-.506-7.674-.657-3.108-.139-6.119-.215-9.027-.215-11.776 0-22.355.657-31.719 1.964-9.373 1.302-18.212 3.417-26.507 6.322l-11.762 111.886h36.859l10.245-97.485c1.819-.727 3.949-1.273 6.384-1.639 2.443-.361 4.968-.546 7.586-.546 2.76 0 5.57.22 8.435.656 2.861.43 5.485 1.086 7.868 1.964zm64.107 118.422 2.199-20.931c-1.519.581-2.975.947-4.369 1.086-1.395.152-2.749.222-4.057.222-4.796 0-8.304-1.238-10.518-3.708-2.21-2.475-3.126-5.526-2.745-9.164l6.694-63.677h22.904l2.153-20.507h-22.901l3.55-33.808-37.751 8.513-2.658 25.295h-16.791l-2.156 20.507h16.794l-6.648 63.247c-.552 5.236-.293 10.03.775 14.394 1.067 4.358 3.028 8.176 5.884 11.448 2.853 3.271 6.733 5.816 11.631 7.635 4.896 1.814 10.983 2.726 18.255 2.726 3.629 0 7.186-.256 10.652-.761 3.469-.512 6.502-1.349 9.103-2.517zm407.151.878 8.095-76.99c1.586-15.12-2.488-26.097-12.244-32.931-9.751-6.834-24.22-10.251-43.414-10.251-9.89 0-19.595.692-29.113 2.075-9.525 1.377-18.363 3.527-26.521 6.432l-11.739 111.665h36.86l10.198-97.044c2.562-.878 5.392-1.534 8.496-1.97 3.102-.436 6.101-.656 9.006-.656 7.997 0 13.807 1.784 17.433 5.357 3.627 3.568 5.033 9.216 4.219 16.934l-8.135 77.379zm139.406-58.534c2.04-19.374-1.249-34.495-9.838-45.349-8.612-10.861-22.797-16.289-42.571-16.289-9.74 0-18.642 1.383-26.708 4.143-8.077 2.761-15.108 6.73-21.105 11.89-5.991 5.16-10.838 11.482-14.528 18.967-3.696 7.496-6.049 16.032-7.054 25.632-1.046 9.89-.407 18.683 1.911 26.388 2.319 7.705 6.096 14.219 11.361 19.519 5.253 5.306 11.919 9.35 19.99 12.104 8.071 2.761 17.416 4.15 28.032 4.15 9.297 0 18.2-.657 26.701-1.947 8.497-1.296 16.387-3.382 23.669-6.27l-5.427-21.013c-5.015 2.04-10.85 3.673-17.526 4.905-6.671 1.237-13.285 1.859-19.828 1.859-9.588 0-17.503-2.225-23.72-6.671-6.224-4.44-9.426-11.331-9.611-20.652zm-87.113-5.37.279-2.615c1.128-10.762 4.411-19.159 9.844-25.19 5.433-6.032 12.296-9.048 20.583-9.048 8.286 0 14.265 2.539 17.95 7.63 3.684 5.09 5.003 12.575 3.963 22.465zm160.442 63.026 2.202-20.931c-1.516.581-2.969.947-4.369 1.086-1.395.152-2.749.222-4.057.222-4.793 0-8.303-1.238-10.518-3.708-2.207-2.475-3.125-5.526-2.742-9.164l6.688-63.677h22.907l2.156-20.507h-22.901l3.551-33.808-37.754 8.513-2.656 25.295h-16.794l-2.156 20.507h16.794l-6.648 63.247c-.546 5.236-.29 10.03.779 14.394 1.069 4.358 3.022 8.176 5.881 11.448 2.853 3.271 6.735 5.816 11.633 7.635 4.893 1.814 10.983 2.726 18.253 2.726 3.631 0 7.188-.256 10.663-.761 3.463-.512 6.497-1.349 9.088-2.517zm-493.808.826 8.112-77.211c1.465-13.958-1.557-24.569-9.083-31.839-7.524-7.269-19.211-10.907-35.057-10.907-10.762 0-20.769 1.819-30.02 5.457l5.962-56.71h-36.862l-17.994 171.21h36.862l10.114-96.184c6.067-2.469 12.378-3.707 18.921-3.707 15.12 0 21.89 7.56 20.304 22.68l-8.118 77.211z" />
  </g>
</svg>
