<svg xmlns="http://www.w3.org/2000/svg" width="146" height="26" viewBox="0 0 146 26">
    <defs>
        <linearGradient id="prefix__a" x1="50%" x2="50%" y1="0%" y2="100%">
            <stop offset="0%" stop-color="#FF4501"/>
            <stop offset="100%" stop-color="#EC1C24"/>
        </linearGradient>
    </defs>
    <g fill="none">
        <path fill="url(#prefix__a)" d="M93.367 0C112.148 17.159 95.6 25.763 95.6 25.763c7.366-9.468-.978-17.835-.978-17.835.384.703.502 2.055-3.058 7.27-3.559 5.218-.796 10.21-.796 10.21-6.013-2.874-7.327-8.5-2.931-14.168C92.233 5.574 93.367 0 93.367 0zm1.35 14.747c1.038 6.61-1.424 9.331-1.424 9.331-2.723-4.665 1.425-9.331 1.425-9.331z"/>
        <path fill="#626260" d="M14.367 25.284l1.015-9.65c.183-1.746-.195-3.073-1.136-3.982-.94-.908-2.401-1.363-4.382-1.363-1.345 0-2.596.228-3.753.682l.745-7.088H2.25L0 25.282h4.607L5.87 13.262c.752-.307 1.556-.465 2.367-.464 1.89 0 2.736.946 2.537 2.836l-1.014 9.65h4.607zm17.426-7.317c.255-2.422-.156-4.312-1.23-5.669-1.076-1.357-2.85-2.036-5.32-2.036-1.218 0-2.332.173-3.34.518-1.01.345-1.888.841-2.637 1.486-.75.645-1.355 1.436-1.818 2.371-.462.937-.756 2.004-.881 3.204-.13 1.236-.05 2.336.239 3.299.29.963.763 1.777 1.42 2.44.658.663 1.49 1.168 2.5 1.513 1.008.345 2.175.518 3.503.518 1.163 0 2.275-.082 3.338-.243 1.061-.162 2.048-.423 2.958-.784l-.678-2.626c-.627.255-1.357.459-2.19.613-.835.154-1.661.232-2.479.232-1.2 0-2.189-.278-2.966-.834-.777-.555-1.178-1.416-1.2-2.581l10.781-1.421zm-10.889-.671l.035-.327c.141-1.345.551-2.395 1.23-3.149.68-.754 1.537-1.13 2.573-1.13s1.784.317 2.244.953c.46.636.625 1.572.495 2.808l-6.577.845zm25.774-1.663c.101-.963.029-1.786-.217-2.467-.247-.682-.643-1.236-1.189-1.664-.546-.426-1.235-.74-2.069-.94-.833-.2-1.785-.3-2.858-.3-2.253 0-4.38.345-6.379 1.036l.733 2.372c.717-.255 1.492-.46 2.327-.614.833-.154 1.641-.231 2.423-.231 1.017 0 1.782.159 2.294.476.512.32.726.879.642 1.677l-.072.682c-1.338.109-2.613.269-3.826.477-1.212.21-2.288.51-3.23.9-.94.39-1.713.905-2.315 1.54-.603.636-.956 1.445-1.059 2.427-.084.8.02 1.49.314 2.072.293.58.747 1.059 1.363 1.43.614.374 1.38.65 2.298.832.916.182 1.956.273 3.12.273 1.271 0 2.494-.086 3.666-.259 1.173-.172 2.203-.432 3.094-.777l.94-8.942zm-5.13 7.306c-.284.11-.615.19-.993.245-.387.056-.777.083-1.167.083-1.036 0-1.83-.191-2.38-.574-.551-.38-.782-.998-.692-1.853.065-.618.25-1.127.557-1.527.305-.4.71-.718 1.218-.954.506-.236 1.096-.413 1.773-.532.675-.117 1.426-.212 2.252-.286l-.567 5.398zm16.915-12.568c-.25-.035-.57-.063-.96-.082-.375-.017-.752-.026-1.128-.027-1.472 0-2.794.082-3.965.246-1.171.163-2.276.427-3.313.79l-1.47 13.986h4.607l1.28-12.186c.228-.09.494-.159.799-.205.314-.046.63-.069.948-.068.345 0 .696.027 1.054.082.358.054.686.136.984.245l1.164-2.78zm8.013 14.803l.275-2.616c-.19.072-.372.118-.546.135-.169.019-.338.028-.507.028-.6 0-1.038-.155-1.315-.463-.276-.31-.39-.691-.343-1.146l.837-7.96h2.863l.269-2.563h-2.863l.444-4.226-4.719 1.064-.332 3.162h-2.1l-.269 2.563h2.1l-.831 7.906c-.07.655-.037 1.254.096 1.8.134.544.379 1.022.736 1.43.357.41.842.728 1.454.955.612.227 1.373.34 2.282.34.453 0 .898-.031 1.331-.094.434-.064.813-.169 1.138-.315zm50.894.11l1.012-9.624c.198-1.89-.311-3.262-1.53-4.116-1.22-.855-3.028-1.282-5.427-1.282-1.237 0-2.45.087-3.64.26-1.19.172-2.295.44-3.315.804l-1.467 13.958h4.608l1.274-12.13c.32-.11.674-.193 1.062-.247.388-.055.763-.082 1.126-.082 1 0 1.726.223 2.18.67.453.446.628 1.152.526 2.116l-1.016 9.673h4.607zm17.426-7.317c.255-2.422-.156-4.312-1.23-5.669-1.077-1.357-2.85-2.036-5.321-2.036-1.218 0-2.33.173-3.339.518-1.01.345-1.888.841-2.638 1.486-.749.645-1.355 1.436-1.816 2.371-.462.937-.756 2.004-.882 3.204-.13 1.236-.05 2.336.24 3.299.289.963.761 1.777 1.42 2.44.656.663 1.49 1.168 2.498 1.513 1.009.345 2.177.518 3.504.518 1.162 0 2.275-.082 3.338-.243 1.062-.162 2.048-.423 2.958-.784l-.678-2.626c-.627.255-1.356.459-2.19.613-.835.154-1.661.232-2.48.232-1.198 0-2.187-.278-2.964-.834-.778-.555-1.179-1.416-1.202-2.581l10.782-1.421zm-10.89-.671l.035-.327c.141-1.345.552-2.395 1.231-3.149.68-.754 1.537-1.13 2.573-1.13s1.783.317 2.244.953c.46.636.625 1.572.495 2.808l-6.577.845zm19.17-10.933l-.443 4.226h2.862l-.27 2.563h-2.863l-.836 7.96c-.048.455.067.836.343 1.146.277.308.716.463 1.315.463.17 0 .339-.01.507-.028.175-.017.357-.063.546-.135l-.275 2.616c-.324.146-.703.25-1.136.315-.434.063-.88.095-1.333.095-.909 0-1.67-.114-2.282-.341-.612-.227-1.097-.545-1.454-.954-.357-.41-.601-.887-.735-1.431-.133-.546-.165-1.145-.097-1.8l.83-7.905h-2.099l.27-2.564h2.1l.331-3.162 4.72-1.064zm-68.35-2.487l-.746 7.089c1.156-.455 2.407-.682 3.752-.682 1.981 0 3.442.454 4.383 1.363.94.909 1.318 2.235 1.135 3.98l-1.014 9.651h-4.608l1.015-9.651c.198-1.89-.648-2.835-2.538-2.835-.81-.001-1.614.156-2.365.463l-1.264 12.023h-4.608l2.25-21.401h4.607z"/>
    </g>
</svg>
