<?xml version="1.0" encoding="UTF-8"?>
<svg width="53px" height="48px" viewBox="0 0 53 48" version="1.1" xmlns="http://www.w3.org/2000/svg" xmlns:xlink="http://www.w3.org/1999/xlink">
    <!-- Generator: Sketch 42 (36781) - http://www.bohemiancoding.com/sketch -->
    <title>Group 19</title>
    <desc>Created with Sketch.</desc>
    <defs></defs>
    <g id="Page-1" stroke="none" stroke-width="1" fill="none" fill-rule="evenodd">
        <g id="Desktop-HD---1" transform="translate(-693.000000, -1094.000000)" stroke-width="2" stroke="#FFFFFF">
            <g id="ikona-2" transform="translate(630.000000, 1045.000000)">
                <g id="Page-1" transform="translate(64.000000, 50.000000)">
                    <g id="Group-19">
                        <path d="M41.18,0.609023911 C37.264,-0.539976089 32.936,-0.0539760887 29.704,1.98902391 C27.84,3.16802391 26.337,4.85602391 25.5,7.05702391 C24.243,3.75502391 21.475,1.59102391 18.211,0.607023911 C10.499,-1.71697609 0,2.59602391 0,14.3970239 C0,22.7660239 6.503,33.8980239 25.5,45.2450239 C26.983,44.3600239 28.38,43.4760239 29.713,42.5940239 C45.464,32.1780239 51,22.1130239 51,14.3970239 C51,6.69002391 46.472,2.16102391 41.18,0.609023911" id="Fill-3"></path>
                        <path d="M42.9564706,26.8654945 C41.344,26.3923769 39.5618824,26.5924945 38.2310588,27.4337298 C37.4635294,27.9192004 36.8446471,28.6142592 36.5,29.5205533 C35.9824118,28.1609063 34.8426471,27.2698474 33.4986471,26.864671 C30.3231176,25.9077298 26,27.683671 26,32.5429063 C26,35.9889651 28.6777059,40.5727298 36.5,45.2450239 C37.1106471,44.8806121 37.6858824,44.5166121 38.2347647,44.1534357 C44.7204706,39.8644945 47,35.7200827 47,32.5429063 C47,29.3694357 45.1355294,27.5045533 42.9564706,26.8654945" id="Fill-3-Copy" fill="#FEFEFE"></path>
                    </g>
                </g>
            </g>
        </g>
    </g>
</svg>