<?xml version="1.0" encoding="UTF-8"?>
<svg width="56px" height="53px" viewBox="0 0 56 53" version="1.1" xmlns="http://www.w3.org/2000/svg" xmlns:xlink="http://www.w3.org/1999/xlink">
    <!-- Generator: Sketch 42 (36781) - http://www.bohemiancoding.com/sketch -->
    <title>Page 1</title>
    <desc>Created with Sketch.</desc>
    <defs></defs>
    <g id="Page-1" stroke="none" stroke-width="1" fill="none" fill-rule="evenodd">
        <g id="Desktop-HD---1" transform="translate(-1013.000000, -1089.000000)" fill="#FFFFFF">
            <g id="ikona-3" transform="translate(954.000000, 1046.000000)">
                <g id="ic_supervisor_account_black_24px" transform="translate(59.000000, 39.000000)">
                    <g id="Group">
                        <g id="Page-1" transform="translate(0.000000, 4.000000)">
                            <path d="M0,21.2882211 C0.145359375,20.9418748 0.259546875,20.5783686 0.441984375,20.2524404 C1.04278125,19.179299 1.97389063,18.5102826 3.20698438,18.4909506 C6.37601562,18.4411002 9.54625,18.470967 12.7160469,18.4705326 C12.7489687,18.4705326 12.7817812,18.4919281 12.8547344,18.5171248 C12.7074063,18.8244814 12.50375,19.1147867 12.4269688,19.435176 C12.2181719,20.3070695 11.9222031,21.189715 11.9107188,22.071383 C11.8566875,26.2133113 11.8847969,30.356217 11.8873125,34.4989055 C11.8891719,37.7565592 13.9394062,40.320217 17.1428906,41.0819834 C17.248,41.1069629 17.3487344,41.1505141 17.4087813,41.1708236 C17.4087813,42.7462703 17.5506406,44.3130285 17.3702813,45.8422088 C17.17625,47.4862949 15.7102969,48.5458605 14.0467031,48.5491186 C12.4434844,48.5522682 10.8350156,48.4674465 9.23846875,48.5698625 C7.0564375,48.709965 5.36615625,46.91926 5.44282813,44.8308645 C5.54301562,42.102885 5.46732812,39.3684977 5.46732812,36.6369342 L5.46732812,35.915135 C4.93215625,35.915135 4.44773437,35.9152436 3.9633125,35.915135 C1.84296875,35.9147006 0.793625,35.1811719 0.075140625,33.1999711 C0.0643125,33.1703215 0.025703125,33.1506637 0,33.1263359 L0,21.2882211" id="Fill-1"></path>
                            <path d="M56,33.126325 C55.9629219,33.1848639 55.9117344,33.2388414 55.8909531,33.3025934 C55.3328125,35.0156447 54.1227969,35.9000279 52.3068438,35.9143639 C51.7436719,35.9188168 51.1803906,35.9150156 50.5326719,35.9150156 L50.5326719,36.5866385 C50.5326719,39.409866 50.5344219,42.2330934 50.5320156,45.0563209 C50.530375,47.0881324 49.0628906,48.5475873 47.0231563,48.5495422 C45.3282813,48.5510627 43.6331875,48.5533434 41.9383125,48.5488906 C40.0204219,48.5437861 38.5181563,47.0447984 38.5136719,45.1323455 C38.5107188,43.8656672 38.5172813,42.5988803 38.5212188,41.3320934 C38.5213281,41.2982082 38.5412344,41.264323 38.56125,41.2003537 C40.2610469,40.926991 41.7110313,40.1654418 42.8199844,38.8224131 C43.8255781,37.6047164 44.3385469,36.2096652 44.3350469,34.6232492 C44.3261875,30.5150975 44.3173281,26.4068373 44.3409531,22.2987943 C44.3481719,21.0361344 44.097375,19.8610115 43.4764531,18.7618045 C43.4345625,18.6877348 43.4072188,18.6056283 43.3576719,18.4920258 C43.4889219,18.4796447 43.5746719,18.4645484 43.6604219,18.4644398 C46.6312656,18.4634623 49.6021094,18.4507553 52.5727344,18.4695443 C54.12575,18.4794275 55.4115625,19.4741549 55.866125,20.9443619 C55.9024375,21.0615484 55.9550469,21.1737389 56,21.2882102 L56,33.126325 Z" id="Fill-3"></path>
                            <path d="M35.2060734,37.761327 L35.2060734,38.4804111 C35.2060734,41.8648086 35.2073859,45.2492061 35.2056359,48.6337123 C35.2044328,51.132532 33.4232609,52.8926098 30.8974641,52.8939131 C28.9290422,52.8948906 26.9605109,52.8969541 24.9920891,52.8933701 C22.6174484,52.8889172 20.7997453,51.0950627 20.7955891,48.7411242 C20.7893547,45.3205607 20.7939484,41.8998885 20.7939484,38.479325 L20.7939484,37.761327 C20.0291984,37.761327 19.3075422,37.7719705 18.5863234,37.7591549 C16.8340266,37.7283107 15.4774484,36.9927184 14.7126984,35.4074971 C14.4477922,34.858491 14.3212453,34.19295 14.3163234,33.5792143 C14.2828547,29.4167594 14.2978391,25.2539787 14.2992609,21.0913066 C14.3001359,18.7089131 16.0384328,16.8893189 18.4314484,16.8795443 C24.8106359,16.8535873 31.1900422,16.8534787 37.5693391,16.8796529 C39.9638859,16.8895361 41.6998859,18.7071754 41.7007609,21.091198 C41.7022922,25.1995668 41.6424641,29.3091303 41.7256984,33.4158701 C41.7679172,35.5030709 40.2050578,37.7772922 37.3579172,37.7618701 C36.6672141,37.7581775 35.9764016,37.761327 35.2060734,37.761327" id="Fill-5"></path>
                            <path d="M20.7939484,7.25187705 C20.7952609,3.27481352 24.0042141,0.105565574 28.0266984,0.108606557 C32.0060891,0.111538934 35.2055266,3.29381967 35.2060734,7.24927049 C35.2066203,11.210043 31.9582922,14.4266434 27.9739797,14.4108955 C24.0082609,14.3952561 20.7926359,11.189082 20.7939484,7.25187705" id="Fill-7"></path>
                            <path d="M11.5105375,4.45280369 C14.849975,4.45421557 17.4882094,7.09378934 17.4873344,10.4325721 C17.4864594,13.7308447 14.7966,16.3908365 11.4648188,16.3883385 C8.10799063,16.385732 5.46089688,13.7247627 5.46735,10.3593713 C5.47380313,7.04383033 8.12625625,4.4512832 11.5105375,4.45280369" id="Fill-10"></path>
                            <path d="M44.53505,4.45280369 C47.8952688,4.45323811 50.5327375,7.07065615 50.5326281,10.4045516 C50.5325188,13.752566 47.8622375,16.3967012 44.4898781,16.3883385 C41.1710031,16.3799758 38.510675,13.7091234 38.5126438,10.3872832 C38.5147219,7.07391434 41.1751594,4.45236926 44.53505,4.45280369" id="Fill-12"></path>
                        </g>
                    </g>
                </g>
            </g>
        </g>
    </g>
</svg>