<?xml version="1.0" standalone="no"?>
<!DOCTYPE svg PUBLIC "-//W3C//DTD SVG 1.1//EN" "http://www.w3.org/Graphics/SVG/1.1/DTD/svg11.dtd" >
<svg xmlns="http://www.w3.org/2000/svg">
<metadata>Generated by IcoMoon</metadata>
<defs>
<font id="icomoon" horiz-adv-x="1024">
<font-face units-per-em="1024" ascent="960" descent="-64" />
<missing-glyph horiz-adv-x="1024" />
<glyph unicode="&#x20;" horiz-adv-x="512" d="" />
<glyph unicode="&#xe900;" glyph-name="verified" d="M512 960c282.77 0 512-229.23 512-512s-229.23-512-512-512c-282.77 0-512 229.23-512 512s229.23 512 512 512zM778.154 689.015c-20.003 13.686-47.314 8.566-61.001-11.438v0l-257.625-376.533-169.050 144.85c-18.383 14.507-45.105 12.033-60.484-5.91-15.774-18.402-13.642-46.107 4.76-61.881v0l181.721-155.719c30.655-24.747 75.636-20.775 101.447 9.338 1.723 2.010 3.336 4.113 4.831 6.298v0l267.805 391.469c12.46 19.851 7.11 46.172-12.406 59.524z" />
<glyph unicode="&#xe901;" glyph-name="link" d="M906.971 960c64.633 0 117.029-52.395 117.029-117.029v-789.943c0-64.633-52.395-117.029-117.029-117.029h-789.943c-64.633 0-117.029 52.395-117.029 117.029v789.943c0 64.633 52.395 117.029 117.029 117.029h789.943zM710.7 457.677c-34.979 33.888-90.574 34.619-126.808 1.423v0l-0.423-0.384-0.23-0.172c-10.027-7.691-12.758-21.867-5.941-32.723 7.226-11.508 22.446-14.927 33.993-7.637 2.101 1.327 3.528 2.531 5.816 4.626 17.080 15.648 43.378 15.142 59.669-1.148v0l74.46-74.475c16.133-16.86 15.835-43.681-0.84-60.356v0l-81.576-81.562c-16.949-16.226-43.769-16.075-60.352 0.508v0l-74.807 74.822c-16.092 16.815-15.845 43.551 0.724 60.243v0l0.534 0.555c9.084 9.727 8.891 24.937-0.569 34.326-9.642 9.57-25.259 9.468-34.882-0.226-35.989-36.259-36.040-94.634-0.114-130.56v0l75.224-75.206c36.104-34.945 93.861-34.429 129.719 1.429v0l81.961 81.979c35.144 36.296 34.945 94.051-0.717 129.713v0zM436.647 554.657c-9.643 9.067-24.855 8.847-34.332-0.629-9.659-9.659-9.702-25.276-0.096-34.882v0l200.569-200.553c9.643-9.067 24.855-8.847 34.332 0.629 9.659 9.659 9.702 25.276 0.096 34.882v0zM446.607 721.569c-35.856 31.946-90.81 30.92-125.81-2.969v0l-81.979-81.961-3.707-3.924c-32.143-36.032-31.42-90.981 2.278-125.795v0l1.070-1.087 74.137-74.137 3.933-3.712c36.135-32.165 91.663-30.879 126.627 3.825 9.695 9.623 9.796 25.24 0.226 34.882-9.389 9.46-24.599 9.654-34.326 0.569v0l-0.555-0.534-3.046-2.754c-16.757-13.786-41.371-13.114-57.197 2.031v0l-74.822 74.807-2.756 3.029c-13.788 16.676-13.024 41.372 2.247 57.324v0l0.676 0.691 80.886 80.886 3.044 2.773c16.752 13.88 41.444 13.251 57.312-1.933v0l74.475-74.46 2.711-2.975c13.583-16.377 13.165-40.619-1.563-56.694-2.096-2.287-3.3-3.714-4.626-5.816-7.29-11.547-3.87-26.767 7.637-33.993 10.856-6.817 25.033-4.086 32.723 5.941v0l0.172 0.23 0.384 0.423 3.427 3.954c29.675 36.224 27.828 89.124-4.85 122.853v0l-74.824 74.841z" />
<glyph unicode="&#xe902;" glyph-name="twitter" d="M906.971 960c64.633 0 117.029-52.395 117.029-117.029v-789.943c0-64.633-52.395-117.029-117.029-117.029h-789.943c-64.633 0-117.029 52.395-117.029 117.029v789.943c0 64.633 52.395 117.029 117.029 117.029h789.943zM595.244 712.158c-59.456-21.79-97.032-77.961-92.751-139.458l1.427-23.727-23.782 2.905c-86.568 11.137-162.196 48.907-226.408 112.341l-31.393 31.475-8.086-23.243c-17.123-51.813-6.183-106.531 29.49-143.332 19.026-20.338 14.745-23.243-18.075-11.137-11.416 3.874-21.404 6.779-22.355 5.327-3.33-3.39 8.086-47.455 17.123-64.887 12.367-24.211 37.576-47.939 65.164-61.981l23.307-11.137-27.588-0.484c-26.636 0-27.588-0.484-24.734-10.653 9.513-31.475 47.089-64.887 88.946-79.414l29.49-10.169-25.685-15.495c-38.052-22.275-82.763-34.865-127.474-35.833-21.404-0.484-39.003-2.421-39.003-3.874 0-4.842 58.029-31.959 91.8-42.612 101.313-31.475 221.652-17.917 312.025 35.833 64.212 38.254 128.425 114.278 158.391 187.881 16.172 39.223 32.344 110.889 32.344 145.269 0 22.275 1.427 25.18 28.063 51.813 15.696 15.495 30.441 32.443 33.295 37.286 4.756 9.2 4.281 9.2-19.977 0.968-40.43-14.527-46.138-12.59-26.161 9.2 14.745 15.495 32.344 43.581 32.344 51.813 0 1.453-7.135-0.968-15.221-5.327-8.562-4.842-27.588-12.106-41.857-16.464l-25.685-8.232-23.307 15.98c-12.842 8.716-30.917 18.401-40.43 21.306-24.258 6.779-61.359 5.811-83.238-1.937z" />
<glyph unicode="&#xe903;" glyph-name="invite" d="M1.062 576.182c-0.697-3.611-1.062-7.34-1.062-11.154v-570.514c0-32.317 26.198-58.514 58.514-58.514h906.971c32.317 0 58.514 26.198 58.514 58.514v570.514c0 2.454-0.151 4.873-0.444 7.248l-293.575-293.566 228.040-228.103c10.308-11.487 9.94-29.165-1.104-40.21s-28.723-11.413-40.21-1.104l-228.103 228.040-107.797-107.797c-36.754-36.754-96.344-36.754-133.097 0l-110.059 110.057-230.356-230.3c-11.487-10.308-29.165-9.94-40.21 1.104-11.426 11.426-11.426 29.95 0 41.376l229.189 229.197-295.211 295.212zM595.865 747.886c-40.013 0-67.832-22.113-84.218-53.264-16.196 30.958-44.205 53.264-84.218 53.264-64.021 0-120.23-52.687-120.23-133.256 0-81.159 66.386-162.318 165.394-230.386l7.043-4.783c11.813-8.076 24.008-15.575 32.010-15.575 7.581 0 18.925 6.731 30.143 14.306l8.91 6.052c99.009 68.068 165.394 149.227 165.394 230.386 0 80.569-56.209 133.256-120.23 133.256zM811.886 960l-602.002-0.028c-47.444-1.183-85.541-40.015-85.541-87.744l-0.003-143.365-82.399-82.406c-13.903-13.903-13.903-36.443 0-50.346l82.399-82.398 0.003-7.2 0.036-1.46c0.761-15.48 13.553-27.797 29.221-27.797 16.158 0 29.257 13.099 29.257 29.257v365.714l0.036 1.46c0.761 15.48 13.553 27.797 29.221 27.797l601.231-0.036c15.48-0.761 27.797-13.553 27.797-29.221v-365.714l0.036-1.46c0.761-15.48 13.553-27.797 29.221-27.797 16.158 0 29.257 13.099 29.257 29.257l-0.003 2.687 86.919 86.911c13.903 13.903 13.903 36.443 0 50.346l-86.919 86.919 0.003 138.852-0.028 2.231c-1.183 47.444-40.015 85.541-87.744 85.541z" />
<glyph unicode="&#xe904;" glyph-name="kontakt" d="M1.062 576.182c-0.697-3.611-1.062-7.34-1.062-11.154v-570.514c0-32.317 26.198-58.514 58.514-58.514h906.971c32.317 0 58.514 26.198 58.514 58.514v570.514c0 2.454-0.151 4.873-0.444 7.248l-293.575-293.566 228.040-228.103c10.308-11.487 9.94-29.165-1.104-40.21s-28.723-11.413-40.21-1.104l-228.103 228.040-107.797-107.797c-36.754-36.754-96.344-36.754-133.097 0l-110.059 110.057-230.356-230.3c-11.487-10.308-29.165-9.94-40.21 1.104-11.426 11.426-11.426 29.95 0 41.376l229.189 229.197-295.211 295.212zM811.886 960l-602.002-0.028c-47.444-1.183-85.541-40.015-85.541-87.744l-0.003-143.365-82.399-82.406c-13.903-13.903-13.903-36.443 0-50.346l82.399-82.398 0.003-7.2 0.036-1.46c0.761-15.48 13.553-27.797 29.221-27.797 16.158 0 29.257 13.099 29.257 29.257v365.714l0.036 1.46c0.761 15.48 13.553 27.797 29.221 27.797l601.231-0.036c15.48-0.761 27.797-13.553 27.797-29.221v-365.714l0.036-1.46c0.761-15.48 13.553-27.797 29.221-27.797 16.158 0 29.257 13.099 29.257 29.257l-0.003 2.687 86.919 86.911c13.903 13.903 13.903 36.443 0 50.346l-86.919 86.919 0.003 138.852-0.028 2.231c-1.183 47.444-40.015 85.541-87.744 85.541zM292.813 563.214l-1.46-0.024c-15.486-0.633-27.908-13.323-28.038-28.991-0.133-16.158 12.858-29.364 29.015-29.498l447.616-3.663c15.486 0.633 27.908 13.323 28.038 28.991 0.133 16.158-12.858 29.364-29.015 29.498l-446.156 3.687zM292.813 687.557l-1.46-0.024c-15.486-0.633-27.908-13.323-28.038-28.991-0.133-16.158 12.858-29.364 29.015-29.498l447.616-3.663c15.486 0.633 27.908 13.323 28.038 28.991 0.133 16.158-12.858 29.364-29.015 29.498l-446.156 3.687zM409.6 810.057l-118.489-0.036c-15.48-0.761-27.797-13.553-27.797-29.221 0-16.158 13.099-29.257 29.257-29.257l118.489 0.036c15.48 0.761 27.797 13.553 27.797 29.221 0 16.158-13.099 29.257-29.257 29.257z" />
<glyph unicode="&#xe905;" glyph-name="globe" d="M490.046 187.768l-0.001-251.77c-45.409 1.913-89.29 9.731-130.895 22.706-26.744 69.924-47.637 139.832-62.704 209.718 64.553 11.401 129.084 17.848 193.601 19.346v0zM548.603 187.768c64.521-1.498 129.057-7.945 193.623-19.373-14.692-68.022-34.884-136.071-60.583-204.153-42.135-14.742-86.747-24.155-133.058-27.42zM253.287 160.037c12.985-60.317 30.151-120.616 51.494-180.89-74.021 32.727-138.832 82.467-189.482 144.254 46.023 14.76 92.012 26.958 137.988 36.636zM785.324 160.070c42.108-8.875 84.226-19.858 126.355-32.951-47.098-58.589-106.789-106.558-174.964-139.85 20.025 57.579 36.231 115.174 48.609 172.801zM0.412 415.063l222.898 0.010c1.402-70.671 8.542-141.326 21.464-211.914-52.428-11.030-104.842-25.218-157.238-42.563-49.867 73.413-81.162 160.5-87.125 254.467zM1023.588 415.063c-5.856-92.295-36.152-177.953-84.49-250.577-48.404 15.603-96.787 28.472-145.174 38.641 12.871 70.625 20.010 141.275 21.413 211.941v0zM490.036 415.076l0.007-183.371c-67.4-1.512-134.785-8.242-202.195-20.212-12.344 67.878-19.21 135.732-20.603 203.57v0l222.792 0.013zM771.402 415.062c-1.393-67.826-8.257-135.667-20.636-203.546-67.375 11.948-134.771 18.679-202.183 20.19v0l-0.001 183.37zM946.609 719.894c45.187-72.031 72.953-156.094 77.393-246.289l-208.815 0.004c-1.71 68.421-8.799 136.828-21.288 205.188 49.817 10.481 99.621 23.815 149.409 39.998zM79.965 723.883c54.906-18.494 109.828-33.519 164.756-45.068-12.461-68.38-19.55-136.782-21.26-205.2v0l-223.462-0.010c4.457 90.547 32.422 174.915 77.923 247.132zM287.88 670.435c67.366-11.946 134.754-18.678 202.157-20.19v0l-0.001-176.622-222.636-0.012c1.617 62.49 7.877 124.995 18.785 187.519v0zM750.795 670.483c11.939-65.645 18.755-131.267 20.452-196.874v0l-222.663 0.015 0.021 176.622c66.101 1.483 132.189 7.985 198.255 19.503v0zM548.585 959.178c44.036-3.104 86.538-11.769 126.805-25.295 28.725-73.498 50.983-146.938 66.811-220.355-64.553-11.401-129.084-17.848-193.601-19.346v0zM490.045 960.001l-0.002-265.819c-64.521 1.498-129.057 7.945-193.629 19.348 17.37 80.429 42.43 160.894 75.19 241.408l-6.279-15.759c39.764 11.849 81.551 19.004 124.72 20.823zM310.784 919.456c-24.147-65.822-43.308-131.678-57.462-197.575-48.957 10.319-97.926 23.487-146.912 39.507 51.864 67.030 119.972 120.814 198.417 155.502zM730.669 911.634c75.060-35.44 140.129-88.56 189.832-153.985-45.082-14.364-90.121-26.26-135.141-35.735-13.038 60.565-30.292 121.111-51.757 181.633z" />
<glyph unicode="&#xe906;" glyph-name="facebook" d="M906.971 960c64.633 0 117.029-52.395 117.029-117.029v-789.943c0-64.633-52.395-117.029-117.029-117.029h-789.943c-64.633 0-117.029 52.395-117.029 117.029v789.943c0 64.633 52.395 117.029 117.029 117.029h789.943zM664.957 777.143h-90.895c-109.179 0-147.607-55.030-147.607-147.572v-68.108h-68.055v-113.438h68.055v-329.169h136.22v329.181h90.882l12.044 113.438h-102.925l0.154 56.777c0 29.586 2.811 45.439 45.312 45.439h56.816v113.451z" />
<glyph unicode="&#xe907;" glyph-name="linkedin" d="M906.971 960c64.633 0 117.029-52.395 117.029-117.029v-789.943c0-64.633-52.395-117.029-117.029-117.029h-789.943c-64.633 0-117.029 52.395-117.029 117.029v789.943c0 64.633 52.395 117.029 117.029 117.029h789.943zM332.297 557.915h-141.096v-424.418h141.096v424.418zM678.688 567.881c-74.913 0-108.452-41.194-127.179-70.093v60.115h-141.113c1.86-39.825 0-424.418 0-424.418h141.113v237.030c0 12.684 0.916 25.338 4.646 34.42 10.197 25.341 33.416 51.577 72.396 51.577 51.077 0 71.495-38.918 71.495-95.952v-227.064h141.090l0.006 243.348c0 130.363-69.607 191.036-162.455 191.036zM262.681 762.514c-48.268 0-79.824-31.696-79.824-73.31 0-40.752 30.623-73.36 77.993-73.36h0.902c49.198 0 79.838 32.608 79.838 73.36-0.916 41.614-30.64 73.31-78.908 73.31z" />
<glyph unicode="&#xe908;" glyph-name="add" d="M874.039 810.039c199.948-199.948 199.948-524.129 0-724.077s-524.129-199.948-724.077 0c-199.948 199.948-199.948 524.129 0 724.077s524.129 199.948 724.077 0zM543.355 703.252c-0.951 19.35-16.941 34.746-36.527 34.746-18.992 0-34.603-14.477-36.399-32.998l-0.128-1.748-0.045-1.825v-219.421l-221.254-0.052c-19.35-0.951-34.746-16.941-34.746-36.527s15.396-35.576 34.746-36.527l1.825-0.045 219.424 0.003 0.005-219.431 0.045-1.825c0.951-19.35 16.941-34.746 36.527-34.746 18.992 0 34.603 14.477 36.399 32.998l0.128 1.748 0.045 1.825 0.005 219.431 221.249 0.042c19.35 0.951 34.746 16.941 34.746 36.527s-15.396 35.576-34.746 36.527l-1.825 0.045-219.429 0.007v219.421l-0.045 1.825z" />
<glyph unicode="&#xe909;" glyph-name="jazyky" d="M685.592 645.316h105.321l233.087-606.916h-122.586l-56.977 151.302h-214.095l-56.114-151.302h-122.586l233.95 606.916zM358.823 819.159l0.397-2.338 7.808-54.2 232.475-0.006c26.488 0 47.96-21.262 47.96-47.49 0-25.433-20.191-46.196-45.567-47.431l-2.394-0.058-27.162-0.011c-46.8-114.705-104.22-207.050-172.646-276.78 36.448-31.501 74.781-61.164 114.997-88.992l-35.198-91.284c-52.829 35.319-102.757 73.554-149.77 114.699-57.054-49.944-118.428-95.609-184.075-136.974-22.347-14.081-51.99-7.558-66.211 14.569s-7.633 51.48 14.714 65.561c58.956 37.149 114.158 77.951 165.628 122.416-68.439 69.735-125.861 162.080-172.661 276.785l-39.159 0.011c-26.488 0-47.96 21.262-47.96 47.489 0 25.433 20.191 46.196 45.567 47.431l2.394 0.058 222.188 0.006-5.885 40.767c-3.746 25.964 14.474 50.019 40.696 53.728 25.427 3.597 49.041-13.259 53.864-37.958zM738.253 511.111l-88.055-238.492h172.657l-84.602 238.492zM468.173 667.629l-276.884-0.004c39.237-87.307 85.125-157.491 137.4-210.726l1.031-1.042 1.050 1.042c52.276 53.236 98.165 123.421 137.402 210.73z" />
<glyph unicode="&#xe90a;" glyph-name="added" d="M560.64 960c33.932 0 61.44-27.508 61.44-61.44v-184.781l130.676 130.653c23.994 23.994 62.895 23.994 86.889 0l68.787-68.787c23.994-23.994 23.994-62.895 0-86.889l-130.679-130.65 184.806-0.026c33.932 0 61.44-27.508 61.44-61.44v-97.28c0-33.932-27.508-61.44-61.44-61.44l-184.806 0.026 130.679-130.701c23.994-23.994 23.994-62.895 0-86.889l-68.787-68.787c-23.994-23.994-62.895-23.994-86.889 0l-130.676 130.704v-184.832c0-33.932-27.508-61.44-61.44-61.44h-97.28c-33.932 0-61.44 27.508-61.44 61.44v184.832l-130.676-130.704c-23.994-23.994-62.895-23.994-86.889 0l-68.787 68.787c-23.994 23.994-23.994 62.895 0 86.889l130.679 130.701-184.806-0.026c-33.932 0-61.44 27.508-61.44 61.44v97.28c0 33.932 27.508 61.44 61.44 61.44l184.806 0.026-130.679 130.65c-23.994 23.994-23.994 62.895 0 86.889l68.787 68.787c23.994 23.994 62.895 23.994 86.889 0l130.676-130.653v184.781c0 33.932 27.508 61.44 61.44 61.44h97.28z" />
<glyph unicode="&#xe90b;" glyph-name="down" d="M568.308 58.67l424.729 722.039c18.293 31.098 7.912 71.137-23.185 89.43-10.039 5.905-21.475 9.019-33.122 9.019h-849.457c-36.079 0-65.327-29.248-65.327-65.327 0-11.647 3.114-23.083 9.019-33.122l424.729-722.039c18.293-31.098 58.332-41.478 89.43-23.185 9.574 5.632 17.554 13.612 23.185 23.185z" />
<glyph unicode="&#xe90c;" glyph-name="cog" d="M560.64 960c33.932 0 61.44-27.508 61.44-61.44l0.023-85.601c24.374-7.502 47.684-17.43 69.65-29.502l61.003 60.976c23.994 23.994 62.895 23.994 86.889 0l68.787-68.787c23.994-23.994 23.994-62.895 0-86.889l-63.34-63.354c10.895-21.339 19.799-43.864 26.469-67.33l90.999 0.008c33.932 0 61.44-27.508 61.44-61.44v-97.28c0-33.932-27.508-61.44-61.44-61.44l-95.728 0.003c-7.167-21.607-16.253-42.34-27.055-61.996l68.656-68.683c23.994-23.994 23.994-62.895 0-86.889l-68.787-68.787c-23.994-23.994-62.895-23.994-86.889 0l-71.009 71.033c-18.999-9.702-38.938-17.826-59.644-24.199l-0.023-100.961c0-33.932-27.508-61.44-61.44-61.44h-97.28c-33.932 0-61.44 27.508-61.44 61.44l0.003 100.953c-20.706 6.372-40.645 14.494-59.644 24.194l-71.034-71.020c-23.994-23.994-62.895-23.994-86.889 0l-68.787 68.787c-23.994 23.994-23.994 62.895 0 86.889l68.656 68.683c-10.802 19.656-19.888 40.388-27.055 61.996l-95.728-0.003c-33.932 0-61.44 27.508-61.44 61.44v97.28c0 33.932 27.508 61.44 61.44 61.44l90.999-0.008c6.672 23.475 15.581 46.008 26.482 67.355l-63.353 63.329c-23.994 23.994-23.994 62.895 0 86.889l68.787 68.787c23.994 23.994 62.895 23.994 86.889 0l61.003-60.976c21.974 12.076 45.293 22.007 69.676 29.51l-0.003 85.593c0 33.932 27.508 61.44 61.44 61.44h97.28zM512 668.16c-121.591 0-220.16-98.569-220.16-220.16s98.569-220.16 220.16-220.16c121.591 0 220.16 98.569 220.16 220.16s-98.569 220.16-220.16 220.16z" />
<glyph unicode="&#xe90d;" glyph-name="prihlasit" d="M427.217 937.169c0.476-2.111 0.716-4.268 0.716-6.433v-26.476l321.076-0.030c24.405-0.865 44.17-20.067 46.086-44.323l0.152-3.87v-109.234l-0.032-1.641c-0.809-20.565-16.754-37.217-36.943-39.004l-3.605-0.159-1.632 0.032c-20.452 0.813-37.013 16.847-38.79 37.147l-0.158 3.624-0.007 75.844-286.147 0.005v-739.842l286.147 0.005 0.007 75.844c0 21.986 17.293 39.91 38.948 40.772l1.632 0.032c21.865 0 39.691-17.388 40.548-39.163l0.032-1.641v-109.234c0-26.054-20.548-47.282-46.238-48.193l-1.72-0.030h-319.356v-35.945c0-16.158-13.099-29.257-29.257-29.257-2.164 0-4.321 0.24-6.433 0.716l-369.419 83.258c-13.345 3.008-22.825 14.861-22.825 28.541v798.963c0 13.68 9.479 25.534 22.825 28.541l369.419 83.258c15.763 3.553 31.421-6.346 34.974-22.109zM743.885 633.715c-5.988 0-11.832-1.838-16.743-5.265l-228.073-159.162c-13.251-9.247-16.496-27.485-7.249-40.736 2.185-3.13 4.961-5.803 8.172-7.867l228.073-146.618c13.592-8.738 31.694-4.803 40.431 8.79 3.034 4.719 4.647 10.211 4.647 15.821l0.003 87.379 184.084-0.009c36.876 0 66.77 29.894 66.77 66.77s-29.894 66.77-66.77 66.77l-184.084 0.023-0.003 84.845c0 16.158-13.099 29.257-29.257 29.257zM254.547 485.091c-34.636 0-62.714-28.233-62.714-63.061s28.078-63.061 62.714-63.061c34.636 0 62.714 28.233 62.714 63.061s-28.078 63.061-62.714 63.061z" />
<glyph unicode="&#xe90e;" glyph-name="privacy" d="M886.040 272.345c3.383 5.499 10.482 7.64 16.427 4.756v0l115.458-56.060c5.53-3.364 7.683-10.423 4.783-16.335v0l-128.312-261.597-0.59-1.070c-3.383-5.499-10.482-7.64-16.427-4.756v0l-115.458 56.060c-5.53 3.364-7.683 10.423-4.783 16.335v0l128.312 261.597zM381.4 385.9c72.426 8.308 145.265 2.18 218.517-18.383 67.78-19.028 135.929-50.93 204.446-95.708 10.7-6.993 14.51-20.801 8.897-32.245v0l-80.898-164.932-0.44-0.759c-0.977-1.445-2.521-2.437-4.276-2.716v0l-344.286-54.607c-9.507-1.016-19.129 0.65-27.754 4.833v0l-349.532 169.582c-5.53 3.364-7.683 10.423-4.783 16.335 0.522 1.063 1.191 2.049 1.987 2.927 29.605 32.644 63.8 47.615 102.585 44.912 41.765-2.911 114.41-26.639 217.934-71.185v0l5.575-2.406 1.708-0.668c4.605-1.612 9.594-1.877 14.368-0.743 111.989 26.615 171.614 47.324 178.874 62.127 1.867 13.978-42.215 28.883-132.245 44.716v0l-13.174 2.268-2.109 0.4c-20.936 4.406-37.11 21.023-40.859 41.968v0l-0.343 2.179-0.15 1.46c-0.931 13.197 9.56 27.927 31.471 44.19v0l2.482 1.813 1.551 1.032c3.17 1.946 6.738 3.181 10.455 3.607zM485.36 960c68.712 0 129.040-56.199 129.040-142.14 0-88.607-74.643-177.213-185.073-250.847-12.679-8.615-25.767-16.614-34.356-16.614s-21.677 7.999-34.356 16.614c-110.43 73.634-185.073 162.24-185.073 250.847 0 85.94 60.328 142.14 129.040 142.14 42.945 0 73.007-23.792 90.389-56.815 17.587 33.227 47.444 56.815 90.389 56.815z" />
<glyph unicode="&#xe90f;" glyph-name="send" horiz-adv-x="947" d="M302.224 161.915c-0.701-1.131-1.065-2.438-1.049-3.767l2.394-194.442 0.054-1.443c0.937-14.809 13.397-26.442 28.477-26.261 7.814 0.097 15.238 3.416 20.499 9.166l108.542 118.712c2.018 2.848 1.635 6.812-1.022 9.218-0.323 0.293-0.673 0.555-1.044 0.783l-147.936 90.736c-3.186 1.447-7.030 0.341-8.916-2.702zM943.874 945.165c-7.336 13.662-24.415 18.82-38.146 11.52l-890.819-473.573c-4.278-2.274-7.893-5.608-10.497-9.679-8.359-13.068-4.487-30.404 8.647-38.72l221.354-140.159 487.039 411.638c2.93 1.909 6.898 1.393 9.224-1.332l0.535-0.713c1.612-2.459 1.524-5.703-0.307-8.086l-370.041-481.581 320.31-202.826c2.578-1.632 5.405-2.837 8.372-3.566 15.113-3.716 30.393 5.461 34.128 20.499l222.705 896.631c1.671 6.728 0.779 13.833-2.503 19.946z" />
<glyph unicode="&#xe910;" glyph-name="quote" d="M683.768 25.6c116.714 55.873 202.598 128.508 257.652 217.905s82.581 188.851 82.581 298.362c0 26.819-3.303 61.46-9.91 103.924s-22.022 81.575-46.245 117.333c-19.819 31.289-45.144 56.99-75.974 77.105s-70.469 30.171-118.916 30.171c-57.256 0-106.804-20.114-148.645-60.343s-62.761-91.632-62.761-154.21c0-67.048 20.92-119.568 62.761-157.562s91.389-56.99 148.645-56.99c46.245 0 86.985 14.527 122.219 43.581 6.606-20.114 9.91-43.581 9.91-70.4 0-64.813-24.774-128.508-74.323-191.086s-108.456-108.394-176.723-137.448v0l29.729-60.343zM122.219 25.6c116.714 55.873 202.598 128.508 257.652 217.905s82.581 188.851 82.581 298.362c0 26.819-3.303 61.46-9.91 103.924s-22.022 81.575-46.245 117.333c-19.819 31.289-45.144 56.99-75.974 77.105s-70.469 30.171-118.916 30.171c-57.256 0-106.804-20.114-148.645-60.343s-62.761-91.632-62.761-154.21c0-67.048 20.92-119.568 62.761-157.562s91.389-56.99 148.645-56.99c46.245 0 86.985 14.527 122.219 43.581 6.606-20.114 9.91-43.581 9.91-70.4 0-64.813-24.774-128.508-74.323-191.086s-108.456-108.394-176.723-137.448v0l29.729-60.343z" />
<glyph unicode="&#xe911;" glyph-name="profile" d="M507.626 960c127.157 0 230.237-126.077 230.237-281.6 0-92.135-36.177-173.935-92.105-225.31l0.010-56.29c0-92.16 286.518-102.4 317.216-194.56 19.094-57.323 35.219-138.416 48.375-243.28 1.405-11.189-6.528-21.398-17.717-22.802-0.843-0.106-1.692-0.159-2.542-0.159h-958.201c-0.85 0-1.699 0.053-2.542 0.159-11.189 1.404-19.122 11.612-17.717 22.802 13.156 104.863 29.281 185.956 48.375 243.28 30.698 92.16 317.216 102.4 317.216 194.56 0.481 0.161 0.965 0.321 1.45 0.481l0.018 46.953c-61.693 50.519-102.311 136.541-102.311 234.166 0 155.523 103.081 281.6 230.237 281.6z" />
<glyph unicode="&#xe912;" glyph-name="skryt" d="M961.998 872.488c13.966-13.849 14.389-36.043 1.27-50.397l-1.27-1.322-151.915-150.633c131.786-86.7 213.916-202.956 213.916-222.136 0-31.193-217.23-319.147-512-319.147-73.005 0-141.254 17.663-202.624 44.713l-151.334-150.055c-14.402-14.282-37.752-14.282-52.154 0-13.966 13.849-14.389 36.043-1.27 50.397l1.27 1.322 803.957 797.257c14.402 14.282 37.752 14.282 52.154 0zM512 767.147c73.138 0 141.503-17.727 202.96-44.862l-105.799-104.883c-28.436 16.792-61.663 26.438-97.161 26.438-105.029 0-190.171-84.433-190.171-188.587 0-35.211 9.731-68.169 26.672-96.372l-134.328-133.186c-131.936 86.718-214.173 203.112-214.173 222.304 0 31.193 217.23 319.147 512 319.147zM680.905 541.996l-256.377-254.24c26.186-13.475 55.932-21.089 87.472-21.089 105.029 0 190.171 84.433 190.171 188.587 0 31.277-7.678 60.775-21.266 86.742z" />
<glyph unicode="&#xe913;" glyph-name="zobrazit" d="M512 768c294.77 0 512-288.723 512-320s-217.23-320-512-320c-294.77 0-512 288.723-512 320s217.23 320 512 320zM512 644.364c-105.029 0-190.171-84.659-190.171-189.091s85.143-189.091 190.171-189.091c105.029 0 190.171 84.659 190.171 189.091s-85.143 189.091-190.171 189.091zM508.343 535.273c46.455 0 84.114-37.445 84.114-83.636s-37.659-83.636-84.114-83.636c-46.455 0-84.114 37.445-84.114 83.636s37.659 83.636 84.114 83.636z" />
<glyph unicode="&#xe914;" glyph-name="time" d="M512 960c282.77 0 512-229.23 512-512s-229.23-512-512-512c-282.77 0-512 229.23-512 512s229.23 512 512 512zM488.96 737.28c-22.622 0-40.96-18.338-40.96-40.96v0l0.019-247.036c0.013-0.431 0.033-0.86 0.059-1.266 0.024-0.392 0.054-0.784 0.090-1.197 0.069-0.766 0.16-1.525 0.273-2.265v0l0.221-1.37c0.162-0.89 0.352-1.77 0.57-2.617l0.115-0.449 0.121-0.464c0.224-0.814 0.473-1.617 0.746-2.402 0.15-0.438 0.307-0.873 0.471-1.307 0.708-1.853 1.546-3.641 2.502-5.358 2.041-3.654 4.682-7.055 7.916-10.056l-0.379 0.383-1.398 1.37c0.227-0.238 0.456-0.472 0.689-0.705l0.705-0.688 0.384-0.36 213.528-198.060c16.611-14.398 41.772-13.128 56.837 3.111 15.385 16.584 14.413 42.5-2.171 57.886v0l-199.403 184.986 0.006 229.141c-0.674 22.031-18.746 39.684-40.941 39.684z" />
<glyph unicode="&#xe915;" glyph-name="sad" d="M512 960c282.77 0 512-229.23 512-512s-229.23-512-512-512c-282.77 0-512 229.23-512 512s229.23 512 512 512zM506.881 381.441c-90.146 0-167.964-37.911-230.849-111.665-14.677-17.214-12.621-43.067 4.593-57.744s43.067-12.621 57.744 4.593c47.708 55.953 103.009 82.895 168.511 82.895 65.847 0 123.247-27.265 174.434-83.809 15.182-16.771 41.084-18.058 57.855-2.877s18.058 41.084 2.877 57.855c-66.232 73.163-145.365 110.751-235.166 110.751zM363.521 698.88c-22.622 0-40.96-18.338-40.96-40.96v0l0.019-134.396c0.674-22.031 18.746-39.684 40.941-39.684 22.622 0 40.96 18.338 40.96 40.96v0 133.12l-0.019 1.276c-0.674 22.031-18.746 39.684-40.941 39.684zM660.481 698.88c-22.622 0-40.96-18.338-40.96-40.96v0l0.019-134.396c0.674-22.031 18.746-39.684 40.941-39.684 22.622 0 40.96 18.338 40.96 40.96v0 133.12l-0.019 1.276c-0.674 22.031-18.746 39.684-40.941 39.684z" />
<glyph unicode="&#xe916;" glyph-name="thanks" d="M512 960c282.77 0 512-229.23 512-512s-229.23-512-512-512c-282.77 0-512 229.23-512 512s229.23 512 512 512zM739.17 370.846c-16.771 15.182-42.673 13.894-57.855-2.877-51.187-56.544-108.588-83.809-174.434-83.809-65.502 0-120.804 26.942-168.511 82.895-14.677 17.214-40.53 19.27-57.744 4.593s-19.27-40.53-4.593-57.744c62.884-73.753 140.703-111.665 230.849-111.665 89.801 0 168.934 37.588 235.166 110.751 15.182 16.771 13.894 42.673-2.877 57.855zM363.521 698.88c-22.622 0-40.96-18.338-40.96-40.96v0l0.019-134.396c0.674-22.031 18.746-39.684 40.941-39.684 22.622 0 40.96 18.338 40.96 40.96v0 133.12l-0.019 1.276c-0.674 22.031-18.746 39.684-40.941 39.684zM660.481 698.88c-22.622 0-40.96-18.338-40.96-40.96v0l0.019-134.396c0.674-22.031 18.746-39.684 40.941-39.684 22.622 0 40.96 18.338 40.96 40.96v0 133.12l-0.019 1.276c-0.674 22.031-18.746 39.684-40.941 39.684z" />
<glyph unicode="&#xe917;" glyph-name="info" d="M512 960c282.77 0 512-229.23 512-512s-229.23-512-512-512c-282.77 0-512 229.23-512 512s229.23 512 512 512zM511.778 547.401c-22.821 0-42.679-5.157-59.575-15.47-15.36-9.376-27.365-24.645-36.015-45.808l-2.494-6.526-18.432-51.346h12.507l15.141 40.155c6.144 15.799 12.069 26.661 17.774 32.585s11.849 8.887 18.432 8.887c9.421 0 11.769-8.028 7.045-24.084l-1.121-3.564-60.562-181.687c-8.338-25.454-11.191-46.629-8.558-63.525s9.984-29.403 22.053-37.522c12.069-8.119 27.758-12.178 47.067-12.178 17.554 0 35.218 4.389 52.992 13.166 16.407 8.102 29.354 24.244 38.843 48.425l2.3 6.213 16.457 48.055h-12.507l-13.824-36.864c-7.022-18.432-13.605-29.952-19.749-34.56s-11.191-6.912-15.141-6.912c-4.389 0-7.68 1.865-9.874 5.595-1.92 3.264-1.656 9.3 0.792 18.108l1.183 3.945 68.462 202.752c4.827 14.043 6.363 28.087 4.608 42.13s-7.899 25.893-18.432 35.547c-10.533 9.655-26.99 14.482-49.371 14.482zM572.998 711.314c-22.821 0-41.911-5.705-57.271-17.115s-23.040-28.965-23.040-52.663c0-14.043 4.937-24.795 14.811-32.256s24.247-11.191 43.118-11.191c22.821 0 42.021 6.254 57.6 18.761s23.369 29.074 23.369 49.701c0 14.921-4.937 26.112-14.811 33.573s-24.466 11.191-43.776 11.191z" />
<glyph unicode="&#xe918;" glyph-name="bell" horiz-adv-x="845" d="M523.597 64.641h-202.395c-1.64-7.451-2.506-15.199-2.506-23.153 0-58.259 46.429-105.488 103.703-105.488s103.703 47.228 103.703 105.488c0 7.954-0.865 15.702-2.506 23.153zM419.871 960c-22.351 0-40.469-18.431-40.469-41.166l0.003-90.152c-151.301-20.159-268.113-151.811-268.113-311.216v-77.186c0-10.419 0.499-20.72 1.474-30.878l-1.474 0.004v-164.664l-0.019-1.282c-0.45-14.961-8.748-27.914-20.848-34.741l-51.215-0.017c-21.767-0.677-39.209-18.84-39.209-41.146 0-22.735 18.119-41.166 40.469-41.166l765.122 0.020c21.767 0.677 39.209 18.84 39.209 41.146 0 22.735-18.119 41.166-40.469 41.166l-44.895-0.003c-12.444 7.022-20.868 20.522-20.868 36.023v164.664l-1.474-0.004c0.975 10.159 1.474 20.459 1.474 30.878v77.186c0 162.938-122.048 296.879-278.224 312.391l-0.004 88.977c0 22.735-18.119 41.166-40.469 41.166z" />
<glyph unicode="&#xe919;" glyph-name="trziste" horiz-adv-x="845" d="M419.855 960c130.696 0 236.646-106.592 236.646-238.080v-17.92h122.14c36.539 0 66.159-29.8 66.159-66.56v-599.040c0-56.554-45.57-102.4-101.783-102.4h-641.234c-56.213 0-101.783 45.846-101.783 102.4v599.040c0 36.76 29.62 66.56 66.159 66.56h117.051v17.92c0 131.488 105.95 238.080 236.646 238.080zM505.904 506.514c-39.841 0-67.539-22.113-83.855-53.264-16.126 30.958-44.014 53.264-83.855 53.264-63.745 0-119.711-52.687-119.711-133.256 0-81.159 66.1-162.318 164.682-230.386l7.012-4.783c11.762-8.076 23.904-15.575 31.872-15.575 7.549 0 18.843 6.731 30.013 14.306l8.872 6.052c98.582 68.068 164.682 149.227 164.682 230.386 0 80.569-55.966 133.256-119.711 133.256zM417.311 872.96c-83.477 0-151.306-67.401-152.654-151.060l-0.020-2.54v-15.36h305.349v15.36c0 84.831-68.355 153.6-152.675 153.6z" />
<glyph unicode="&#xe91a;" glyph-name="pin" d="M341.424 270.6c17.63-17.277 18.094-45.007 1.392-62.835l-1.392-1.423-262.276-257.033c-18.106-17.744-47.463-17.744-65.569 0-17.63 17.277-18.094 45.007-1.392 62.835l1.392 1.423 262.276 257.033c18.106 17.744 47.463 17.744 65.569 0zM1002.272 728.205c28.97-28.391 28.97-74.422 0-102.813-5.379-5.272-11.554-9.701-18.308-13.133l-279.659-142.109c33.442-95.807 9.572-218.219-71.612-367.237-9.648-17.71-32.118-24.401-50.189-14.946-3.223 1.687-6.175 3.831-8.758 6.363l-415.915 407.601c-14.485 14.196-14.485 37.211 0 51.407 2.584 2.532 5.535 4.676 8.758 6.363 145.864 76.32 266.746 100.956 362.646 73.906l138.86 285.003c17.653 36.233 61.935 51.58 98.907 34.28 7.604-3.558 14.533-8.36 20.491-14.198l214.778-210.485z" />
<glyph unicode="&#xe91b;" glyph-name="spendlik" horiz-adv-x="614" d="M307.2 960c169.662 0 307.2-137.538 307.2-307.2 0-49.112-11.525-95.533-32.017-136.704-38.998-99.772-113.65-229.797-223.948-390.043l-0.035-138.852c0-28.277-22.923-51.2-51.2-51.2-27.688 0-50.243 21.978-51.17 49.44l-0.030 1.76v138.801c-110.298 160.242-184.955 290.267-223.97 390.074-20.496 41.153-32.031 87.592-32.031 136.724 0 169.662 137.538 307.2 307.2 307.2zM307.2 799.086c-80.791 0-146.286-65.494-146.286-146.286s65.494-146.286 146.286-146.286c80.791 0 146.286 65.494 146.286 146.286s-65.494 146.286-146.286 146.286z" />
<glyph unicode="&#xe91c;" glyph-name="chyba" d="M512 960c282.77 0 512-229.23 512-512s-229.23-512-512-512c-282.77 0-512 229.23-512 512s229.23 512 512 512zM508.635 300.544c-21.065 0-37.193-4.718-48.384-14.153s-16.786-23.589-16.786-42.459c0-18.871 5.595-33.024 16.786-42.459s27.319-14.153 48.384-14.153c20.626 0 36.645 4.718 48.055 14.153s17.115 23.589 17.115 42.459c0 18.871-5.705 33.024-17.115 42.459s-27.429 14.153-48.055 14.153zM508.635 711.314c-20.187 0-36.864-7.461-50.030-22.382s-19.749-35.109-19.749-60.562c0-20.187 2.962-41.472 8.887-63.854s12.837-46.19 20.736-71.424c7.899-25.234 15.141-51.785 21.723-79.653 5.486-23.223 9.295-47.436 11.429-72.64l1.079-15.241h11.849l0.448 7.064c1.963 28.154 5.983 55.093 12.059 80.817 6.583 27.867 13.824 54.418 21.723 79.653s14.811 49.042 20.736 71.424c5.925 22.382 8.887 43.666 8.887 63.854 0 25.454-7.131 45.641-21.394 60.562s-30.391 22.382-48.384 22.382z" />
<glyph unicode="&#xe91d;" glyph-name="srdce" d="M512-25.6c20.041 0 50.58 18.498 80.164 38.419 257.67 170.278 431.836 375.18 431.836 580.083 0 198.737-140.764 328.698-301.092 328.698-100.205 0-169.871-54.546-210.908-131.384-40.559 76.364-110.703 131.384-210.908 131.384-160.328 0-301.092-129.961-301.092-328.698 0-204.903 174.166-409.805 431.836-580.083 29.584-19.921 60.123-38.419 80.164-38.419z" />
<glyph unicode="&#xe91e;" glyph-name="hledat" d="M434.595 960c240.020 0 434.595-194.807 434.595-435.114 0-87.788-25.967-169.504-70.631-237.869l199.953-201.396c34.127-34.372 33.962-89.934-0.369-124.103-33.759-33.599-87.983-33.999-122.231-1.321l-1.724 1.69-199.095 200.525c-68.87-45.895-151.565-72.641-240.499-72.641-240.020 0-434.595 194.807-434.595 435.114s194.575 435.114 434.595 435.114zM438.247 828.369c-169.426 0-306.773-137.511-306.773-307.14s137.347-307.14 306.773-307.14c169.426 0 306.773 137.511 306.773 307.14s-137.347 307.14-306.773 307.14z" />
<glyph unicode="&#xe91f;" glyph-name="more" d="M512 960c282.77 0 512-229.23 512-512s-229.23-512-512-512c-282.77 0-512 229.23-512 512s229.23 512 512 512zM277.943 535.771c-48.475 0-87.771-39.297-87.771-87.771s39.297-87.771 87.771-87.771c48.475 0 87.771 39.297 87.771 87.771s-39.297 87.771-87.771 87.771zM512 535.771c-48.475 0-87.771-39.297-87.771-87.771s39.297-87.771 87.771-87.771c48.475 0 87.771 39.297 87.771 87.771s-39.297 87.771-87.771 87.771zM746.057 535.771c-48.475 0-87.771-39.297-87.771-87.771s39.297-87.771 87.771-87.771c48.475 0 87.771 39.297 87.771 87.771s-39.297 87.771-87.771 87.771z" />
<glyph unicode="&#xe920;" glyph-name="sdilet" d="M832 960c106.039 0 192-85.961 192-192s-85.961-192-192-192c-51.764 0-98.744 20.485-133.275 53.79l-316.174-158.086c0.956-7.767 1.449-15.678 1.449-23.704 0-8.035-0.494-15.954-1.452-23.73l316.177-158.060c34.531 33.305 81.511 53.79 133.275 53.79 106.039 0 192-85.961 192-192s-85.961-192-192-192c-106.039 0-192 85.961-192 192 0 8.035 0.494 15.954 1.452 23.73l-316.177 158.060c-34.531-33.305-81.511-53.79-133.275-53.79-106.039 0-192 85.961-192 192s85.961 192 192 192c51.764 0 98.744-20.485 133.275-53.79l316.177 158.060c-0.958 7.776-1.452 15.695-1.452 23.73 0 106.039 85.961 192 192 192z" />
<glyph unicode="&#xe921;" glyph-name="bublina" d="M512 960c282.77 0 512-212.177 512-473.91s-229.23-473.91-512-473.91c-59.633 0-116.885 9.436-170.108 26.784l-193.262-96.489c-18.058-9.015-39.059-8.597-56.784 1.129-29.135 15.987-41.771 52.364-30.396 84.053l3.055 7.218 66.178 134.952c-81.259 83.882-130.684 194.73-130.684 316.263 0 261.733 229.23 473.91 512 473.91z" />
<glyph unicode="&#xe922;" glyph-name="mail" d="M1.023 746.038c-0.672-3.548-1.023-7.209-1.023-10.952v-574.171c0-32.317 26.198-58.514 58.514-58.514h906.971c32.317 0 58.514 26.198 58.514 58.514v574.171c0 2.37-0.141 4.706-0.415 7.002l-293.627-295.137 226.958-228.161c11.426-11.486 11.426-30.11 0-41.596-11.045-11.104-28.723-11.474-40.21-1.11l-228.118 229.267-107.782-108.385c-36.754-36.949-96.344-36.949-133.097 0l-110.070 110.663-230.345-231.545c-11.487-10.363-29.165-9.993-40.21 1.11-11.426 11.486-11.426 30.11 0 41.596l229.185 230.439-295.245 296.809zM965.486 793.6h-906.971c-6.564 0-12.876-1.081-18.767-3.074l449.338-451.964c13.903-13.977 36.443-13.977 50.346 0l448.221 450.694c-6.837 2.8-14.321 4.344-22.166 4.344z" />
<glyph unicode="&#xe923;" glyph-name="job" d="M393.421 375.040l-371.863-0.024c-11.906 0-21.558-9.652-21.558-21.558v-297.542c0-23.812 19.304-43.116 43.116-43.116h937.768c23.812 0 43.116 19.304 43.116 43.116v297.542c0 11.906-9.652 21.558-21.558 21.558l-377.265 0.024 0.001-35.524-0.126-5.455c-2.848-61.463-53.581-110.419-115.748-110.419l-5.455 0.126c-61.463 2.848-110.419 53.581-110.419 115.748l-0.011 35.524zM528.168 450.703h-43.116c-14.883 0-26.947-12.065-26.947-26.947v-81.327c0-26.789 21.717-48.505 48.505-48.505s48.505 21.717 48.505 48.505v81.327c0 14.883-12.065 26.947-26.947 26.947zM512 883.2c119.061 0 215.579-88.75 215.579-198.228l-0.027-1.785 253.332-0.017c23.812 0 43.116-19.304 43.116-43.116v-167.793c0-11.906-9.652-21.558-21.558-21.558l-377.265 0.010 0.001 27.154c0 22.559-17.325 41.071-39.396 42.958l-3.72 0.158h-145.516c-22.559 0-41.071-17.325-42.958-39.396l-0.158-3.72-0.011-27.154-371.863-0.010c-11.906 0-21.558 9.652-21.558 21.558v167.793c0 23.812 19.304 43.116 43.116 43.116l253.314 0.008c-0.006 0.598-0.009 1.196-0.009 1.795 0 109.478 96.518 198.228 215.579 198.228zM512 802.107c-71.437 0-129.347-53.25-129.347-118.937h258.695c0 65.687-57.911 118.937-129.347 118.937z" />
<glyph unicode="&#xe924;" glyph-name="odhlasit" d="M427.125 936.976c0.48-2.13 0.722-4.306 0.722-6.489v-26.169l321.011-0.030c24.4-0.865 44.161-20.069 46.076-44.328l0.152-3.87v-109.247l-0.032-1.641c-0.809-20.568-16.751-37.222-36.936-39.009l-3.604-0.159-1.632 0.032c-20.448 0.814-37.005 16.849-38.782 37.152l-0.158 3.625-0.007 75.853-286.090 0.005v-739.935l286.090 0.005 0.007 75.853c0 21.989 17.289 39.915 38.94 40.777l1.632 0.032c21.861 0 39.683-17.39 40.539-39.168l0.032-1.641v-109.247c0-26.057-20.544-47.288-46.229-48.199l-1.72-0.030h-319.291v-35.639c0-16.296-13.211-29.507-29.507-29.507-2.183 0-4.36 0.242-6.489 0.722l-368.834 83.153c-13.458 3.034-23.017 14.988-23.017 28.784v798.673c0 13.796 9.559 25.75 23.017 28.784l368.834 83.153c15.897 3.584 31.69-6.398 35.274-22.295zM767.174 633.5c-16.296 0-29.507-13.211-29.507-29.507l-0.004-84.387-184.025-0.008c-36.881 0-66.779-29.898-66.779-66.779s29.898-66.779 66.779-66.779l184.025 0.010 0.004-86.931c0-5.659 1.628-11.199 4.689-15.96 8.814-13.707 27.071-17.673 40.778-8.858l227.324 146.184c3.236 2.081 6.033 4.774 8.235 7.928 9.328 13.362 6.057 31.756-7.305 41.084l-227.324 158.689c-4.953 3.458-10.849 5.312-16.89 5.312zM254.495 485.096c-34.629 0-62.702-28.237-62.702-63.069s28.073-63.069 62.702-63.069c34.629 0 62.702 28.237 62.702 63.069s-28.073 63.069-62.702 63.069z" />
<glyph unicode="&#xe925;" glyph-name="groups" d="M664.402 782.888c-36.594 0-70.392-14.657-97.695-39.439 15.535-34.467 24.297-73.779 24.297-115.34 0-63.897-20.779-123.952-56.95-168.9 10.932-17.432 24.142-32.608 39.085-44.861l-0.012-33.539-1.045-0.347c0-0.755-0.027-1.503-0.087-2.238 4.865-1.87 10.222-3.84 16.202-5.966l6.193-2.181 10.133-3.495 34.009-11.503c24.573-8.428 40.947-14.605 55.473-21.282l4.105-1.924 4.038-1.965 3.717-1.875c30.276-15.52 50.234-33.33 58.32-57.411 14.722-43.841 27.048-103.844 37.176-180.333l1.581-12.214c1.222-9.66-0.809-18.981-5.244-26.874h212.271c0.578 0 1.156 0.039 1.73 0.11 7.689 0.951 13.148 7.923 12.192 15.573-9.403 75.28-20.938 133.466-34.605 174.558-21.902 65.852-226.324 73.168-226.324 139.020l0.007 40.234c39.895 36.71 65.7 95.153 65.7 160.979 0 111.127-73.545 201.213-164.267 201.213zM384.145 844.8l-2.987-0.029c-97.28-1.914-175.655-98.184-175.655-216.662 0-8.382 0.392-16.653 1.161-24.789 5.937-63.631 34.566-118.914 75.827-153.637l2.393-1.982-0.006-35.907-1.146-0.377c0-70.917-222.268-78.797-246.082-149.714-14.809-44.099-27.316-106.481-37.52-187.144-0.1-0.791-0.139-1.576-0.128-2.353-0.032-7.86 5.835-14.688 13.867-15.694 0.656-0.082 1.317-0.123 1.978-0.123h743.383c0.661 0 1.322 0.041 1.978 0.123 8.68 1.088 14.831 8.974 13.739 17.614-3.983 31.496-8.316 60.206-13 86.131l-1.215 6.644c-7.022 37.71-14.813 69.311-23.373 94.803-23.092 68.766-232.783 78.261-245.485 143.431-0.366 1.962-0.555 3.974-0.555 6.039l0.005 43.351c43.383 39.556 71.444 102.531 71.444 173.462 0 119.743-79.973 216.813-178.624 216.813z" />
<glyph unicode="&#xe926;" glyph-name="close" d="M143.792 937.758c-33.778 30.613-86 29.625-118.587-2.963-31.6-31.6-33.486-81.663-5.658-115.467l2.696-3.12 2.963-3.111 365.085-365.084-368.048-368.221c-30.613-33.778-29.625-86 2.963-118.587s84.81-33.575 118.587-2.963l3.111 2.963 365.084 365.093 368.221-368.056c33.778-30.613 86-29.625 118.587 2.963 31.6 31.6 33.486 81.663 5.658 115.467l-2.696 3.12-2.963 3.111-365.093 365.109 368.056 368.195c30.613 33.778 29.625 86-2.963 118.587s-84.81 33.575-118.587 2.963l-3.111-2.963-365.109-365.085-368.195 368.048z" />
<glyph unicode="&#xe927;" glyph-name="zrusit" d="M512 960c282.77 0 512-229.23 512-512s-229.23-512-512-512c-282.77 0-512 229.23-512 512s229.23 512 512 512zM353.68 650.662c-14.355 13.010-36.548 12.59-50.397-1.259-13.43-13.43-14.231-34.705-2.405-49.071l1.146-1.326 1.259-1.322 155.155-155.154-156.414-156.487c-13.010-14.355-12.59-36.548 1.259-50.397s36.043-14.269 50.397-1.259l1.322 1.259 155.154 155.158 156.487-156.417c14.355-13.010 36.548-12.59 50.397 1.259 13.43 13.43 14.231 34.705 2.405 49.071l-1.146 1.326-1.259 1.322-155.158 155.165 156.417 156.476c13.010 14.355 12.59 36.548-1.259 50.397s-36.043 14.269-50.397 1.259l-1.322-1.259-155.165-155.155-156.476 156.414z" />
<glyph unicode="&#xe928;" glyph-name="ruce" d="M885.333 64.248c5.236 0 9.592-3.773 10.495-8.749l0.172-1.917v-106.915c0-5.236-3.773-9.592-8.749-10.495l-1.917-0.172h-245.333c-5.236 0-9.592 3.773-10.495 8.749l-0.172 1.917v106.915c0 5.236 3.773 9.592 8.749 10.495l1.917 0.172h245.333zM384 64.248c5.891 0 10.667-4.776 10.667-10.667v-106.915c0-5.891-4.776-10.667-10.667-10.667h-245.333c-5.891 0-10.667 4.776-10.667 10.667v106.915c0 5.891 4.776 10.667 10.667 10.667h245.333zM10.667 707.927c0.999 0 1.993-0.14 2.953-0.417 35.607-10.261 59.511-30.528 71.713-60.802 12.862-31.911 21.484-93.535 25.866-184.872l0.506-11.103c0.199-4.617 1.893-9.045 4.825-12.617 61.318-74.685 98.919-112.028 112.803-112.028 11.42 3.814 6.242 43.56-15.534 119.237l-2.312 7.957c-5.070 17.287 0.888 35.778 14.755 46.884l3.091 2.264c9.235 6.168 23.799 4.326 43.694-5.526l4.686-2.416c3.226-1.726 5.953-4.253 7.921-7.337 32.908-51.593 55.030-108.843 66.366-171.749 10.491-58.215 11.359-121.476 2.606-189.783-1.366-10.646-10.427-18.62-21.16-18.62h-154.67c-1.739 0-3.369 0.848-4.368 2.273l-166.682 237.856c-5.028 7.175-7.725 15.724-7.725 24.486v325.651c0.001 5.89 4.776 10.665 10.667 10.665zM1013.333 707.927c5.236 0 9.59-3.773 10.494-8.748l0.172-1.917v-325.651c0-7.301-1.873-14.455-5.407-20.789l-2.318-3.697-166.682-237.856c-0.749-1.068-1.853-1.813-3.092-2.118l-1.276-0.155h-154.67c-10.733 0-19.795 7.975-21.16 18.62-8.754 68.307-7.885 131.568 2.606 189.783 11.336 62.906 33.458 120.156 66.366 171.749 1.476 2.313 3.379 4.313 5.599 5.896l2.322 1.441 4.686 2.416c18.364 9.095 32.187 11.364 41.468 6.807l2.226-1.281 3.091-2.264c12.876-10.312 18.933-26.993 15.674-43.164l-0.919-3.72-2.312-7.957c-21.776-75.677-26.954-115.423-15.534-119.237 13.883 0 51.484 37.343 112.803 112.028 2.346 2.858 3.899 6.263 4.529 9.875l0.297 2.742 0.506 11.103c4.382 91.337 13.004 152.961 25.866 184.872 12.202 30.274 36.107 50.542 71.713 60.802 0.96 0.277 1.954 0.417 2.953 0.417zM616.592 960c76.728 0 144.094-62.341 144.094-157.674 0-98.29-83.351-196.58-206.664-278.261-14.158-9.556-28.773-18.429-38.364-18.429s-24.206 8.873-38.364 18.429c-123.314 81.681-206.664 179.971-206.664 278.261 0 95.332 67.366 157.674 144.094 157.674 47.955 0 81.524-26.393 100.934-63.024 19.639 36.859 52.979 63.024 100.934 63.024z" />
<glyph unicode="&#xe929;" glyph-name="zajmy" d="M557.235 960c121.187 0 219.429-98.242 219.429-219.429 0-4.296-0.126-8.59-0.378-12.878l-12.356-209.933 105.95 29.428c15.568 4.327 31.696-4.786 36.023-20.354 0.709-2.551 1.068-5.187 1.068-7.834l0.012-76.475c67.356-17.787 117.017-79.163 117.017-152.144s-49.661-134.357-117.017-152.144l-0.012-70.783c0-13.141-8.762-24.67-21.423-28.189l-369.632-102.731c-2.563-0.712-5.272-0.712-7.834 0l-369.632 102.731c-12.661 3.519-21.423 15.048-21.423 28.189l-0.012 70.783c-67.356 17.787-117.017 79.163-117.017 152.144s49.661 134.357 117.017 152.144l0.012 76.475c0 16.158 13.099 29.257 29.257 29.257 2.648 0 5.283-0.359 7.834-1.068l105.925-29.428-12.33 209.933c-7.113 120.978 85.194 224.816 206.172 231.929 4.288 0.252 8.583 0.378 12.878 0.378h90.47zM906.98 355.845v-130.928c21.939 13.528 36.563 37.787 36.563 65.464s-14.624 51.936-36.563 65.464zM117.020 355.845c-21.939-13.528-36.563-37.787-36.563-65.464s14.624-51.936 36.563-65.464v130.928zM512 736.794c0-30.313-76.956-54.887-171.886-54.887-7.194 0-14.285 0.141-21.236 0.434l0.019-7.277 0.293-7.331 9.898-169.172 178.995-49.748c2.563-0.712 5.272-0.712 7.834 0l178.969 49.748 9.924 169.172c0.221 3.765 0.331 7.536 0.331 11.307 0 1.097-0.009 2.192-0.030 3.281-6.955-0.273-14.039-0.414-21.225-0.414-94.93 0-171.886 24.574-171.886 54.887zM424.229 652.634c24.237 0 43.886-19.659 43.886-43.909s-19.648-43.909-43.886-43.909c-24.237 0-43.886 19.659-43.886 43.909s19.648 43.909 43.886 43.909zM599.771 652.634c24.237 0 43.886-19.659 43.886-43.909s-19.648-43.909-43.886-43.909c-24.237 0-43.886 19.659-43.886 43.909s19.648 43.909 43.886 43.909z" />
<glyph unicode="&#xe92a;" glyph-name="srdce-out" horiz-adv-x="1107" d="M781.522 960c173.328 0 325.505-140.499 325.505-355.349 0-218.16-182.625-436.32-454.25-618.724l-24.617-16.361c-28.042-18.255-55.688-33.566-74.646-33.566s-46.604 15.311-74.646 33.566l-12.018 7.968c-278.562 184.084-466.85 405.6-466.85 627.117 0 214.85 152.178 355.349 325.505 355.349 108.33 0 184.161-59.481 228.008-142.037 44.364 83.069 119.679 142.037 228.008 142.037zM781.522 904.649c-77.275 0-136.107-37.221-175.084-105.344l-4.1-7.417-48.959-91.673-48.75 91.785c-38.417 72.33-99.208 112.649-179.124 112.649-150.699 0-270.154-123.997-270.154-299.998 0-184.558 154.777-387.932 429.254-572.433l13.161-8.771c15.226-10.253 27.234-17.782 37.364-23.29l4.23-2.239c8.028-4.128 13.482-6.105 14.137-6.493l8.666 3.792c0.825 0.386 1.699 0.803 2.618 1.253l2.886 1.448c8.246 4.24 17.732 9.889 29.469 17.505l12.525 8.291c282.286 186.545 442.015 393.451 442.015 580.938 0 176-119.455 299.998-270.154 299.998z" />
<glyph unicode="&#xe92b;" glyph-name="bublina-out" d="M512 960c282.77 0 512-212.177 512-473.91s-229.23-473.91-512-473.91c-59.633 0-116.885 9.436-170.108 26.784l-193.262-96.489c-18.058-9.015-39.059-8.597-56.784 1.129-29.135 15.987-41.771 52.364-30.396 84.053l3.055 7.218 66.178 134.952c-81.259 83.882-130.684 194.73-130.684 316.263 0 261.733 229.23 473.91 512 473.91zM512 908.8c-255.339 0-460.8-190.176-460.8-422.71 0-101.292 38.967-197.076 108.912-272.87l7.346-7.769 25.043-25.851-81.423-166.007-1.638-3.891-0.535-1.954c-1.454-7.011 1.063-14.252 5.726-18.017l1.846-1.242c2.407-1.321 4.97-1.627 7.446-0.924l1.837 0.716 212.041 105.865 19.957-6.505c49.054-15.989 100.995-24.264 154.242-24.264 255.339 0 460.8 190.176 460.8 422.71s-205.461 422.71-460.8 422.71z" />
</font>
</defs>
</svg>
