<?xml version="1.0" encoding="UTF-8" standalone="no"?>
<!-- Created with Inkscape (http://www.inkscape.org/) -->

<svg
   xmlns:dc="http://purl.org/dc/elements/1.1/"
   xmlns:cc="http://creativecommons.org/ns#"
   xmlns:rdf="http://www.w3.org/1999/02/22-rdf-syntax-ns#"
   xmlns:svg="http://www.w3.org/2000/svg"
   xmlns="http://www.w3.org/2000/svg"
   xmlns:sodipodi="http://sodipodi.sourceforge.net/DTD/sodipodi-0.dtd"
   xmlns:inkscape="http://www.inkscape.org/namespaces/inkscape"
   width="27.319818mm"
   height="29.633772mm"
   viewBox="0 0 96.802506 105.00155"
   id="svg4557"
   version="1.1"
   inkscape:version="0.91 r"
   sodipodi:docname="money.svg">
  <defs
     id="defs4559" />
  <sodipodi:namedview
     id="base"
     pagecolor="#ffffff"
     bordercolor="#666666"
     borderopacity="1.0"
     inkscape:pageopacity="0.0"
     inkscape:pageshadow="2"
     inkscape:zoom="0.98994949"
     inkscape:cx="81.817933"
     inkscape:cy="-14.24947"
     inkscape:document-units="px"
     inkscape:current-layer="layer1"
     showgrid="false"
     fit-margin-top="0"
     fit-margin-left="0"
     fit-margin-right="0"
     fit-margin-bottom="0"
     inkscape:window-width="1366"
     inkscape:window-height="718"
     inkscape:window-x="0"
     inkscape:window-y="0"
     inkscape:window-maximized="1" />
  <metadata
     id="metadata4562">
    <rdf:RDF>
      <cc:Work
         rdf:about="">
        <dc:format>image/svg+xml</dc:format>
        <dc:type
           rdf:resource="http://purl.org/dc/dcmitype/StillImage" />
        <dc:title></dc:title>
      </cc:Work>
    </rdf:RDF>
  </metadata>
  <g
     inkscape:label="Layer 1"
     inkscape:groupmode="layer"
     id="layer1"
     transform="translate(-274.45589,-405.57571)">
    <g
       transform="translate(258.27443,10.36559)"
       id="g4507"
       style="fill:#424242;fill-opacity:1">
      <path
         inkscape:connector-curvature="0"
         style="fill:#424242;fill-opacity:1"
         d="m 79.00011,498.9833 c -19.94579,-6.39622 -23.93554,-34.03226 -6.66898,-46.19437 6.02877,-4.2465 16.04839,-5.65288 23.27702,-3.26722 14.91336,4.92185 21.78294,22.61543 14.37181,37.01665 -5.59796,10.8779 -19.03462,16.27555 -30.97985,12.44494 z"
         id="path4444" />
      <path
         inkscape:connector-curvature="0"
         style="fill:#424242;fill-opacity:1"
         d="m 23.92067,493.06936 c -5.38996,-2.80577 -8.82679,-6.43097 -7.42539,-7.83237 0.3797,-0.3797 2.60279,0.26367 4.94019,1.42971 5.17154,2.57991 23.14115,3.75056 28.56233,1.86072 3.30955,-1.15371 4.00542,-1.00338 5.13625,1.10958 1.10861,2.07146 0.77628,2.66593 -2.17977,3.89914 -1.91829,0.80028 -7.9878,1.67219 -13.4878,1.93758 -8.59138,0.41456 -10.78119,0.0759 -15.54581,-2.40436 z"
         id="path4442" />
      <path
         inkscape:connector-curvature="0"
         style="fill:#424242;fill-opacity:1"
         d="m 25.71648,483.12209 c -4.43698,-1.63616 -9.375,-5.86965 -9.375,-8.03743 0,-1.09462 1.88821,-0.81955 6.56025,0.95568 5.19008,1.97208 8.84839,2.40388 17.51562,2.06741 9.72385,-0.37748 11.0367,-0.1688 11.67888,1.85641 0.39794,1.25494 0.37593,2.62929 -0.0489,3.05412 -1.42122,1.42123 -22.53252,1.50445 -26.33084,0.10381 z"
         id="path4440" />
      <path
         inkscape:connector-curvature="0"
         style="fill:#424242;fill-opacity:1"
         d="m 31.91815,473.18695 c -9.67389,-1.21658 -15.57667,-4.97252 -15.57667,-9.91144 0,-0.59261 2.64116,0.0908 5.86924,1.51877 6.13456,2.71361 21.67099,3.67929 27.69166,1.72121 2.64867,-0.86142 2.84749,-0.6676 2.03222,1.98107 -0.49703,1.61475 -1.1232,3.17841 -1.39149,3.47482 -1.08485,1.19853 -12.7214,1.958 -18.62496,1.21557 z"
         id="path4438" />
      <path
         inkscape:connector-curvature="0"
         style="fill:#424242;fill-opacity:1"
         d="m 31.96645,462.5446 c -12.01074,-2.87575 -16.93687,-6.95023 -14.31837,-11.84296 4.2729,-7.98398 30.02147,-9.4838 39.17706,-2.28201 l 3.1356,2.46647 -2.61736,4.43608 c -1.43954,2.43985 -3.88892,4.91954 -5.44307,5.51043 -3.61216,1.37334 -16.6659,2.49444 -19.93386,1.71199 z"
         id="path4436" />
      <path
         inkscape:connector-curvature="0"
         style="fill:#424242;fill-opacity:1"
         d="m 67.16018,441.02153 c -1.1378,-1.25726 -2.06873,-2.94476 -2.06873,-3.75 0,-1.74116 2.05281,-1.94891 3.06556,-0.31024 0.39221,0.6346 2.49503,1.5452 4.67293,2.02355 l 3.95983,0.86973 -3.03666,1.68215 c -3.9548,2.19075 -4.15849,2.17483 -6.59293,-0.51519 z"
         id="path4434" />
      <path
         inkscape:connector-curvature="0"
         style="fill:#424242;fill-opacity:1"
         d="m 101.09758,441.6089 -3.36887,-1.49551 5.55637,-1.99805 c 5.15982,-1.85546 5.55637,-1.84854 5.55637,0.097 0,2.04929 -2.323,5.19506 -3.6875,4.99357 -0.37813,-0.0558 -2.20349,-0.77451 -4.05637,-1.59704 z"
         id="path4432" />
      <path
         inkscape:connector-curvature="0"
         style="fill:#424242;fill-opacity:1"
         d="m 74.42733,434.47982 c -4.39071,-1.27715 -9.33588,-5.50198 -9.33588,-7.97596 0,-1.34639 1.35426,-1.19164 6.42165,0.73382 9.96806,3.78756 25.31897,3.30732 33.98862,-1.0633 3.40002,-1.71405 3.51957,-1.67147 3.125,1.11292 -0.69747,4.92183 -9.73472,8.54206 -20.98763,8.40743 -5.18245,-0.062 -11.12775,-0.60872 -13.21176,-1.21491 z"
         id="path4430" />
      <path
         inkscape:connector-curvature="0"
         style="fill:#424242;fill-opacity:1"
         d="m 79.97015,424.50663 c -9.44294,-1.54015 -14.8787,-5.22404 -14.8787,-10.08351 0,-0.64892 1.73471,-0.28281 3.85491,0.81359 9.31351,4.8162 26.74283,4.82357 36.38108,0.0154 3.52917,-1.76058 3.65781,-1.72435 3.2811,0.92397 -0.81968,5.76241 -16.47074,10.31511 -28.63839,8.33056 z"
         id="path4428" />
      <path
         inkscape:connector-curvature="0"
         style="fill:#424242;fill-opacity:1"
         d="m 78.84145,413.45964 c -5.99728,-1.30947 -12.03285,-4.63184 -13.00188,-7.15708 -1.21878,-3.1761 2.3487,-7.57462 7.6451,-9.42603 7.30195,-2.55246 22.4977,-2.09753 28.39564,0.85011 8.98088,4.4884 9.16524,9.08523 0.53698,13.38902 -5.05837,2.52313 -17.21831,3.73211 -23.57584,2.34398 z"
         id="path4153" />
    </g>
  </g>
</svg>
