<?xml version="1.0" encoding="UTF-8" standalone="no"?>
<svg
   xmlns:dc="http://purl.org/dc/elements/1.1/"
   xmlns:cc="http://creativecommons.org/ns#"
   xmlns:rdf="http://www.w3.org/1999/02/22-rdf-syntax-ns#"
   xmlns:svg="http://www.w3.org/2000/svg"
   xmlns="http://www.w3.org/2000/svg"
   version="1.1"
   id="svg4557"
   viewBox="0 0 86.071426 86.071424"
   height="24.291269mm"
   width="24.291269mm">
  <defs
     id="defs4559" />
  <metadata
     id="metadata4562">
    <rdf:RDF>
      <cc:Work
         rdf:about="">
        <dc:format>image/svg+xml</dc:format>
        <dc:type
           rdf:resource="http://purl.org/dc/dcmitype/StillImage" />
        <dc:title></dc:title>
      </cc:Work>
    </rdf:RDF>
  </metadata>
  <g
     transform="translate(-285.90181,-405.32198)"
     id="layer1">
    <path
       id="path5478"
       d="m 300.83328,482.78614 c -0.9034,-1.68803 -1.64254,-4.90113 -1.64254,-7.14023 0,-3.69182 -0.59133,-4.07111 -6.34687,-4.07111 l -6.34687,0 0,-12.69374 c 0,-10.57812 0.52891,-13.22265 3.17344,-15.86718 1.74538,-1.74539 4.60148,-3.17343 6.34687,-3.17343 2.94782,0 3.17343,-1.05781 3.17343,-14.87953 0,-11.0598 0.59039,-15.36952 2.29983,-16.78823 1.6087,-1.33509 8.49295,-1.7511 22.90798,-1.38432 20.42366,0.51967 20.65293,0.56698 25.60938,5.28452 6.93334,6.59912 9.47808,12.11614 9.47808,20.54853 0,6.16122 0.46501,7.21903 3.17343,7.21903 1.74539,0 4.60148,1.42804 6.34687,3.17343 2.64453,2.64453 3.17344,5.28906 3.17344,15.86718 l 0,12.69374 -6.34687,0 c -5.75555,0 -6.34687,0.37929 -6.34687,4.07111 0,2.2391 -0.73915,5.4522 -1.64255,7.14023 -1.52463,2.8488 -3.57081,3.06911 -28.50509,3.06911 -24.93427,0 -26.98045,-0.22031 -28.50509,-3.06911 z m 51.5125,-10.41798 0,-6.34687 -23.00741,0 -23.0074,0 -0.51501,4.4975 c -1.03336,9.02424 -0.77837,9.11643 23.88609,8.63668 l 22.64373,-0.44044 0,-6.34687 z m 12.69374,-23.00741 c 0,-1.28514 -1.24954,-2.57726 -2.77676,-2.87137 -1.94825,-0.37519 -2.77675,0.48153 -2.77675,2.87137 0,2.38984 0.8285,3.24657 2.77675,2.87138 1.52722,-0.29412 2.77676,-1.58624 2.77676,-2.87138 z m -12.22135,-13.09042 -0.47239,-9.91698 -5.53965,-0.52576 c -6.27415,-0.59548 -7.88835,-2.34714 -7.92316,-8.59787 l -0.0242,-4.36347 -16.66054,0 -16.66053,0 0,16.66053 0,16.66054 23.87648,0 23.87647,0 -0.47238,-9.91699 z"
       style="fill:#424242;fill-opacity:1" />
  </g>
</svg>
