<?xml version="1.0" encoding="UTF-8" standalone="no"?>
<svg
   xmlns:dc="http://purl.org/dc/elements/1.1/"
   xmlns:cc="http://creativecommons.org/ns#"
   xmlns:rdf="http://www.w3.org/1999/02/22-rdf-syntax-ns#"
   xmlns:svg="http://www.w3.org/2000/svg"
   xmlns="http://www.w3.org/2000/svg"
   version="1.1"
   id="svg4557"
   viewBox="0 0 111.25 73.550761"
   height="20.75766mm"
   width="31.397223mm">
  <defs
     id="defs4559" />
  <metadata
     id="metadata4562">
    <rdf:RDF>
      <cc:Work
         rdf:about="">
        <dc:format>image/svg+xml</dc:format>
        <dc:type
           rdf:resource="http://purl.org/dc/dcmitype/StillImage" />
        <dc:title></dc:title>
      </cc:Work>
    </rdf:RDF>
  </metadata>
  <g
     transform="translate(-267.31822,-421.27395)"
     id="layer1">
    <path
       id="path4391"
       d="m 307.22701,492.2695 c -2.71955,-1.31683 -5.4551,-5.94127 -5.4551,-9.22183 0,-1.48296 -2.63746,-1.81618 -14.375,-1.81618 l -14.375,0 0,-30 0,-30 33.75,0 33.75001,0 0,21.25 0,21.25 13.69118,0 c 7.53016,0 15.06188,0.62453 16.73717,1.38784 4.00018,1.8226 5.82165,6.08158 5.82165,13.61216 0,7.53058 -1.82147,11.78956 -5.82165,13.61216 -3.96868,1.80825 -59.97026,1.74308 -63.72326,-0.0741 z m 20.79491,-14.16301 c 0,-3.78125 -0.5625,-6.875 -1.25,-6.875 -0.6875,0 -1.25,3.09375 -1.25,6.875 0,3.78125 0.5625,6.875 1.25,6.875 0.6875,0 1.25,-3.09375 1.25,-6.875 z m 6.25,1.875 c 0,-2.75 -0.5625,-5 -1.25,-5 -0.6875,0 -1.25,2.25 -1.25,5 0,2.75 0.5625,5 1.25,5 0.6875,0 1.25,-2.25 1.25,-5 z m 6.28801,2.8125 c 0.0362,-2.08333 0.0987,-2.08333 1.31211,0 0.70076,1.20312 2.1218,2.1875 3.15787,2.1875 1.66717,0 1.66293,-0.31529 -0.0368,-2.74202 -1.73591,-2.47836 -1.7241,-2.95914 0.12285,-5 1.69513,-1.87309 1.73343,-2.25798 0.22471,-2.25798 -1.0003,0 -2.49373,0.675 -3.31873,1.5 -1.16667,1.16667 -1.5,0.75 -1.5,-1.875 0,-2.16667 -0.6713,-3.375 -1.875,-3.375 -1.43939,0 -1.875,1.59722 -1.875,6.875 0,5.27778 0.43561,6.875 1.875,6.875 1.03125,0 1.89211,-0.98438 1.91301,-2.1875 z m 14.96199,1.02444 c 0,-0.63969 -1.26563,-1.40683 -2.8125,-1.70477 -2.41143,-0.46447 -2.32231,-0.56599 0.625,-0.71194 3.61076,-0.17881 4.4776,-2.38012 1.9375,-4.92023 -3.98417,-3.98417 -9.95072,0.95366 -7.25,6 1.34165,2.5069 7.5,3.60467 7.5,1.33694 z m -53.75001,-9.40312 c 0,-3.46002 2.78964,-7.9145 5.82166,-9.29598 1.67528,-0.76331 8.6445,-1.38784 15.48717,-1.38784 l 12.44118,0 0,-16.25 0,-16.25 -28.75001,0 -28.75,0 0,22.5 0,22.5 11.875,0 c 9.5513,0 11.875,-0.35539 11.875,-1.81618 z m 32.50001,-1.93382 c 0,-0.6875 -0.5625,-1.25 -1.25,-1.25 -0.6875,0 -1.25,0.5625 -1.25,1.25 0,0.6875 0.5625,1.25 1.25,1.25 0.6875,0 1.25,-0.5625 1.25,-1.25 z"
       style="fill:#424242;fill-opacity:1" />
  </g>
</svg>
